<svg xmlns="http://www.w3.org/2000/svg" viewBox="0 0 500 500"><g id="freepik--background-complete--inject-38"><rect y="382.4" width="500" height="0.25" style="fill:#ebebeb"></rect><rect x="52.46" y="391.92" width="33.12" height="0.25" style="fill:#ebebeb"></rect><rect x="171.14" y="392.05" width="53.86" height="0.25" style="fill:#ebebeb"></rect><rect x="105.77" y="397.08" width="19.19" height="0.25" style="fill:#ebebeb"></rect><rect x="426.77" y="396.96" width="19.23" height="0.25" style="fill:#ebebeb"></rect><rect x="387.57" y="396.96" width="30.29" height="0.25" style="fill:#ebebeb"></rect><rect x="328.33" y="395.31" width="42.56" height="0.25" style="fill:#ebebeb"></rect><path d="M237,337.8H43.91a5.71,5.71,0,0,1-5.7-5.71V60.66A5.71,5.71,0,0,1,43.91,55H237a5.71,5.71,0,0,1,5.71,5.71V332.09A5.71,5.71,0,0,1,237,337.8ZM43.91,55.2a5.46,5.46,0,0,0-5.45,5.46V332.09a5.46,5.46,0,0,0,5.45,5.46H237a5.47,5.47,0,0,0,5.46-5.46V60.66A5.47,5.47,0,0,0,237,55.2Z" style="fill:#ebebeb"></path><path d="M453.31,337.8H260.21a5.72,5.72,0,0,1-5.71-5.71V60.66A5.72,5.72,0,0,1,260.21,55h193.1A5.71,5.71,0,0,1,459,60.66V332.09A5.71,5.71,0,0,1,453.31,337.8ZM260.21,55.2a5.47,5.47,0,0,0-5.46,5.46V332.09a5.47,5.47,0,0,0,5.46,5.46h193.1a5.47,5.47,0,0,0,5.46-5.46V60.66a5.47,5.47,0,0,0-5.46-5.46Z" style="fill:#ebebeb"></path><rect x="302.21" y="241.5" width="28.32" height="140.9" transform="translate(632.75 623.9) rotate(180)" style="fill:#e6e6e6"></rect><polygon points="307.59 382.4 302.21 382.4 302.21 367.1 313.23 367.1 307.59 382.4" style="fill:#f0f0f0"></polygon><rect x="408.06" y="241.5" width="28.32" height="140.9" transform="translate(844.44 623.9) rotate(180)" style="fill:#e6e6e6"></rect><rect x="302.21" y="241.5" width="110.54" height="131.51" transform="translate(714.97 614.51) rotate(180)" style="fill:#f0f0f0"></rect><rect x="318.25" y="316.45" width="25.57" height="49.29" transform="translate(-10.06 672.13) rotate(-90)" style="fill:#e6e6e6"></rect><rect x="371.15" y="316.45" width="25.57" height="49.29" transform="translate(42.84 725.03) rotate(-90)" style="fill:#e6e6e6"></rect><path d="M379.06,332.59h9.75a15.4,15.4,0,0,0,11.2-4.82H367.86A15.4,15.4,0,0,0,379.06,332.59Z" style="fill:#f0f0f0"></path><path d="M325.66,332.59h9.75a15.4,15.4,0,0,0,11.2-4.82H314.46A15.4,15.4,0,0,0,325.66,332.59Z" style="fill:#f0f0f0"></path><rect x="318.25" y="276.7" width="25.57" height="49.29" transform="translate(29.68 632.38) rotate(-90)" style="fill:#e6e6e6"></rect><rect x="371.15" y="276.7" width="25.57" height="49.29" transform="translate(82.59 685.29) rotate(-90)" style="fill:#e6e6e6"></rect><path d="M379.06,292.84h9.75A15.43,15.43,0,0,0,400,288H367.86A15.43,15.43,0,0,0,379.06,292.84Z" style="fill:#f0f0f0"></path><path d="M325.66,292.84h9.75a15.43,15.43,0,0,0,11.2-4.81H314.46A15.43,15.43,0,0,0,325.66,292.84Z" style="fill:#f0f0f0"></path><rect x="318.25" y="236.96" width="25.57" height="49.29" transform="translate(69.43 592.64) rotate(-90)" style="fill:#e6e6e6"></rect><rect x="371.15" y="236.96" width="25.57" height="49.29" transform="translate(122.33 645.54) rotate(-90)" style="fill:#e6e6e6"></rect><path d="M379.06,253.1h9.75a15.4,15.4,0,0,0,11.2-4.82H367.86A15.4,15.4,0,0,0,379.06,253.1Z" style="fill:#f0f0f0"></path><path d="M325.66,253.1h9.75a15.4,15.4,0,0,0,11.2-4.82H314.46A15.4,15.4,0,0,0,325.66,253.1Z" style="fill:#f0f0f0"></path><polygon points="407.38 382.4 412.76 382.4 412.76 367.1 401.74 367.1 407.38 382.4" style="fill:#f0f0f0"></polygon><polygon points="412.04 144.77 416.37 156.61 412.04 156.61 385.47 144.77 412.04 144.77" style="fill:#f5f5f5"></polygon><polygon points="416.37 144.77 416.37 156.61 389.81 144.77 416.37 144.77" style="fill:#e6e6e6"></polygon><polygon points="307.87 144.77 312.2 156.61 307.87 156.61 281.31 144.77 307.87 144.77" style="fill:#f5f5f5"></polygon><polygon points="312.2 144.77 312.2 156.61 285.64 144.77 312.2 144.77" style="fill:#e6e6e6"></polygon><rect x="406.98" y="136.31" width="28.89" height="9.01" style="fill:#e6e6e6"></rect><rect x="263.35" y="136.31" width="143.63" height="9.01" transform="translate(670.33 281.64) rotate(180)" style="fill:#f5f5f5"></rect><path d="M377.81,105s.29,31.32,11.1,31.32S400,105,400,105Z" style="fill:#f0f0f0"></path><path d="M310.78,126.1s.76,10.21,29.84,10.21,29.84-10.21,29.84-10.21Z" style="fill:#f0f0f0"></path><path d="M224.36,382.4h1.93l5.53-27.25,1-4.78,6-29.7H262l12.53,61.73h1.94l-12.77-62.86a.94.94,0,0,0-.93-.76H238.05a.93.93,0,0,0-.92.76l-5.3,26.08-1,4.77Z" style="fill:#f0f0f0"></path><path d="M187.23,382.4h1.93l12.54-61.73h23.12l6,29.72,1,4.76,5.54,27.25h1.93l-6.5-32-1-4.75-5.3-26.08a1,1,0,0,0-.93-.76H200.93a.94.94,0,0,0-.93.76Z" style="fill:#f0f0f0"></path><path d="M265.46,311.58H198.19a5.83,5.83,0,0,0-5.82,5.82v.2a2.13,2.13,0,0,0,2.13,2.13h74.65a2.13,2.13,0,0,0,2.13-2.13v-.2A5.83,5.83,0,0,0,265.46,311.58Z" style="fill:#f0f0f0"></path><path d="M156.85,382.4h1.93l5.53-27.25,1-4.78,6-29.7h23.12L207,382.4h1.94l-12.77-62.86a.94.94,0,0,0-.93-.76H170.54a.93.93,0,0,0-.92.76l-5.3,26.08-1,4.77Z" style="fill:#f0f0f0"></path><path d="M119.72,382.4h1.94l12.53-61.73h23.13l6,29.72,1,4.76,5.54,27.25h1.93l-6.5-32-1-4.75L159,319.54a1,1,0,0,0-.93-.76H133.42a.94.94,0,0,0-.93.76Z" style="fill:#f0f0f0"></path><path d="M198,311.58H130.68a5.83,5.83,0,0,0-5.82,5.82v.2a2.13,2.13,0,0,0,2.13,2.13h74.66a2.12,2.12,0,0,0,2.12-2.13v-.2A5.83,5.83,0,0,0,198,311.58Z" style="fill:#f0f0f0"></path><rect x="84.33" y="77.76" width="96.65" height="154.83" transform="translate(265.31 310.36) rotate(180)" style="fill:#e6e6e6"></rect><rect x="78.02" y="77.76" width="100.01" height="154.83" transform="translate(256.05 310.36) rotate(180)" style="fill:#f0f0f0"></rect><rect x="84.33" y="232.6" width="96.65" height="11.74" transform="translate(265.31 476.93) rotate(180)" style="fill:#e6e6e6"></rect><rect x="67.49" y="232.6" width="100.01" height="11.74" transform="translate(235 476.93) rotate(180)" style="fill:#f0f0f0"></rect><rect x="59.45" y="114.02" width="137.15" height="82.33" transform="translate(283.2 27.16) rotate(90)" style="fill:#fafafa"></rect><polygon points="169.89 223.75 140.93 86.61 116.43 86.61 145.39 223.75 169.89 223.75" style="fill:#fff"></polygon><path d="M163.22,207.37a.63.63,0,0,0,.63-.63V92.36a.63.63,0,1,0-1.26,0V206.74A.63.63,0,0,0,163.22,207.37Z" style="fill:#f0f0f0"></path><polygon points="140.13 223.75 111.17 86.61 101.62 86.61 130.57 223.75 140.13 223.75" style="fill:#fff"></polygon><rect x="18.85" y="154.62" width="137.15" height="1.12" transform="translate(242.6 67.76) rotate(90)" style="fill:#e6e6e6"></rect><polygon points="75.92 93.4 172.57 93.4 173.39 90.04 76.74 90.04 75.92 93.4" style="fill:#f0f0f0;opacity:0.6000000000000001"></polygon><polygon points="75.92 101.21 172.57 101.21 173.39 97.86 76.74 97.86 75.92 101.21" style="fill:#f0f0f0;opacity:0.6000000000000001"></polygon><polygon points="75.92 109.03 172.57 109.03 173.39 105.67 76.74 105.67 75.92 109.03" style="fill:#f0f0f0;opacity:0.6000000000000001"></polygon><polygon points="75.92 116.84 172.57 116.84 173.39 113.49 76.74 113.49 75.92 116.84" style="fill:#f0f0f0;opacity:0.6000000000000001"></polygon><polygon points="75.92 124.66 172.57 124.66 173.39 121.31 76.74 121.31 75.92 124.66" style="fill:#f0f0f0;opacity:0.6000000000000001"></polygon><polygon points="75.92 132.48 172.57 132.48 173.39 129.12 76.74 129.12 75.92 132.48" style="fill:#f0f0f0;opacity:0.6000000000000001"></polygon></g><g id="freepik--Shadow--inject-38"><ellipse id="freepik--path--inject-38" cx="250" cy="416.24" rx="193.89" ry="11.32" style="fill:#f5f5f5"></ellipse></g><g id="freepik--Briefcases--inject-38"><rect x="180.47" y="262.73" width="64.21" height="28.6" rx="1.56" style="fill:#4481EB"></rect><rect x="180.47" y="262.73" width="64.21" height="28.6" rx="1.56" style="fill:#fff;opacity:0.6000000000000001"></rect><path d="M243.11,262.73H182a1.56,1.56,0,0,0-1.56,1.56v8.17l31.8,6.26a1.47,1.47,0,0,0,.59,0l31.81-6.26v-8.17A1.56,1.56,0,0,0,243.11,262.73Z" style="opacity:0.1"></path><path d="M244.45,252.27H225.79v-3.13a4.89,4.89,0,0,0-4.88-4.88H204.24a4.89,4.89,0,0,0-4.88,4.88v3.13H180.71a1.54,1.54,0,0,0-1.54,1.54v15.41a1.55,1.55,0,0,0,1.24,1.51L212.28,277a1.94,1.94,0,0,0,.59,0l31.87-6.27a1.56,1.56,0,0,0,1.25-1.51V253.81A1.54,1.54,0,0,0,244.45,252.27Zm-41.38-3.13a1.19,1.19,0,0,1,1.17-1.18h16.67a1.19,1.19,0,0,1,1.17,1.18v3.13h-19Z" style="fill:#4481EB"></path><path d="M244.45,252.27H225.79v-3.13a4.89,4.89,0,0,0-4.88-4.88H204.24a4.89,4.89,0,0,0-4.88,4.88v3.13H180.71a1.54,1.54,0,0,0-1.54,1.54v15.41a1.55,1.55,0,0,0,1.24,1.51L212.28,277a1.94,1.94,0,0,0,.59,0l31.87-6.27a1.56,1.56,0,0,0,1.25-1.51V253.81A1.54,1.54,0,0,0,244.45,252.27Zm-41.38-3.13a1.19,1.19,0,0,1,1.17-1.18h16.67a1.19,1.19,0,0,1,1.17,1.18v3.13h-19Z" style="fill:#fff;opacity:0.6000000000000001"></path><rect x="207.81" y="272.79" width="9.54" height="7.12" rx="1.48" style="fill:#4481EB"></rect><rect x="207.81" y="272.79" width="9.54" height="7.12" rx="1.48" style="fill:#fff;opacity:0.30000000000000004"></rect><rect x="180.47" y="78.77" width="64.21" height="28.6" rx="1.56" style="fill:#4481EB"></rect><rect x="180.47" y="78.77" width="64.21" height="28.6" rx="1.56" style="fill:#fff;opacity:0.6000000000000001"></rect><path d="M243.11,78.77H182a1.56,1.56,0,0,0-1.56,1.56V88.5l31.8,6.26a1.47,1.47,0,0,0,.59,0l31.81-6.26V80.33A1.56,1.56,0,0,0,243.11,78.77Z" style="opacity:0.1"></path><path d="M244.45,68.31H225.79V65.18a4.89,4.89,0,0,0-4.88-4.88H204.24a4.89,4.89,0,0,0-4.88,4.88v3.13H180.71a1.54,1.54,0,0,0-1.54,1.54V85.26a1.54,1.54,0,0,0,1.24,1.51L212.28,93a1.47,1.47,0,0,0,.59,0l31.87-6.27A1.55,1.55,0,0,0,246,85.26V69.85A1.54,1.54,0,0,0,244.45,68.31Zm-41.38-3.13A1.18,1.18,0,0,1,204.24,64h16.67a1.18,1.18,0,0,1,1.17,1.17v3.13h-19Z" style="fill:#4481EB"></path><path d="M244.45,68.31H225.79V65.18a4.89,4.89,0,0,0-4.88-4.88H204.24a4.89,4.89,0,0,0-4.88,4.88v3.13H180.71a1.54,1.54,0,0,0-1.54,1.54V85.26a1.54,1.54,0,0,0,1.24,1.51L212.28,93a1.47,1.47,0,0,0,.59,0l31.87-6.27A1.55,1.55,0,0,0,246,85.26V69.85A1.54,1.54,0,0,0,244.45,68.31Zm-41.38-3.13A1.18,1.18,0,0,1,204.24,64h16.67a1.18,1.18,0,0,1,1.17,1.17v3.13h-19Z" style="fill:#fff;opacity:0.6000000000000001"></path><rect x="207.81" y="88.84" width="9.54" height="7.12" rx="1.48" style="fill:#4481EB"></rect><rect x="207.81" y="88.84" width="9.54" height="7.12" rx="1.48" style="fill:#fff;opacity:0.30000000000000004"></rect><rect x="85.31" y="262.73" width="64.21" height="28.6" rx="1.56" style="fill:#4481EB"></rect><rect x="85.31" y="262.73" width="64.21" height="28.6" rx="1.56" style="fill:#fff;opacity:0.6000000000000001"></rect><path d="M148,262.73H86.87a1.56,1.56,0,0,0-1.56,1.56v8.17l31.8,6.26a1.52,1.52,0,0,0,.6,0l31.81-6.26v-8.17A1.56,1.56,0,0,0,148,262.73Z" style="opacity:0.1"></path><path d="M149.28,252.27H130.62v-3.13a4.89,4.89,0,0,0-4.88-4.88H109.08a4.89,4.89,0,0,0-4.88,4.88v3.13H85.54A1.54,1.54,0,0,0,84,253.81v15.41a1.55,1.55,0,0,0,1.24,1.51L117.11,277a2,2,0,0,0,.6,0l31.87-6.27a1.55,1.55,0,0,0,1.24-1.51V253.81A1.54,1.54,0,0,0,149.28,252.27Zm-41.38-3.13a1.2,1.2,0,0,1,1.18-1.18h16.66a1.2,1.2,0,0,1,1.18,1.18v3.13h-19Z" style="fill:#4481EB"></path><path d="M149.28,252.27H130.62v-3.13a4.89,4.89,0,0,0-4.88-4.88H109.08a4.89,4.89,0,0,0-4.88,4.88v3.13H85.54A1.54,1.54,0,0,0,84,253.81v15.41a1.55,1.55,0,0,0,1.24,1.51L117.11,277a2,2,0,0,0,.6,0l31.87-6.27a1.55,1.55,0,0,0,1.24-1.51V253.81A1.54,1.54,0,0,0,149.28,252.27Zm-41.38-3.13a1.2,1.2,0,0,1,1.18-1.18h16.66a1.2,1.2,0,0,1,1.18,1.18v3.13h-19Z" style="fill:#fff;opacity:0.6000000000000001"></path><rect x="112.64" y="272.79" width="9.54" height="7.12" rx="1.48" style="fill:#4481EB"></rect><rect x="112.64" y="272.79" width="9.54" height="7.12" rx="1.48" style="fill:#fff;opacity:0.30000000000000004"></rect><rect x="85.31" y="78.77" width="64.21" height="28.6" rx="1.56" style="fill:#4481EB"></rect><rect x="85.31" y="78.77" width="64.21" height="28.6" rx="1.56" style="fill:#fff;opacity:0.6000000000000001"></rect><path d="M148,78.77H86.87a1.56,1.56,0,0,0-1.56,1.56V88.5l31.8,6.26a1.51,1.51,0,0,0,.6,0l31.81-6.26V80.33A1.56,1.56,0,0,0,148,78.77Z" style="opacity:0.1"></path><path d="M149.28,68.31H130.62V65.18a4.89,4.89,0,0,0-4.88-4.88H109.08a4.89,4.89,0,0,0-4.88,4.88v3.13H85.54A1.54,1.54,0,0,0,84,69.85V85.26a1.54,1.54,0,0,0,1.24,1.51L117.11,93a1.51,1.51,0,0,0,.6,0l31.87-6.27a1.54,1.54,0,0,0,1.24-1.51V69.85A1.54,1.54,0,0,0,149.28,68.31ZM107.9,65.18A1.19,1.19,0,0,1,109.08,64h16.66a1.19,1.19,0,0,1,1.18,1.17v3.13h-19Z" style="fill:#4481EB"></path><path d="M149.28,68.31H130.62V65.18a4.89,4.89,0,0,0-4.88-4.88H109.08a4.89,4.89,0,0,0-4.88,4.88v3.13H85.54A1.54,1.54,0,0,0,84,69.85V85.26a1.54,1.54,0,0,0,1.24,1.51L117.11,93a1.51,1.51,0,0,0,.6,0l31.87-6.27a1.54,1.54,0,0,0,1.24-1.51V69.85A1.54,1.54,0,0,0,149.28,68.31ZM107.9,65.18A1.19,1.19,0,0,1,109.08,64h16.66a1.19,1.19,0,0,1,1.18,1.17v3.13h-19Z" style="fill:#fff;opacity:0.6000000000000001"></path><rect x="112.64" y="88.84" width="9.54" height="7.12" rx="1.48" style="fill:#4481EB"></rect><rect x="112.64" y="88.84" width="9.54" height="7.12" rx="1.48" style="fill:#fff;opacity:0.30000000000000004"></rect><path d="M140,199.35H86.87a1.57,1.57,0,0,1-1.57-1.57V172.31a1.55,1.55,0,0,1,.13-.61,2.15,2.15,0,0,1,.14-.26,1.1,1.1,0,0,1,.2-.23,1.56,1.56,0,0,1,1.1-.46h50.29a65.58,65.58,0,0,0-.41,10.52c0,.57,0,1.14.09,1.7.07,1.05.15,2.11.27,3.16A67,67,0,0,0,140,199.35Z" style="fill:#4481EB"></path><path d="M140,199.35H86.87a1.57,1.57,0,0,1-1.57-1.57V172.31a1.55,1.55,0,0,1,.13-.61,2.15,2.15,0,0,1,.14-.26,1.1,1.1,0,0,1,.2-.23,1.56,1.56,0,0,1,1.1-.46h50.29a65.58,65.58,0,0,0-.41,10.52c0,.57,0,1.14.09,1.7.07,1.05.15,2.11.27,3.16A67,67,0,0,0,140,199.35Z" style="fill:#fff;opacity:0.6000000000000001"></path><path d="M137.16,170.75a65.58,65.58,0,0,0-.41,10.52c0,.57,0,1.14.09,1.7l-14.66,2.88-4.48.88a1.18,1.18,0,0,1-.59,0l-4.47-.87-27.33-5.38V172.3a1.69,1.69,0,0,1,.12-.6,2.15,2.15,0,0,1,.14-.26,1.1,1.1,0,0,1,.2-.23,1.56,1.56,0,0,1,1.1-.46Z" style="opacity:0.1"></path><path d="M139.25,160.29h-8.62v-3.13a4.9,4.9,0,0,0-4.89-4.88H109.08a4.88,4.88,0,0,0-4.88,4.88v3.13H85.54A1.54,1.54,0,0,0,84,161.83v15.4a1.55,1.55,0,0,0,1.25,1.52h.06l27.33,5.39,4.47.87a1.47,1.47,0,0,0,.59,0l4.48-.88,14.57-2.87a65.58,65.58,0,0,1,.41-10.52A66.34,66.34,0,0,1,139.25,160.29Zm-31.35-3.13a1.19,1.19,0,0,1,1.18-1.17h16.66a1.18,1.18,0,0,1,1.17,1.17v3.13h-19Z" style="fill:#4481EB"></path><path d="M139.25,160.29h-8.62v-3.13a4.9,4.9,0,0,0-4.89-4.88H109.08a4.88,4.88,0,0,0-4.88,4.88v3.13H85.54A1.54,1.54,0,0,0,84,161.83v15.4a1.55,1.55,0,0,0,1.25,1.52h.06l27.33,5.39,4.47.87a1.47,1.47,0,0,0,.59,0l4.48-.88,14.57-2.87a65.58,65.58,0,0,1,.41-10.52A66.34,66.34,0,0,1,139.25,160.29Zm-31.35-3.13a1.19,1.19,0,0,1,1.18-1.17h16.66a1.18,1.18,0,0,1,1.17,1.17v3.13h-19Z" style="fill:#fff;opacity:0.6000000000000001"></path><rect x="112.64" y="180.81" width="9.54" height="7.12" rx="1.48" style="fill:#4481EB"></rect><rect x="112.64" y="180.81" width="9.54" height="7.12" rx="1.48" style="fill:#fff;opacity:0.30000000000000004"></rect><rect x="275.64" y="262.73" width="64.21" height="28.6" rx="1.56" transform="translate(615.48 554.05) rotate(180)" style="fill:#4481EB"></rect><rect x="275.64" y="262.73" width="64.21" height="28.6" rx="1.56" transform="translate(615.48 554.05) rotate(180)" style="fill:#fff;opacity:0.6000000000000001"></rect><path d="M277.2,262.73h61.08a1.56,1.56,0,0,1,1.56,1.56v8.17L308,278.72a1.47,1.47,0,0,1-.59,0l-31.81-6.26v-8.17A1.56,1.56,0,0,1,277.2,262.73Z" style="opacity:0.1"></path><path d="M275.87,252.27h18.66v-3.13a4.89,4.89,0,0,1,4.88-4.88h16.67a4.89,4.89,0,0,1,4.88,4.88v3.13h18.65a1.54,1.54,0,0,1,1.54,1.54v15.41a1.55,1.55,0,0,1-1.24,1.51L308,277a2,2,0,0,1-.6,0l-31.87-6.27a1.55,1.55,0,0,1-1.24-1.51V253.81A1.54,1.54,0,0,1,275.87,252.27Zm41.38-3.13a1.19,1.19,0,0,0-1.17-1.18H299.41a1.2,1.2,0,0,0-1.18,1.18v3.13h19Z" style="fill:#4481EB"></path><path d="M275.87,252.27h18.66v-3.13a4.89,4.89,0,0,1,4.88-4.88h16.67a4.89,4.89,0,0,1,4.88,4.88v3.13h18.65a1.54,1.54,0,0,1,1.54,1.54v15.41a1.55,1.55,0,0,1-1.24,1.51L308,277a2,2,0,0,1-.6,0l-31.87-6.27a1.55,1.55,0,0,1-1.24-1.51V253.81A1.54,1.54,0,0,1,275.87,252.27Zm41.38-3.13a1.19,1.19,0,0,0-1.17-1.18H299.41a1.2,1.2,0,0,0-1.18,1.18v3.13h19Z" style="fill:#fff;opacity:0.6000000000000001"></path><rect x="302.97" y="272.79" width="9.54" height="7.12" rx="1.48" transform="translate(615.48 552.7) rotate(180)" style="fill:#4481EB"></rect><rect x="302.97" y="272.79" width="9.54" height="7.12" rx="1.48" transform="translate(615.48 552.7) rotate(180)" style="fill:#fff;opacity:0.30000000000000004"></rect><rect x="275.64" y="78.77" width="64.21" height="28.6" rx="1.56" transform="translate(615.48 186.13) rotate(180)" style="fill:#4481EB"></rect><rect x="275.64" y="78.77" width="64.21" height="28.6" rx="1.56" transform="translate(615.48 186.13) rotate(180)" style="fill:#fff;opacity:0.6000000000000001"></rect><path d="M277.2,78.77h61.08a1.56,1.56,0,0,1,1.56,1.56V88.5L308,94.76a1.47,1.47,0,0,1-.59,0L275.64,88.5V80.33A1.56,1.56,0,0,1,277.2,78.77Z" style="opacity:0.1"></path><path d="M275.87,68.31h18.66V65.18a4.89,4.89,0,0,1,4.88-4.88h16.67A4.89,4.89,0,0,1,321,65.18v3.13h18.65a1.54,1.54,0,0,1,1.54,1.54V85.26a1.54,1.54,0,0,1-1.24,1.51L308,93a1.51,1.51,0,0,1-.6,0l-31.87-6.27a1.54,1.54,0,0,1-1.24-1.51V69.85A1.54,1.54,0,0,1,275.87,68.31Zm41.38-3.13A1.18,1.18,0,0,0,316.08,64H299.41a1.19,1.19,0,0,0-1.18,1.17v3.13h19Z" style="fill:#4481EB"></path><path d="M275.87,68.31h18.66V65.18a4.89,4.89,0,0,1,4.88-4.88h16.67A4.89,4.89,0,0,1,321,65.18v3.13h18.65a1.54,1.54,0,0,1,1.54,1.54V85.26a1.54,1.54,0,0,1-1.24,1.51L308,93a1.51,1.51,0,0,1-.6,0l-31.87-6.27a1.54,1.54,0,0,1-1.24-1.51V69.85A1.54,1.54,0,0,1,275.87,68.31Zm41.38-3.13A1.18,1.18,0,0,0,316.08,64H299.41a1.19,1.19,0,0,0-1.18,1.17v3.13h19Z" style="fill:#fff;opacity:0.6000000000000001"></path><rect x="302.97" y="88.84" width="9.54" height="7.12" rx="1.48" transform="translate(615.48 184.79) rotate(-180)" style="fill:#4481EB"></rect><rect x="302.97" y="88.84" width="9.54" height="7.12" rx="1.48" transform="translate(615.48 184.79) rotate(-180)" style="fill:#fff;opacity:0.30000000000000004"></rect><path d="M285.19,199.35h53.1a1.57,1.57,0,0,0,1.56-1.57V172.31a1.55,1.55,0,0,0-.13-.61,1.3,1.3,0,0,0-.14-.26,1.1,1.1,0,0,0-.2-.23,1.54,1.54,0,0,0-1.1-.46H288a65.58,65.58,0,0,1,.41,10.52c0,.57,0,1.14-.09,1.7-.06,1.05-.15,2.11-.27,3.16A67,67,0,0,1,285.19,199.35Z" style="fill:#4481EB"></path><path d="M285.19,199.35h53.1a1.57,1.57,0,0,0,1.56-1.57V172.31a1.55,1.55,0,0,0-.13-.61,1.3,1.3,0,0,0-.14-.26,1.1,1.1,0,0,0-.2-.23,1.54,1.54,0,0,0-1.1-.46H288a65.58,65.58,0,0,1,.41,10.52c0,.57,0,1.14-.09,1.7-.06,1.05-.15,2.11-.27,3.16A67,67,0,0,1,285.19,199.35Z" style="fill:#fff;opacity:0.6000000000000001"></path><path d="M288,170.75a65.58,65.58,0,0,1,.41,10.52c0,.57,0,1.14-.09,1.7L303,185.85l4.48.88a1.18,1.18,0,0,0,.59,0l4.47-.87,27.33-5.38V172.3a1.69,1.69,0,0,0-.12-.6,1.3,1.3,0,0,0-.14-.26,1.1,1.1,0,0,0-.2-.23,1.54,1.54,0,0,0-1.1-.46Z" style="opacity:0.1"></path><path d="M285.9,160.29h8.63v-3.13a4.89,4.89,0,0,1,4.88-4.88h16.66a4.89,4.89,0,0,1,4.89,4.88v3.13h18.65a1.54,1.54,0,0,1,1.54,1.54v15.4a1.55,1.55,0,0,1-1.24,1.52h-.07l-27.33,5.39L308,185a1.47,1.47,0,0,1-.59,0l-4.48-.88-14.57-2.87a67,67,0,0,0-2.5-21Zm31.35-3.13a1.19,1.19,0,0,0-1.18-1.17H299.41a1.18,1.18,0,0,0-1.17,1.17v3.13h19Z" style="fill:#4481EB"></path><path d="M285.9,160.29h8.63v-3.13a4.89,4.89,0,0,1,4.88-4.88h16.66a4.89,4.89,0,0,1,4.89,4.88v3.13h18.65a1.54,1.54,0,0,1,1.54,1.54v15.4a1.55,1.55,0,0,1-1.24,1.52h-.07l-27.33,5.39L308,185a1.47,1.47,0,0,1-.59,0l-4.48-.88-14.57-2.87a67,67,0,0,0-2.5-21Zm31.35-3.13a1.19,1.19,0,0,0-1.18-1.17H299.41a1.18,1.18,0,0,0-1.17,1.17v3.13h19Z" style="fill:#fff;opacity:0.6000000000000001"></path><rect x="302.97" y="180.81" width="9.54" height="7.12" rx="1.48" transform="translate(615.48 368.75) rotate(180)" style="fill:#4481EB"></rect><rect x="302.97" y="180.81" width="9.54" height="7.12" rx="1.48" transform="translate(615.48 368.75) rotate(180)" style="fill:#fff;opacity:0.30000000000000004"></rect><rect x="169.68" y="164.54" width="92.26" height="41.09" rx="2.24" style="fill:#4481EB"></rect><path d="M227.78,158H203.83a6.86,6.86,0,0,1-6.85-6.85V145a6.86,6.86,0,0,1,6.85-6.85h23.95a6.85,6.85,0,0,1,6.85,6.85v6.12A6.85,6.85,0,0,1,227.78,158Zm-23.95-14.82A1.85,1.85,0,0,0,202,145v6.12a1.85,1.85,0,0,0,1.85,1.85h23.95a1.85,1.85,0,0,0,1.85-1.85V145a1.85,1.85,0,0,0-1.85-1.85Z" style="fill:#4481EB"></path><path d="M259.69,164.54H171.93a2.24,2.24,0,0,0-2.25,2.24v11.75l45.7,9a2,2,0,0,0,.85,0l45.71-9V166.78A2.24,2.24,0,0,0,259.69,164.54Z" style="opacity:0.2"></path><path d="M262,176l-45.79,9a2.48,2.48,0,0,1-.86,0l-45.79-9a2.22,2.22,0,0,1-1.79-2.17V151.73a2.21,2.21,0,0,1,2.21-2.21H261.6a2.21,2.21,0,0,1,2.21,2.21v22.14A2.21,2.21,0,0,1,262,176Z" style="fill:#4481EB"></path><rect x="208.96" y="179.01" width="13.71" height="10.23" rx="2.12" style="fill:#4481EB"></rect><rect x="208.96" y="179.01" width="13.71" height="10.23" rx="2.12" style="opacity:0.4"></rect></g><g id="freepik--Character--inject-38"><path d="M380.9,187.21c1.15,2.37,2,4.61,3,6.95s1.73,4.67,2.51,7.06a90.17,90.17,0,0,1,3.49,14.86c.1.63.15,1.31.22,2l.1,1c0,.18,0,.31,0,.52l0,.65a21,21,0,0,1-.39,4.52,48.49,48.49,0,0,1-2.11,7.6,83,83,0,0,1-6.36,13.55l-5.08-2.15c1.13-4.56,2.27-9.21,3.13-13.7a57.49,57.49,0,0,0,.89-6.51,15.18,15.18,0,0,0-.06-2.68l-.11-.63-.14-.8c-.11-.53-.18-1.06-.31-1.6a102,102,0,0,0-3.86-13c-.76-2.17-1.6-4.33-2.44-6.5s-1.77-4.35-2.63-6.35Z" style="fill:#7f3e3b"></path><path d="M376.5,242.44l-3.9,3.8,8.51,4s2.06-3.6.64-6.86Z" style="fill:#7f3e3b"></path><polygon points="369.46 251.91 376.64 254.85 381.11 250.2 372.6 246.24 369.46 251.91" style="fill:#7f3e3b"></polygon><path d="M223.81,247.81a72,72,0,1,0-79.57-63.57A72,72,0,0,0,223.81,247.81Z" style="fill:#4481EB;opacity:0.2"></path><path d="M171.42,119.54,280.92,207c.47-1,.91-2,1.34-3a71.06,71.06,0,0,0,5.2-20.48h0L192.88,108A71.39,71.39,0,0,0,171.42,119.54Z" style="fill:#fff;opacity:0.1"></path><path d="M146.16,157.87,249.1,240.12a72,72,0,0,0,24.78-21.28L161.46,129A72,72,0,0,0,146.16,157.87Z" style="fill:#fff;opacity:0.1"></path><path d="M393.17,257.12a10.68,10.68,0,0,0-1.73-5.1,7.38,7.38,0,0,0-2.95-2.61l-6.83-3.35c-4.54-2.25-9.11-4.44-13.68-6.63s-9.17-4.34-13.75-6.51-9.2-4.28-13.83-6.35q-13.86-6.28-27.9-12.22c-4.68-2-9.37-3.92-14.1-5.8h0a5.85,5.85,0,0,1-3.43-7.22,83.07,83.07,0,1,0-11.12,22.51,5.86,5.86,0,0,1,7.83-1.67h0q6.56,3.9,13.18,7.67,13.23,7.54,26.66,14.7c4.47,2.42,9,4.75,13.45,7.12s9,4.68,13.53,7,9,4.59,13.59,6.83l6.81,3.38a7.34,7.34,0,0,0,3.87.76,10.58,10.58,0,0,0,5.09-1.73A11.27,11.27,0,0,0,393.17,257.12ZM186.8,235a65.54,65.54,0,1,1,87.77-29.76A65.53,65.53,0,0,1,186.8,235Z" style="fill:#4481EB"></path><path d="M343.19,156.3c0,.59-.31,1.07-.7,1.07s-.7-.48-.7-1.07.31-1.08.7-1.08S343.19,155.7,343.19,156.3Z" style="fill:#263238"></path><path d="M342.93,157.37a21.16,21.16,0,0,1-2.82,5.07,3.41,3.41,0,0,0,2.83.53Z" style="fill:#630f0f"></path><path d="M345.29,153a.35.35,0,0,0,.2-.63,3.49,3.49,0,0,0-3.13-.54.35.35,0,1,0,.25.65h0a2.79,2.79,0,0,1,2.48.45A.31.31,0,0,0,345.29,153Z" style="fill:#263238"></path><path d="M363.42,160.76c-1.06,5.38-2.11,15.23,1.65,18.81,0,0-1.47,5.45-11.45,5.45-11,0-5.25-5.45-5.25-5.45,6-1.43,5.84-5.88,4.79-10Z" style="fill:#7f3e3b"></path><path d="M367,176.2c.83.27-.25,5.21-.25,5.21s-1.37,3.45-18.39,2.25c-1.31-.1-.81-4.84.44-5.53C352.83,175.93,364.32,175.32,367,176.2Z" style="fill:#263238"></path><path d="M401.57,382.81c.92-.09,2.26-1.78,2.64-2.4a.17.17,0,0,0,0-.18.16.16,0,0,0-.17-.08c-.1,0-2.52.46-3.11,1.4a.84.84,0,0,0-.1.67c.13.44.38.56.58.59Zm2.11-2.23c-.65.9-1.72,1.95-2.23,1.88-.05,0-.2,0-.29-.34a.46.46,0,0,1,.06-.39A4.71,4.71,0,0,1,403.68,380.58Z" style="fill:#4481EB"></path><path d="M403.58,380.58a3.22,3.22,0,0,0,.53-.09.18.18,0,0,0,.12-.13.18.18,0,0,0-.06-.17c-.06-.06-1.68-1.44-2.78-1.33h0a.94.94,0,0,0-.68.36.55.55,0,0,0-.07.71C401,380.5,402.58,380.68,403.58,380.58Zm.08-.35c-1,.12-2.46-.08-2.74-.49,0,0-.08-.13.06-.31a.66.66,0,0,1,.45-.23h0A4.22,4.22,0,0,1,403.66,380.23Z" style="fill:#4481EB"></path><path d="M332.82,409.11a13.43,13.43,0,0,0,2.26-.2.2.2,0,0,0,.14-.14.17.17,0,0,0-.09-.18c-.11-.07-2.67-1.53-3.9-1.2a.9.9,0,0,0-.55.41.66.66,0,0,0,0,.76C331,409,331.88,409.11,332.82,409.11Zm1.7-.46c-1.37.19-3.23.18-3.57-.29-.05-.06-.09-.17,0-.39a.51.51,0,0,1,.34-.24C332.08,407.52,333.62,408.19,334.52,408.65Z" style="fill:#4481EB"></path><path d="M335,408.91a.2.2,0,0,0,.11,0,.2.2,0,0,0,.07-.16c0-.08-.21-2.06-1.14-2.83a1.33,1.33,0,0,0-1-.3c-.48.05-.61.29-.65.49-.13.83,1.63,2.42,2.51,2.82Zm-1.79-3a1,1,0,0,1,.61.23,4.15,4.15,0,0,1,1,2.26c-.91-.54-2.1-1.79-2-2.29,0,0,0-.16.34-.19Z" style="fill:#4481EB"></path><polygon points="343.12 408.74 335.78 408.74 335.04 391.72 342.39 391.72 343.12 408.74" style="fill:#7f3e3b"></polygon><polygon points="410.63 375.03 404.9 379.62 390.32 369.5 396.06 364.91 410.63 375.03" style="fill:#7f3e3b"></polygon><path d="M403.85,379.33l5.86-5.81a.65.65,0,0,1,.8-.08l5.63,3.62a1.07,1.07,0,0,1,.15,1.68c-2.08,2-3.19,2.86-5.77,5.41-1.58,1.58-5.45,6.28-7.64,8.45s-4.63.29-3.92-.8c3.15-4.86,4.22-8.87,4.36-11.31A1.81,1.81,0,0,1,403.85,379.33Z" style="fill:#263238"></path><path d="M335.82,407.89h8a.63.63,0,0,1,.62.5l1.45,6.53a1.06,1.06,0,0,1-1.05,1.3c-2.9,0-7.08-.21-10.72-.21-4.25,0-7.92.23-12.91.23-3,0-3.85-3.05-2.59-3.33,5.75-1.25,10.44-1.39,15.4-4.45A3.44,3.44,0,0,1,335.82,407.89Z" style="fill:#263238"></path><path d="M379.55,181.77c6.37,3,9,23.56,9,23.56l-14.65,5.75a117.21,117.21,0,0,1-5.51-17.15C366.34,184.65,373,178.65,379.55,181.77Z" style="fill:#4481EB"></path><path d="M379.55,181.77c6.37,3,9,23.56,9,23.56l-14.65,5.75a117.21,117.21,0,0,1-5.51-17.15C366.34,184.65,373,178.65,379.55,181.77Z" style="fill:#fff;opacity:0.30000000000000004"></path><path d="M370.06,187.8a8.18,8.18,0,0,0-1.56-.57,13.46,13.46,0,0,0-.06,6.7,116.48,116.48,0,0,0,5.5,17.15l4.83-1.89C377.88,203.82,375.15,190.24,370.06,187.8Z" style="opacity:0.2"></path><path d="M337.07,181.61s-7.82,8.83-.44,63.5h39.3c.27-6-3.52-35.46,2.3-63.88a102.86,102.86,0,0,0-13.16-1.66,145.27,145.27,0,0,0-16.7,0A73.5,73.5,0,0,0,337.07,181.61Z" style="fill:#4481EB"></path><path d="M337.07,181.61s-7.82,8.83-.44,63.5h39.3c.27-6-3.52-35.46,2.3-63.88a102.86,102.86,0,0,0-13.16-1.66,145.27,145.27,0,0,0-16.7,0A73.5,73.5,0,0,0,337.07,181.61Z" style="fill:#fff;opacity:0.30000000000000004"></path><path d="M345,193.33c-1.78-5.34-6.06-7.05-10.42-3.88-.88,5.18-1.5,13.53-.79,26.77l7.67-.07S347.63,201.28,345,193.33Z" style="opacity:0.2"></path><path d="M343.56,191.14c-.32,2.68-.76,5.11-1.25,7.64s-1.06,5-1.71,7.49a85.86,85.86,0,0,1-5.22,14.82c-.57,1.23-1.23,2.44-1.93,3.65-.36.61-.72,1.22-1.13,1.82a12.64,12.64,0,0,1-1.87,2.29,13.27,13.27,0,0,1-4.8,2.85,21.64,21.64,0,0,1-4.47,1.05,36.92,36.92,0,0,1-8.19.1q-2-.16-3.9-.51c-1.3-.23-2.53-.47-3.87-.82l.65-5.48a65.26,65.26,0,0,0,13.52-2A15.39,15.39,0,0,0,322,223a3.75,3.75,0,0,0,1.4-1.11c-.08.07.65-1.14,1.08-2s.91-2,1.32-3c.84-2.06,1.56-4.24,2.22-6.47s1.24-4.5,1.78-6.8,1-4.62,1.5-7,.86-4.74,1.22-6.95Z" style="fill:#7f3e3b"></path><path d="M346.89,187c2.07,6.71-6.33,26.71-6.33,26.71l-17.69-4.45a81.82,81.82,0,0,1,5.43-18.39C334,178.39,344.4,178.91,346.89,187Z" style="fill:#4481EB"></path><path d="M346.89,187c2.07,6.71-6.33,26.71-6.33,26.71l-17.69-4.45a81.82,81.82,0,0,1,5.43-18.39C334,178.39,344.4,178.91,346.89,187Z" style="fill:#fff;opacity:0.30000000000000004"></path><path d="M306.12,226.07l-8.32-.21,4,8.65s3.38.45,6.16-4.12l2.93-3.49-3.37-.68A8.22,8.22,0,0,0,306.12,226.07Z" style="fill:#7f3e3b"></path><polygon points="292.55 227.47 297.32 234.64 301.81 234.51 297.8 225.86 292.55 227.47" style="fill:#7f3e3b"></polygon><polygon points="335.05 391.73 335.42 400.5 342.77 400.5 342.39 391.73 335.05 391.73" style="opacity:0.2"></polygon><polygon points="396.06 364.91 390.32 369.5 397.84 374.72 403.58 370.13 396.06 364.91" style="opacity:0.2"></polygon><path d="M363,155c-.44,7.28-.32,11.56-4,15.3-5.52,5.62-14.51,2.3-16.25-5-1.57-6.54-.58-17.34,6.54-20.25A9.94,9.94,0,0,1,363,155Z" style="fill:#7f3e3b"></path><path d="M368.88,148.24s3.83,1.14,2.63,5.51c-1.81,6.64-6.07,14.28-11.57,14.76-6.85.61-9.94-6.46-10.84-13.77-4.1-2.81-7.14-5.44-6.16-8.36,1.5-4.5,6.94-8.38,15.6-7.38S371.51,145.6,368.88,148.24Z" style="fill:#263238"></path><path d="M353.27,156.24a8.24,8.24,0,0,1-2.06,4.87c-1.6,1.76-3.28.66-3.56-1.48-.25-1.94.27-5.19,2.23-6.16S353.4,154.06,353.27,156.24Z" style="fill:#7f3e3b"></path><path d="M350.57,245.11s-2.48,49.52,2.35,70.5c7.65,33.22,41.28,59.84,41.28,59.84L405,366.8s-27.67-20.59-30.16-48.25c-2.23-24.84,1.07-53.37,1.07-73.44Z" style="fill:#4481EB"></path><path d="M350.57,245.11s-2.48,49.52,2.35,70.5c7.65,33.22,41.28,59.84,41.28,59.84L405,366.8s-27.67-20.59-30.16-48.25c-2.23-24.84,1.07-53.37,1.07-73.44Z" style="opacity:0.2"></path><path d="M354.26,259.78c-1-1.93-2.95,3.82-4.31,11.2,0,10.18.18,21.76,1.07,31.57C357.81,290,356.37,263.78,354.26,259.78Z" style="opacity:0.2"></path><path d="M389.3,373.32s4.1,3.18,4.1,3.18l12.47-10.11L402.13,363Z" style="fill:#2c6bdb"></path><path d="M389.3,373.32s4.1,3.18,4.1,3.18l12.47-10.11L402.13,363Z" style="fill:#fafafa;opacity:0.4"></path><path d="M336.63,245.11s-11.06,46.9-11.84,69.3c-.87,25.13,7.89,84.39,7.89,84.39h12.45s1.53-59.72,2.09-82.61c.6-24.95,15.24-71.08,15.24-71.08Z" style="fill:#4481EB"></path><path d="M336.63,245.11s-11.06,46.9-11.84,69.3c-.87,25.13,7.89,84.39,7.89,84.39h12.45s1.53-59.72,2.09-82.61c.6-24.95,15.24-71.08,15.24-71.08Z" style="opacity:0.2"></path><path d="M330.29,393.84c-.06,0,.7,5.17.7,5.17h15.14l.41-4.61Z" style="fill:#2c6bdb"></path><path d="M330.29,393.84c-.06,0,.7,5.17.7,5.17h15.14l.41-4.61Z" style="fill:#fafafa;opacity:0.4"></path></g></svg>