<svg xmlns="http://www.w3.org/2000/svg" viewBox="0 0 500 500"><g id="freepik--Floor--inject-36"><ellipse id="freepik--floor--inject-36" cx="250" cy="351.32" rx="231.78" ry="133.82" style="fill:#f5f5f5"></ellipse></g><g id="freepik--Shadows--inject-36"><path id="freepik--Shadow--inject-36" d="M408.74,376.44c-9.55,5.52-9.55,14.47,0,20s25.06,5.51,34.62,0,9.56-14.47,0-20S418.3,370.92,408.74,376.44Z" style="fill:#e0e0e0"></path><ellipse id="freepik--shadow--inject-36" cx="264.36" cy="406.92" rx="47.57" ry="27.47" style="fill:#e0e0e0"></ellipse><ellipse id="freepik--shadow--inject-36" cx="336.92" cy="345.25" rx="96.11" ry="55.49" style="fill:#e0e0e0"></ellipse><path id="freepik--shadow--inject-36" d="M51.22,409.42l7.59,4.38a9.57,9.57,0,0,0,8.66,0l157.88-91.16c2.39-1.38,2.39-3.62,0-5l-7.59-4.38a9.57,9.57,0,0,0-8.66,0L51.22,404.42C48.83,405.8,48.83,408,51.22,409.42Z" style="fill:#e0e0e0"></path></g><g id="freepik--Screen--inject-36"><g id="freepik--instagram-window--inject-36"><path d="M235.76,74.17a3.62,3.62,0,0,0-1.58-3.35l-6.11-3.53a3.63,3.63,0,0,0-3.69.32h0l-126,72.83A10.07,10.07,0,0,0,94.46,145l141.3,81.58Z" style="fill:#f0f0f0"></path><path d="M93.61,395.35a3.65,3.65,0,0,0,1.57,3.35l6.11,3.53a2.8,2.8,0,0,0,1.43.37,4.58,4.58,0,0,0,2.26-.68L231,329.07c2-1.17,4.73-3.11,4.73-6.52v-96L94.46,145a8.94,8.94,0,0,0-.85,3.63Z" style="fill:#e0e0e0"></path><path d="M230.76,71.61l-126,72.83a9.88,9.88,0,0,0-4.45,7.72V398.87c0,2.84,2,4,4.45,2.57L230.76,328.6c2.46-1.42,4.45-3.22,4.45-6.05V74.17C235.21,71.34,233.22,70.18,230.76,71.61Z" style="fill:#fafafa"></path><path d="M102.72,402.6a2.82,2.82,0,0,1-1.43-.37,3.64,3.64,0,0,1-1.58-3.36V152.16a10.36,10.36,0,0,1,4.72-8.19L230.49,71.14h0a3.24,3.24,0,0,1,5.27,3V322.55c0,3.41-2.7,5.35-4.73,6.52L105,401.92A4.58,4.58,0,0,1,102.72,402.6Zm130-331.06a3.52,3.52,0,0,0-1.72.54h0L105,144.91a9.32,9.32,0,0,0-4.17,7.25V398.87a2.18,2.18,0,0,0,3.62,2.1l126.06-72.85c2.89-1.66,4.17-3.38,4.17-5.57V74.17a2.61,2.61,0,0,0-1-2.41A1.69,1.69,0,0,0,232.75,71.54Z" style="fill:#e6e6e6"></path><path d="M105.8,156v-1.64a1.07,1.07,0,0,1,.31-.83l.09-.05c.17-.1.31.11.31.46v1.65a1.06,1.06,0,0,1-.31.82l-.09,0C105.94,156.55,105.8,156.34,105.8,156Z" style="fill:#455a64"></path><path d="M107.22,155.16v-2.83a1,1,0,0,1,.32-.82l.08,0c.17-.1.31.1.31.46v2.83a1,1,0,0,1-.32.83l-.09,0C107.36,155.73,107.22,155.52,107.22,155.16Z" style="fill:#455a64"></path><path d="M108.65,154.34v-4a1.06,1.06,0,0,1,.31-.82l.09-.05c.17-.1.31.11.31.46v4a1,1,0,0,1-.31.82l-.09.05C108.79,154.9,108.65,154.7,108.65,154.34Z" style="fill:#455a64"></path><path d="M110.07,153.52v-7a1,1,0,0,1,.32-.82l.08-.05c.18-.1.32.11.32.46v7a1.06,1.06,0,0,1-.31.82l-.08,0C110.21,154.08,110.07,153.87,110.07,153.52Z" style="fill:#455a64"></path><path d="M113.93,151.77s0-.1,0-.21v-1l-1.6.92c-.09,0-.13,0-.13-.14V151a1.15,1.15,0,0,1,0-.2,1.3,1.3,0,0,1,.06-.19l1.7-4.64a.62.62,0,0,1,.08-.18.27.27,0,0,1,.11-.1l.22-.13q.1-.06.15,0a.37.37,0,0,1,0,.22v3.57l.35-.21q.11-.06.15,0a.47.47,0,0,1,0,.22v.24a.89.89,0,0,1,0,.26.36.36,0,0,1-.15.15l-.35.21v1a.6.6,0,0,1,0,.25.33.33,0,0,1-.15.16l-.27.16C114,151.8,114,151.8,113.93,151.77Zm.06-2.16v-2.55l-1.16,3.22Z" style="fill:#455a64"></path><path d="M115.83,150.05a3.29,3.29,0,0,1-.47-2.08,6.75,6.75,0,0,1,.47-2.63,3.2,3.2,0,0,1,1.32-1.59,1.88,1.88,0,0,1,.64-.24.73.73,0,0,1,.5.07.1.1,0,0,1,0,.09.74.74,0,0,1,0,.12l-.14.53c0,.07,0,.11-.07.12H118a1,1,0,0,0-.82.13,2.24,2.24,0,0,0-.9,1.1,4.94,4.94,0,0,0-.33,1.94,2.65,2.65,0,0,0,.32,1.57c.21.26.5.29.87.07a2.07,2.07,0,0,0,.4-.28,2,2,0,0,0,.31-.35V147l-.67.38c-.06,0-.11,0-.14,0s0-.1,0-.22v-.23a.62.62,0,0,1,0-.26.4.4,0,0,1,.14-.15l1.07-.62c.07,0,.12,0,.15,0a.41.41,0,0,1,0,.26v2.37a1.22,1.22,0,0,1,0,.21.43.43,0,0,1-.07.16,3.41,3.41,0,0,1-1.26,1.24Q116.29,150.6,115.83,150.05Z" style="fill:#455a64"></path><path d="M228.08,81.17c-.21-.3-.46-.38-.72-.23L222,84.05a2.74,2.74,0,0,0-.83,2.18v4a2.33,2.33,0,0,0,.31,1.28.81.81,0,0,0,.29.27.45.45,0,0,0,.43,0l5.39-3.11a2.72,2.72,0,0,0,.83-2.18v-4A2.39,2.39,0,0,0,228.08,81.17ZM221.65,91a1.16,1.16,0,0,1-.12-.59v-4a2.14,2.14,0,0,1,.64-1.66l5.39-3.11a.24.24,0,0,1,.23,0,.32.32,0,0,1,.09.08,1.18,1.18,0,0,1,.12.59v4a2.15,2.15,0,0,1-.64,1.67L222,91.09A.22.22,0,0,1,221.65,91Z" style="fill:#455a64"></path><path d="M225.05,83.8v4.78l-2.9,1.68-.09,0V86.5a1.65,1.65,0,0,1,.46-1.23Z" style="fill:#455a64"></path><path d="M228.66,82.33c.2-.12.36.46.36,1.29v.75a3,3,0,0,1-.37,1.74l-.36.25V82.54Z" style="fill:#455a64"></path><path d="M125,144.27a2.47,2.47,0,0,1-.93,2c-.51.29-.93-.11-.93-.89a2.47,2.47,0,0,1,.93-2C124.55,143.08,125,143.48,125,144.27Z" style="fill:#455a64"></path><path d="M124,141a5.6,5.6,0,0,0-2.16,3.23c-.08.29,0,.57.1.65h0c.18.11.44-.12.54-.49a3.94,3.94,0,0,1,1.52-2.28,1,1,0,0,1,1.52.53c.1.25.36.18.54-.14h0a1,1,0,0,0,.1-.76A1.4,1.4,0,0,0,124,141Z" style="fill:#455a64"></path><path d="M124,138.75a8.68,8.68,0,0,0-3.31,4.71c-.1.31-.07.62.08.72h0c.17.11.41-.11.53-.46a7.13,7.13,0,0,1,2.7-3.85,1.79,1.79,0,0,1,2.7.74c.12.21.36.14.53-.16h0a.93.93,0,0,0,.08-.8A2.19,2.19,0,0,0,124,138.75Z" style="fill:#455a64"></path><path d="M162.58,125.79a.59.59,0,0,1-.05.22.49.49,0,0,1-.12.15l-.27.15s-.09,0-.12,0a.21.21,0,0,1-.06-.16v-5.51l-1.05,1.84a.26.26,0,0,1-.12.13.11.11,0,0,1-.12,0l-.16-.22a.26.26,0,0,1,0-.18.44.44,0,0,1,.07-.22l1.38-2.44a.53.53,0,0,1,.1-.13l.11-.07.27-.15a.08.08,0,0,1,.12,0,.22.22,0,0,1,.05.16Z" style="fill:#455a64"></path><path d="M164.11,120.47a.09.09,0,0,1,.13,0,.23.23,0,0,1,0,.16v.67a.63.63,0,0,1,0,.22.39.39,0,0,1-.13.15l-.43.25c-.05,0-.09,0-.12,0a.19.19,0,0,1-.05-.16v-.67a.44.44,0,0,1,.05-.22.31.31,0,0,1,.12-.15Zm0,3.49a.12.12,0,0,1,.13,0,.26.26,0,0,1,0,.17v.67a.54.54,0,0,1,0,.21.28.28,0,0,1-.13.15l-.43.26a.08.08,0,0,1-.12,0,.17.17,0,0,1-.05-.15v-.67a.48.48,0,0,1,.05-.23.33.33,0,0,1,.12-.14Z" style="fill:#455a64"></path><path d="M167.31,123.33a.1.1,0,0,1-.13,0,.22.22,0,0,1-.05-.16v-1.37l-2,1.17a.09.09,0,0,1-.12,0,.23.23,0,0,1-.05-.16v-.36a1.62,1.62,0,0,1,0-.18A1.72,1.72,0,0,1,165,122l2.05-5.32c0-.09.07-.17.11-.24a.37.37,0,0,1,.14-.14l.26-.16a.12.12,0,0,1,.13,0,.25.25,0,0,1,.05.16v4.18l.56-.32a.08.08,0,0,1,.12,0,.21.21,0,0,1,0,.15v.36a.54.54,0,0,1,0,.22.44.44,0,0,1-.12.16l-.56.32v1.37a.64.64,0,0,1-.05.23.39.39,0,0,1-.13.15Zm-.18-2.44v-2.82l-1.41,3.63Z" style="fill:#455a64"></path><path d="M169.56,120.34a2,2,0,0,0,.1.26.35.35,0,0,0,.17.19.51.51,0,0,0,.31,0,1.57,1.57,0,0,0,.5-.21,2.55,2.55,0,0,0,.38-.29,2.29,2.29,0,0,0,.32-.43,2,2,0,0,0,.21-.51,2.06,2.06,0,0,0,.09-.62,1.28,1.28,0,0,0-.08-.49.41.41,0,0,0-.21-.25.5.5,0,0,0-.32,0,1.24,1.24,0,0,0-.39.16l-.55.32a.09.09,0,0,1-.12,0,.22.22,0,0,1-.05-.16V118a.41.41,0,0,1,0-.19c0-.07,0-.12.06-.17l1.17-2.62-1.86,1.08a.09.09,0,0,1-.13,0,.22.22,0,0,1,0-.16v-.36a.63.63,0,0,1,0-.22.39.39,0,0,1,.13-.15l2.55-1.47a.1.1,0,0,1,.13,0,.27.27,0,0,1,0,.17v.36a.44.44,0,0,1,0,.19.9.9,0,0,1-.08.21l-1.15,2.57a1.4,1.4,0,0,1,.59-.18.64.64,0,0,1,.47.14,1,1,0,0,1,.29.47,2.48,2.48,0,0,1,.11.78,3.64,3.64,0,0,1-.13,1,3.94,3.94,0,0,1-.34.87,3.85,3.85,0,0,1-.52.73,2.89,2.89,0,0,1-.62.51,2,2,0,0,1-.75.28.71.71,0,0,1-.52-.12.74.74,0,0,1-.31-.38,1.82,1.82,0,0,1-.11-.59.41.41,0,0,1,.05-.18.25.25,0,0,1,.1-.12l.3-.17a.09.09,0,0,1,.11,0A.17.17,0,0,1,169.56,120.34Z" style="fill:#455a64"></path><ellipse cx="134.97" cy="199.91" rx="42.51" ry="24.05" transform="translate(-100.22 253.44) rotate(-68.79)" style="fill:#4481EB"></ellipse><ellipse cx="134.97" cy="199.91" rx="42.51" ry="24.05" transform="translate(-100.22 253.44) rotate(-68.79)" style="opacity:0.30000000000000004"></ellipse><g id="freepik--Character--inject-36"><path d="M181.1,180.75c-2.59-3.25-3.75-2.55-4.58.95a39.79,39.79,0,0,1-1.67,5.08,13.22,13.22,0,0,0-1-2.78,1.62,1.62,0,0,0-1.89-.9c-.28.15.14,1.2.13,2.49a15.86,15.86,0,0,0,.18,4.49A6.16,6.16,0,0,1,172,193c-1.71,3.38-8,12.91-8,12.91-1.34-.72-5.63-2.84-11.36-5.35-4.93-2.17-4.34-2.14-7.25-2.55l-1.29,9.42c5.56,2.1,10,4.16,19,7.06,2.81.91,5.06,1,6.39-1.23s5.23-9.49,8-15c1.56-3.1,2.9-6.29,3.65-7.94C183.78,184.56,182,181.91,181.1,180.75Z" style="fill:#ffa8a7"></path><path d="M130.28,239.59c-.57.18-1.15.34-1.71.46a16.09,16.09,0,0,1-4.92.39,12.41,12.41,0,0,1-2.21-.34,16.93,16.93,0,0,1,.86-2.44,12.56,12.56,0,0,1,.75-1.52,12.87,12.87,0,0,1,.73-1.14Z" style="fill:#263238"></path><path d="M149.56,216l.19,7.15c-.22.34-.43.67-.66,1a.08.08,0,0,1,0,0,46.62,46.62,0,0,1-12.9,12.64c-.8.5-1.59.94-2.37,1.34a25.6,25.6,0,0,1-3.52,1.44c-.57.18-1.15.34-1.71.46-2.64-.53-4.77-1.45-5.87-2.79.11-.38.22-.76.35-1.12a25.3,25.3,0,0,1,2.43-5c1.38-2.31,2.68-4,2.69-4.71l-3.56-12.27-.41-1.44a33.67,33.67,0,0,0,0-13.54l7.92-1.74.72-.16,7.5-.1.28,0a35.85,35.85,0,0,1,4.78.8c.89.31,7.32,6.61,6.91,12.64A7.75,7.75,0,0,1,149.56,216Z" style="fill:#455a64"></path><path d="M125.73,240.46l-5.65-16c1.77-3.58,5-10.25,5-10.25.4-.57.83-1.29,1.17-1.87,2.43-4.11.48-11-2.09-13.21-5.13,1-7.23,9.85-12.12,21.92-1.38,3.41-.52,4.48.44,6.78.8,2,2.82,6.36,4.73,10.49A14.12,14.12,0,0,0,125.73,240.46Z" style="fill:#ffa8a7"></path><path d="M151.48,178.61a2.4,2.4,0,0,0-.54-1.72c-.51-.63-.72-.68-.51-1.52.24-1,1-2.16.18-3.79-.58-1.17-1.41-2.61-5.36-4.39-4.53-2-10-1.05-12.88.18-4.25,1.81-6,3.93-5.62,8a5.17,5.17,0,0,0-2.8,6.24,6.33,6.33,0,0,1,.42,2,5.38,5.38,0,0,1-.92,2.08,6.29,6.29,0,0,0-.62,5.12,4.36,4.36,0,0,0,4,3,2,2,0,0,1-.78-2.46,7.07,7.07,0,0,0,2.69,2.91,6.58,6.58,0,0,0,3.7.72c.51-.08.39-.8.69-1.18.51-.63,1.06-1.22,1.59-1.83,1.4-1.62,2.81-3.23,4.21-4.84l6.78-7.81s.21-.2.21-.25l.85,1.74s1.37,1.9,2.82,1.91a1.34,1.34,0,0,0,1.53-1.13A.65.65,0,0,1,150,181C150.1,180.34,151.36,180,151.48,178.61Z" style="fill:#263238"></path><path d="M146.38,180.38c1.44-.09,4.12,2.62,5,5.5.77,2.62.77,6.25-1.72,7.23a4.1,4.1,0,0,0,.16-2.61c0,1.05-1.17,2.79-3.11,3.82a9.62,9.62,0,0,1-6.43,1C136,194.53,146.38,180.38,146.38,180.38Z" style="fill:#263238"></path><path d="M144.09,172.9c1.88.72,3.76,3.46,4.09,11.36.28,6.7-1.7,8.48-2.71,9s-3.05.39-5,.17l.18,3.85s4,6.41,2.28,9.64c-6.22-1.82-10.79-9.47-10.79-9.47l-.54-8.78a2.8,2.8,0,0,1-3.13,0c-1.82-1.22-2.41-3.81-1.24-5.22a2.64,2.64,0,0,1,4.26-.14s4.55-.75,6.85-2.38C142.2,178.16,143.25,176.28,144.09,172.9Z" style="fill:#ffa8a7"></path><path d="M131.42,182.21l.19,3.72a1.75,1.75,0,0,0,1.71-1.88A1.93,1.93,0,0,0,131.42,182.21Z" style="fill:#263238"></path><path d="M144.68,182.14a.89.89,0,1,0,1.78,0,.89.89,0,1,0-1.78,0Z" style="fill:#263238"></path><path d="M137.61,182.85a1,1,0,1,0,1.91,0,1,1,0,0,0-1-1A1,1,0,0,0,137.61,182.85Z" style="fill:#263238"></path><path d="M139.92,188.26l3.31.62a1.63,1.63,0,0,1-1.9,1.46A1.84,1.84,0,0,1,139.92,188.26Z" style="fill:#b16668"></path><path d="M142,190.32a1.6,1.6,0,0,0-1.77-1.38,2.44,2.44,0,0,0-.26.06,1.77,1.77,0,0,0,1.37,1.34A1.33,1.33,0,0,0,142,190.32Z" style="fill:#f28f8f"></path><path d="M147,178.88l-2.44-.32a1.18,1.18,0,0,1,1.37-1.07A1.28,1.28,0,0,1,147,178.88Z" style="fill:#263238"></path><polygon points="141.75 181.38 142.31 186.91 145.14 185.83 141.75 181.38" style="fill:#f28f8f"></polygon><path d="M140.44,193.45c-2.09-.15-6.42-1.14-7.19-2.85a4.55,4.55,0,0,0,1.63,2.14c1.34,1,5.62,2,5.62,2Z" style="fill:#f28f8f"></path><path d="M141.52,183.05a2.94,2.94,0,1,1-3.07-2.8A2.94,2.94,0,0,1,141.52,183.05Z" style="fill:#4481EB"></path><path d="M138.58,186.3a3.12,3.12,0,0,1-.14-6.23,3.14,3.14,0,0,1,3.25,3h0a3.12,3.12,0,0,1-3,3.26Zm0-5.88h-.12a2.77,2.77,0,0,0-1.74,4.81,2.77,2.77,0,0,0,4.63-2.17h0A2.78,2.78,0,0,0,138.58,180.42Z" style="fill:#455a64"></path><path d="M149.4,182.19a2.94,2.94,0,1,1-3.06-2.81A2.93,2.93,0,0,1,149.4,182.19Z" style="fill:#4481EB"></path><path d="M146.46,185.44a3.12,3.12,0,0,1-3.1-3,3.11,3.11,0,0,1,3-3.25,3.11,3.11,0,0,1,3.25,3,3.11,3.11,0,0,1-3,3.25Zm0-5.88h-.13a2.72,2.72,0,0,0-1.92.9,2.77,2.77,0,1,0,2.05-.9Z" style="fill:#455a64"></path><path d="M141.53,183.42a.18.18,0,0,1-.18-.17,1.22,1.22,0,0,1,.33-.89,1.24,1.24,0,0,1,.85-.4,1.21,1.21,0,0,1,.89.32,1.29,1.29,0,0,1,.4.86.18.18,0,0,1-.17.18h0a.17.17,0,0,1-.17-.17.86.86,0,0,0-.29-.61.83.83,0,0,0-.63-.23.89.89,0,0,0-.85.92.19.19,0,0,1-.16.19Z" style="fill:#455a64"></path><path d="M135.66,183.15h0l-4.56-.18s-.26-.18-.57-.36h0l5.12.19a.18.18,0,0,1,0,.35Z" style="fill:#455a64"></path></g><path d="M163.53,165.54a.24.24,0,0,1,0-.18.62.62,0,0,1,.07-.23l1.47-2.62a1.74,1.74,0,0,1,.11-.18.26.26,0,0,1,.12-.13l.53-.31a.1.1,0,0,1,.13,0,.26.26,0,0,1,.05.17v6.71a.59.59,0,0,1-.05.22.36.36,0,0,1-.13.16l-.55.32a.1.1,0,0,1-.13,0,.26.26,0,0,1-.05-.17v-5.13l-1,1.71a.27.27,0,0,1-.13.13.11.11,0,0,1-.13,0Z" style="fill:#4481EB"></path><path d="M166.87,167.36A1,1,0,0,1,167,167a.53.53,0,0,1,.21-.25l.58-.34a.09.09,0,0,1,.11,0,.18.18,0,0,1,0,.14v.07l-.45,2a2.13,2.13,0,0,1-.09.27.45.45,0,0,1-.2.23l-.3.18a.09.09,0,0,1-.11,0,.17.17,0,0,1,0-.13v0Z" style="fill:#4481EB"></path><path d="M172.15,160.93c0,.13,0,.27,0,.43v1c0,.15,0,.3,0,.43A9.07,9.07,0,0,1,172,164a5.11,5.11,0,0,1-.31,1.07,3.65,3.65,0,0,1-.56.91,2.84,2.84,0,0,1-.83.7,1.63,1.63,0,0,1-.84.27.78.78,0,0,1-.55-.28,1.73,1.73,0,0,1-.31-.71,6.39,6.39,0,0,1-.11-1c0-.26,0-.55,0-.89s0-.64,0-.91a9.07,9.07,0,0,1,.11-1.19,5.3,5.3,0,0,1,.31-1.09,3.68,3.68,0,0,1,.55-.92,3,3,0,0,1,.84-.71,1.62,1.62,0,0,1,.83-.27.75.75,0,0,1,.56.27,1.78,1.78,0,0,1,.31.72A6.16,6.16,0,0,1,172.15,160.93Zm-2.71,3.36a2.14,2.14,0,0,0,.23,1c.13.19.36.2.67,0a1.51,1.51,0,0,0,.67-.8,4.2,4.2,0,0,0,.23-1.29c0-.27,0-.56,0-.88s0-.61,0-.87a2.12,2.12,0,0,0-.23-1c-.13-.2-.36-.2-.67,0a1.51,1.51,0,0,0-.67.8,4.2,4.2,0,0,0-.23,1.29c0,.27,0,.56,0,.88S169.43,164,169.44,164.29Z" style="fill:#4481EB"></path><path d="M176.55,158.39c0,.13,0,.27,0,.43v1c0,.15,0,.3,0,.44a7.49,7.49,0,0,1-.12,1.18,4.14,4.14,0,0,1-.31,1.07,3.35,3.35,0,0,1-.55.91,3,3,0,0,1-.83.7,1.65,1.65,0,0,1-.84.27.78.78,0,0,1-.55-.28,1.73,1.73,0,0,1-.31-.71,7.61,7.61,0,0,1-.12-1c0-.26,0-.55,0-.89s0-.64,0-.91a11.41,11.41,0,0,1,.12-1.19,5.3,5.3,0,0,1,.31-1.09,3.68,3.68,0,0,1,.55-.92,2.91,2.91,0,0,1,.84-.71,1.6,1.6,0,0,1,.83-.27.72.72,0,0,1,.55.27,1.54,1.54,0,0,1,.31.72A5.24,5.24,0,0,1,176.55,158.39Zm-2.72,3.36a2.12,2.12,0,0,0,.24,1c.13.19.35.2.67,0a1.51,1.51,0,0,0,.67-.8,4.2,4.2,0,0,0,.23-1.29c0-.27,0-.56,0-.88s0-.61,0-.86a2.14,2.14,0,0,0-.23-1c-.13-.19-.36-.2-.67,0a1.47,1.47,0,0,0-.67.8,4.18,4.18,0,0,0-.24,1.29c0,.27,0,.56,0,.88S173.82,161.5,173.83,161.75Z" style="fill:#4481EB"></path><path d="M177.27,160.37a3.63,3.63,0,0,1,.14-1,4.31,4.31,0,0,1,.42-1,1.45,1.45,0,0,1-.4-1.18,3.74,3.74,0,0,1,.13-.94,4.06,4.06,0,0,1,.36-.88,3.41,3.41,0,0,1,.53-.74,3.1,3.1,0,0,1,.68-.54,1.7,1.7,0,0,1,.67-.24.81.81,0,0,1,.54.12,1,1,0,0,1,.35.47,2.06,2.06,0,0,1,.13.8,3.47,3.47,0,0,1-.1.85,3.78,3.78,0,0,1-.3.79.93.93,0,0,1,.42.47,2.12,2.12,0,0,1,.15.87,3.71,3.71,0,0,1-.13,1,4.17,4.17,0,0,1-1,1.73,3.18,3.18,0,0,1-.77.61,1.86,1.86,0,0,1-.77.28.94.94,0,0,1-.59-.12,1,1,0,0,1-.37-.5A2.3,2.3,0,0,1,177.27,160.37Zm.91-.52a.66.66,0,0,0,.08.37.37.37,0,0,0,.21.18.6.6,0,0,0,.3,0,1.11,1.11,0,0,0,.36-.15,1.67,1.67,0,0,0,.35-.26,2.11,2.11,0,0,0,.31-.36,2.74,2.74,0,0,0,.21-.42,1.5,1.5,0,0,0,.08-.47.75.75,0,0,0-.08-.37.42.42,0,0,0-.21-.17.64.64,0,0,0-.31,0,1.42,1.42,0,0,0-.35.14,2.11,2.11,0,0,0-.36.27,2.6,2.6,0,0,0-.3.36,1.65,1.65,0,0,0-.21.42A1.21,1.21,0,0,0,178.18,159.85Zm.17-3.18a.73.73,0,0,0,.06.32.33.33,0,0,0,.17.16.42.42,0,0,0,.25,0,1.38,1.38,0,0,0,.3-.11,1.85,1.85,0,0,0,.29-.22,1.54,1.54,0,0,0,.25-.31,2,2,0,0,0,.18-.36,1.34,1.34,0,0,0,.06-.4.67.67,0,0,0-.06-.32.34.34,0,0,0-.18-.16.42.42,0,0,0-.25,0,1.15,1.15,0,0,0-.29.11,1.6,1.6,0,0,0-.3.23,1.53,1.53,0,0,0-.25.3,1.49,1.49,0,0,0-.17.36A1.29,1.29,0,0,0,178.35,156.67Z" style="fill:#4481EB"></path><path d="M168.71,170.55a1,1,0,0,1,.36-.13.36.36,0,0,1,.29.06.48.48,0,0,1,.2.27,1.45,1.45,0,0,1,.08.52,2.43,2.43,0,0,1-.08.61,2.08,2.08,0,0,1-.2.51,1.77,1.77,0,0,1-.29.41,1.59,1.59,0,0,1-.36.28l-.7.41v1.44a.28.28,0,0,1,0,.13c0,.05,0,.08-.08.09l-.16.09a0,0,0,0,1-.07,0,.13.13,0,0,1,0-.1v-3.81a.28.28,0,0,1,0-.13.17.17,0,0,1,.07-.09ZM168,173l.68-.39a1.11,1.11,0,0,0,.43-.43,1.33,1.33,0,0,0,.15-.65c0-.25-.05-.41-.15-.46s-.24,0-.43.07l-.68.4Z" style="fill:#455a64"></path><path d="M170.84,170.32a.85.85,0,0,1,.37-.11.41.41,0,0,1,.28.11.82.82,0,0,1,.18.31,2.18,2.18,0,0,1,.08.49s0,.07,0,.12v.31s0,.09,0,.12a3.65,3.65,0,0,1-.08.59,4,4,0,0,1-.18.52,2,2,0,0,1-.28.42,1.36,1.36,0,0,1-.37.31.76.76,0,0,1-.37.12.39.39,0,0,1-.27-.11.62.62,0,0,1-.18-.31,1.65,1.65,0,0,1-.09-.49v-.12s0-.09,0-.15,0-.1,0-.15v-.13a2.9,2.9,0,0,1,.09-.59,2.28,2.28,0,0,1,.18-.52,2.09,2.09,0,0,1,.27-.43A1.56,1.56,0,0,1,170.84,170.32Zm.56,1.52a1.85,1.85,0,0,0,0-.25,1.77,1.77,0,0,0,0-.24,1.17,1.17,0,0,0-.05-.3.42.42,0,0,0-.11-.21.25.25,0,0,0-.16-.08.49.49,0,0,0-.24.07.74.74,0,0,0-.23.2,1.31,1.31,0,0,0-.17.28,1.6,1.6,0,0,0-.11.33,3.48,3.48,0,0,0-.05.36c0,.07,0,.15,0,.25s0,.18,0,.24a2.08,2.08,0,0,0,.05.3.52.52,0,0,0,.11.21.27.27,0,0,0,.17.08.49.49,0,0,0,.23-.07,1.16,1.16,0,0,0,.24-.2,1.56,1.56,0,0,0,.16-.28,1.17,1.17,0,0,0,.11-.33A2,2,0,0,0,171.4,171.84Z" style="fill:#455a64"></path><path d="M173.37,171.14a.24.24,0,0,0,0-.16.17.17,0,0,0-.12-.06l-.2,0-.29.07a.42.42,0,0,1-.44-.08.81.81,0,0,1-.12-.48,1.47,1.47,0,0,1,0-.36,2.35,2.35,0,0,1,.14-.37,2.19,2.19,0,0,1,.23-.33,1.59,1.59,0,0,1,.33-.25.83.83,0,0,1,.33-.13.47.47,0,0,1,.24,0,.29.29,0,0,1,.14.13.42.42,0,0,1,.06.19.31.31,0,0,1,0,.13.24.24,0,0,1-.08.09l-.12.07-.06,0a.09.09,0,0,1-.06,0,.2.2,0,0,0-.15-.09.69.69,0,0,0-.27.09.9.9,0,0,0-.28.27.55.55,0,0,0-.11.34.32.32,0,0,0,0,.16.14.14,0,0,0,.1.06.6.6,0,0,0,.18,0l.28-.06a.64.64,0,0,1,.3,0,.31.31,0,0,1,.19.09.42.42,0,0,1,.1.2,1.12,1.12,0,0,1,0,.27,1.81,1.81,0,0,1-.05.38,2.05,2.05,0,0,1-.16.38,2,2,0,0,1-.25.34,1.27,1.27,0,0,1-.34.27.73.73,0,0,1-.33.13.9.9,0,0,1-.25,0,.36.36,0,0,1-.16-.14.33.33,0,0,1-.06-.19.35.35,0,0,1,0-.13.22.22,0,0,1,.07-.09l.14-.08.06,0s0,0,.05,0a.22.22,0,0,0,.17.11.64.64,0,0,0,.28-.09l.17-.13.15-.17a1.62,1.62,0,0,0,.1-.18A.68.68,0,0,0,173.37,171.14Z" style="fill:#455a64"></path><path d="M174.7,170.19a1.12,1.12,0,0,0,0,.2.39.39,0,0,0,0,.14.12.12,0,0,0,.1.06.38.38,0,0,0,.17-.06l.2-.11s.05,0,.07,0a.12.12,0,0,1,0,.09v.19a.28.28,0,0,1,0,.13s0,.08-.07.09l-.24.14c-.23.13-.39.14-.49,0a1.13,1.13,0,0,1-.15-.69v-1.53l-.28.17a.06.06,0,0,1-.07,0,.12.12,0,0,1,0-.09v-.19a.31.31,0,0,1,0-.13.22.22,0,0,1,.07-.09l.28-.16v-1a.35.35,0,0,1,0-.13.24.24,0,0,1,.08-.09l.14-.08a.06.06,0,0,1,.07,0,.12.12,0,0,1,0,.09v1l.49-.28a.06.06,0,0,1,.07,0,.12.12,0,0,1,0,.09v.19a.31.31,0,0,1,0,.13.17.17,0,0,1-.07.09l-.49.28Z" style="fill:#455a64"></path><path d="M176.85,169.14a.27.27,0,0,0,0-.17.17.17,0,0,0-.12-.05.72.72,0,0,0-.2,0l-.29.07c-.21.05-.36,0-.44-.08a.81.81,0,0,1-.13-.48,1.56,1.56,0,0,1,.05-.36,1.58,1.58,0,0,1,.14-.36,1.5,1.5,0,0,1,.23-.33,1.4,1.4,0,0,1,.33-.26.87.87,0,0,1,.33-.13.42.42,0,0,1,.23,0,.32.32,0,0,1,.15.13.41.41,0,0,1,0,.19.15.15,0,0,1,0,.13c0,.05,0,.08-.07.09l-.13.08h0s0,0-.06,0a.19.19,0,0,0-.15-.08.43.43,0,0,0-.27.09.8.8,0,0,0-.29.26.62.62,0,0,0-.11.34.3.3,0,0,0,0,.16.16.16,0,0,0,.11.07.69.69,0,0,0,.18,0l.28-.06a.6.6,0,0,1,.29,0,.41.41,0,0,1,.2.09.42.42,0,0,1,.1.2,1.12,1.12,0,0,1,0,.27,1.31,1.31,0,0,1-.06.38,1.37,1.37,0,0,1-.15.38,2.11,2.11,0,0,1-.26.35,1.76,1.76,0,0,1-.33.27.93.93,0,0,1-.34.12.45.45,0,0,1-.24,0,.35.35,0,0,1-.16-.13.36.36,0,0,1-.06-.2.21.21,0,0,1,0-.13.24.24,0,0,1,.08-.09l.14-.08,0,0a.07.07,0,0,1,.06,0,.23.23,0,0,0,.17.1.55.55,0,0,0,.28-.09l.17-.13a1.07,1.07,0,0,0,.14-.16.87.87,0,0,0,.1-.19A.42.42,0,0,0,176.85,169.14Z" style="fill:#455a64"></path><path d="M188.61,149a.48.48,0,0,1,0-.23.36.36,0,0,1,.13-.16l2.53-1.46a.09.09,0,0,1,.13,0,.2.2,0,0,1,.06.16v.74a.49.49,0,0,1-.06.23.31.31,0,0,1-.13.16l-1.89,1.09-.07,1.37a1.87,1.87,0,0,1,.36-.34,2.33,2.33,0,0,1,.29-.19,1.65,1.65,0,0,1,.7-.25.82.82,0,0,1,.56.14,1.06,1.06,0,0,1,.37.54,2.76,2.76,0,0,1,.14.95,5,5,0,0,1-.14,1.21,4.08,4.08,0,0,1-.38,1,3.47,3.47,0,0,1-.56.77,3.41,3.41,0,0,1-.69.54,2.05,2.05,0,0,1-.8.3.81.81,0,0,1-.55-.14.89.89,0,0,1-.33-.46,2.13,2.13,0,0,1-.13-.7.46.46,0,0,1,.05-.23.36.36,0,0,1,.13-.16l.55-.31a.09.09,0,0,1,.12,0s.06.07.08.13a.69.69,0,0,0,.12.32.39.39,0,0,0,.46.09,1.35,1.35,0,0,0,.3-.14,1.59,1.59,0,0,0,.62-.68,2.13,2.13,0,0,0,.24-1,.75.75,0,0,0-.24-.64c-.16-.12-.36-.1-.62,0a1.47,1.47,0,0,0-.32.23,1.74,1.74,0,0,0-.19.22l-.14.19a.47.47,0,0,1-.15.13l-.62.36a.09.09,0,0,1-.13,0,.21.21,0,0,1-.06-.17Z" style="fill:#4481EB"></path><path d="M194.54,148.49a2.24,2.24,0,0,0,.26-.66,2.58,2.58,0,0,0,.06-.51,1,1,0,0,0-.17-.63c-.11-.13-.3-.12-.56,0a1.21,1.21,0,0,0-.54.6,3,3,0,0,0-.25.85.57.57,0,0,1-.08.25.35.35,0,0,1-.12.14l-.53.31a.12.12,0,0,1-.14,0,.26.26,0,0,1-.05-.18,4.79,4.79,0,0,1,.16-1,4.72,4.72,0,0,1,.36-.93,4.12,4.12,0,0,1,.53-.8,2.4,2.4,0,0,1,.65-.56,1.17,1.17,0,0,1,.74-.21.74.74,0,0,1,.51.25,1.3,1.3,0,0,1,.3.57,2.68,2.68,0,0,1,.1.76c0,.18,0,.35,0,.51a3.55,3.55,0,0,1-.09.52,5.81,5.81,0,0,1-.22.61c-.1.23-.22.48-.38.77l-1.25,2.47,1.88-1.08a.09.09,0,0,1,.13,0,.23.23,0,0,1,.05.16v.74a.64.64,0,0,1-.05.23.36.36,0,0,1-.13.16l-3.15,1.82a.12.12,0,0,1-.13,0,.22.22,0,0,1,0-.17v-.63a1.07,1.07,0,0,1,.06-.35l.12-.25Z" style="fill:#4481EB"></path><path d="M200.19,144.74c0,.13,0,.27,0,.43v1c0,.15,0,.3,0,.44a8.91,8.91,0,0,1-.11,1.18,5.11,5.11,0,0,1-.31,1.07,3.65,3.65,0,0,1-.56.91,2.84,2.84,0,0,1-.83.7,1.63,1.63,0,0,1-.84.27.74.74,0,0,1-.55-.28,1.73,1.73,0,0,1-.31-.71,6.39,6.39,0,0,1-.11-1c0-.26,0-.55,0-.89s0-.64,0-.91a9.23,9.23,0,0,1,.11-1.19,5.3,5.3,0,0,1,.31-1.09,3.87,3.87,0,0,1,.55-.92,3,3,0,0,1,.84-.71,1.62,1.62,0,0,1,.83-.27.75.75,0,0,1,.56.27,1.78,1.78,0,0,1,.31.72A6.16,6.16,0,0,1,200.19,144.74Zm-2.71,3.36a2.14,2.14,0,0,0,.23,1c.13.19.35.2.67,0a1.51,1.51,0,0,0,.67-.8,4.2,4.2,0,0,0,.23-1.29c0-.27,0-.56,0-.88s0-.61,0-.86a2.14,2.14,0,0,0-.23-1c-.13-.2-.36-.2-.67,0a1.47,1.47,0,0,0-.67.8,4.2,4.2,0,0,0-.23,1.29c0,.27,0,.56,0,.88S197.47,147.84,197.48,148.1Z" style="fill:#4481EB"></path><path d="M204.69,146.27a.16.16,0,0,1,0,.07v0a.59.59,0,0,1,0,.23.36.36,0,0,1-.13.16l-.64.37a.2.2,0,0,1-.22,0l-.09-.08L202,145.25V148a.46.46,0,0,1-.06.23.36.36,0,0,1-.13.16l-.54.32a.12.12,0,0,1-.13,0,.22.22,0,0,1-.06-.17v-6.71a.53.53,0,0,1,.06-.23.32.32,0,0,1,.13-.15l.54-.32a.1.1,0,0,1,.13,0,.22.22,0,0,1,.06.17v2.44l1.47-3.34a2,2,0,0,1,.12-.25.69.69,0,0,1,.18-.16l.62-.36a.12.12,0,0,1,.13,0,.26.26,0,0,1,.05.17.45.45,0,0,1,0,.18L202.74,144Z" style="fill:#4481EB"></path><path d="M189.82,158.36a.06.06,0,0,1,.08,0,.12.12,0,0,1,0,.09v.21a.28.28,0,0,1,0,.13.15.15,0,0,1-.08.09l-1.26.73V161l1.19-.69a.06.06,0,0,1,.07,0,.12.12,0,0,1,0,.09v.21a.28.28,0,0,1,0,.13s0,.08-.07.09l-1.19.69v1.55a.35.35,0,0,1,0,.13.22.22,0,0,1-.07.09l-.16.09a.06.06,0,0,1-.07,0,.12.12,0,0,1,0-.09v-3.82a.31.31,0,0,1,0-.13.22.22,0,0,1,.07-.09Z" style="fill:#455a64"></path><path d="M191.14,158.61a.76.76,0,0,1,.37-.12.37.37,0,0,1,.27.11.71.71,0,0,1,.19.31,2.18,2.18,0,0,1,.08.49V160a2.8,2.8,0,0,1-.09.59,2.13,2.13,0,0,1-.18.52,1.73,1.73,0,0,1-.27.43,1.56,1.56,0,0,1-.37.31.73.73,0,0,1-.37.11.41.41,0,0,1-.28-.11.82.82,0,0,1-.18-.31,2.09,2.09,0,0,1-.08-.49.45.45,0,0,0,0-.11v-.31a.62.62,0,0,0,0-.13,3,3,0,0,1,.26-1.11,2,2,0,0,1,.28-.42A1.36,1.36,0,0,1,191.14,158.61Zm.56,1.52c0-.07,0-.16,0-.25s0-.18,0-.25a1.25,1.25,0,0,0,0-.3.52.52,0,0,0-.11-.21.25.25,0,0,0-.17-.08.49.49,0,0,0-.23.07.9.9,0,0,0-.23.2,1.17,1.17,0,0,0-.17.28,1.6,1.6,0,0,0-.11.33,2,2,0,0,0,0,.36,1.85,1.85,0,0,0,0,.25,1.63,1.63,0,0,0,0,.24,1.17,1.17,0,0,0,0,.3.52.52,0,0,0,.11.21.25.25,0,0,0,.17.08.49.49,0,0,0,.23-.07.74.74,0,0,0,.23-.2,1,1,0,0,0,.17-.28,1.73,1.73,0,0,0,.11-.32A2.23,2.23,0,0,0,191.7,160.13Z" style="fill:#455a64"></path><path d="M192.89,160.57a.61.61,0,0,1,0,.13.36.36,0,0,1-.08.09l-.14.08s0,0-.07,0a.17.17,0,0,1,0-.1V156.9a.35.35,0,0,1,0-.14s0-.07.07-.08l.14-.09a.08.08,0,0,1,.08,0,.19.19,0,0,1,0,.09Z" style="fill:#455a64"></path><path d="M193.81,160a.35.35,0,0,1,0,.13.19.19,0,0,1-.07.08l-.15.09a.06.06,0,0,1-.07,0,.12.12,0,0,1,0-.09v-3.88a.31.31,0,0,1,0-.13.35.35,0,0,1,.07-.09l.15-.08s0,0,.07,0a.15.15,0,0,1,0,.1Z" style="fill:#455a64"></path><path d="M195.2,156.26a.76.76,0,0,1,.37-.12.46.46,0,0,1,.28.11.77.77,0,0,1,.18.31,1.73,1.73,0,0,1,.08.49.53.53,0,0,1,0,.13v.3a.53.53,0,0,1,0,.13,3.53,3.53,0,0,1-.08.58,2.65,2.65,0,0,1-.18.52,2.12,2.12,0,0,1-.28.43,1.36,1.36,0,0,1-.37.31.63.63,0,0,1-.37.11.4.4,0,0,1-.27-.11.64.64,0,0,1-.18-.3,1.71,1.71,0,0,1-.09-.49v-.56a2.8,2.8,0,0,1,.09-.58,2.13,2.13,0,0,1,.18-.52,2.62,2.62,0,0,1,.27-.43A1.53,1.53,0,0,1,195.2,156.26Zm.56,1.52a3.13,3.13,0,0,0,0-.5.94.94,0,0,0,0-.3.47.47,0,0,0-.1-.2.25.25,0,0,0-.17-.08.41.41,0,0,0-.24.07.87.87,0,0,0-.23.2,1.24,1.24,0,0,0-.17.27,1.6,1.6,0,0,0-.11.33c0,.12,0,.24-.05.36v.5a2.34,2.34,0,0,0,.05.3.48.48,0,0,0,.11.2.23.23,0,0,0,.17.08.38.38,0,0,0,.23-.07.91.91,0,0,0,.24-.2,1.78,1.78,0,0,0,.17-.27,1.8,1.8,0,0,0,.1-.33A1.49,1.49,0,0,0,195.76,157.78Z" style="fill:#455a64"></path><path d="M198.42,156.58l.43-2.23a.76.76,0,0,1,0-.11.18.18,0,0,1,.09-.1l.13-.08a0,0,0,0,1,.06,0,.1.1,0,0,1,0,.08.07.07,0,0,1,0,0l-.58,3.06c0,.05,0,.1,0,.14a.18.18,0,0,1-.08.09l-.12.07s-.05,0-.07,0a.36.36,0,0,1-.05-.09l-.45-1.7-.46,2.23s0,.1,0,.14,0,.08-.08.09l-.12.07s-.06,0-.07,0a.19.19,0,0,1,0-.1l-.59-2.37v0a.5.5,0,0,1,0-.12.16.16,0,0,1,.07-.07l.13-.08a.06.06,0,0,1,.08,0,.18.18,0,0,1,.05.07l.43,1.72.46-2.24a.61.61,0,0,1,0-.11.39.39,0,0,1,.08-.1l.09,0s.07,0,.08,0l0,.08Z" style="fill:#455a64"></path><path d="M199.48,155.09a3.6,3.6,0,0,1,.08-.56,3.82,3.82,0,0,1,.18-.51,2.34,2.34,0,0,1,.27-.44,1.43,1.43,0,0,1,.35-.3.71.71,0,0,1,.37-.11.36.36,0,0,1,.27.14.85.85,0,0,1,.18.37,2.49,2.49,0,0,1,.06.59v.16a.35.35,0,0,1,0,.13.22.22,0,0,1-.07.09l-1.32.76v0a.74.74,0,0,0,.16.53.33.33,0,0,0,.38,0,1.07,1.07,0,0,0,.31-.28,1.52,1.52,0,0,0,.17-.3.64.64,0,0,1,.06-.1.13.13,0,0,1,.07,0l.11-.07a.06.06,0,0,1,.08,0,.13.13,0,0,1,0,.1,1.35,1.35,0,0,1-.07.27,3,3,0,0,1-.15.32,1.64,1.64,0,0,1-.26.33,1.6,1.6,0,0,1-.35.28.57.57,0,0,1-.35.1.43.43,0,0,1-.27-.13,1,1,0,0,1-.18-.32,2.18,2.18,0,0,1-.08-.49A2.44,2.44,0,0,1,199.48,155.09Zm.34-.18,1.08-.62v0a.64.64,0,0,0-.15-.49c-.1-.09-.23-.08-.39,0a.6.6,0,0,0-.21.18,1.56,1.56,0,0,0-.17.25,1.21,1.21,0,0,0-.11.32,1.41,1.41,0,0,0-.05.35Z" style="fill:#455a64"></path><path d="M202.72,152s.05,0,.07,0a.13.13,0,0,1,0,.1v.19a.35.35,0,0,1,0,.13.22.22,0,0,1-.07.09l-.22.12a1,1,0,0,0-.44.94v1.72a.28.28,0,0,1,0,.13.15.15,0,0,1-.08.09l-.14.09a.06.06,0,0,1-.07,0,.12.12,0,0,1,0-.09v-2.76a.35.35,0,0,1,0-.13.22.22,0,0,1,.07-.09l.14-.08a.06.06,0,0,1,.08,0,.12.12,0,0,1,0,.09v.18a1.34,1.34,0,0,1,.18-.36,1,1,0,0,1,.28-.25Z" style="fill:#455a64"></path><path d="M204.29,153.29a.24.24,0,0,0,0-.16s-.06,0-.12-.06a.79.79,0,0,0-.2,0,2,2,0,0,0-.29.07.4.4,0,0,1-.44-.09.76.76,0,0,1-.12-.47,1.47,1.47,0,0,1,0-.36,1.66,1.66,0,0,1,.14-.37,1.5,1.5,0,0,1,.23-.33,2.1,2.1,0,0,1,.33-.26,1,1,0,0,1,.33-.12.47.47,0,0,1,.24,0,.29.29,0,0,1,.14.13.32.32,0,0,1,.05.19.21.21,0,0,1,0,.13.36.36,0,0,1-.08.09l-.12.07-.06,0a.09.09,0,0,1-.06,0,.2.2,0,0,0-.15-.09.46.46,0,0,0-.27.09.81.81,0,0,0-.28.27.55.55,0,0,0-.11.34.32.32,0,0,0,0,.16.14.14,0,0,0,.1.06.6.6,0,0,0,.18,0l.28-.07a1.1,1.1,0,0,1,.3,0,.36.36,0,0,1,.29.29,1.27,1.27,0,0,1,0,.28,1.64,1.64,0,0,1,0,.37,1.61,1.61,0,0,1-.16.38,1.72,1.72,0,0,1-.25.35,1.27,1.27,0,0,1-.34.27.74.74,0,0,1-.33.12.49.49,0,0,1-.25,0,.34.34,0,0,1-.16-.13.33.33,0,0,1-.06-.19.21.21,0,0,1,0-.13.22.22,0,0,1,.07-.09l.14-.08.05,0s0,0,.06,0a.22.22,0,0,0,.17.11.56.56,0,0,0,.28-.1.88.88,0,0,0,.17-.12,1.15,1.15,0,0,0,.14-.17.87.87,0,0,0,.11-.18A.68.68,0,0,0,204.29,153.29Z" style="fill:#455a64"></path><path d="M216.56,139.85a.1.1,0,0,1-.13,0,.22.22,0,0,1-.05-.17v-1.25l-2.09,1.2a.09.09,0,0,1-.13,0,.2.2,0,0,1-.06-.16v-.74a.87.87,0,0,1,.05-.28c0-.09.06-.19.1-.29l2.06-5.16a.83.83,0,0,1,.28-.42l.51-.3a.12.12,0,0,1,.13,0,.22.22,0,0,1,.06.17v4.15l.58-.33s.09,0,.12,0a.2.2,0,0,1,.06.16v.74a.49.49,0,0,1-.06.23.3.3,0,0,1-.12.16l-.58.33v1.26a.53.53,0,0,1-.06.23.32.32,0,0,1-.13.15Zm-.18-2.73V134.9l-1.16,2.88Z" style="fill:#4481EB"></path><path d="M218.93,131.49a.49.49,0,0,1,.06-.23.3.3,0,0,1,.12-.16l2.54-1.46a.09.09,0,0,1,.13,0,.23.23,0,0,1,.05.16v.74a.64.64,0,0,1-.05.23.36.36,0,0,1-.13.16l-1.9,1.09-.07,1.37a1.87,1.87,0,0,1,.36-.34l.29-.19a1.74,1.74,0,0,1,.71-.25.83.83,0,0,1,.56.14,1.13,1.13,0,0,1,.37.54,2.79,2.79,0,0,1,.13.95,4.7,4.7,0,0,1-.14,1.22,4.62,4.62,0,0,1-.37,1,3,3,0,0,1-.57.77,2.94,2.94,0,0,1-.69.54,2,2,0,0,1-.79.3.79.79,0,0,1-.56-.14,1,1,0,0,1-.33-.46,2.43,2.43,0,0,1-.12-.7.37.37,0,0,1,.05-.23.36.36,0,0,1,.13-.16l.54-.31a.1.1,0,0,1,.13,0,.2.2,0,0,1,.07.13.69.69,0,0,0,.13.32.3.3,0,0,0,.2.12.41.41,0,0,0,.26,0,1.53,1.53,0,0,0,.29-.14,1.48,1.48,0,0,0,.62-.68,2.13,2.13,0,0,0,.24-1,.75.75,0,0,0-.24-.64c-.15-.12-.36-.1-.62,0a1.77,1.77,0,0,0-.32.23c-.07.08-.14.15-.19.22l-.13.19a.42.42,0,0,1-.16.13l-.62.36a.09.09,0,0,1-.13,0,.23.23,0,0,1-.05-.16Z" style="fill:#4481EB"></path><path d="M226.39,129.61c0,.13,0,.28,0,.44v1c0,.16,0,.31,0,.44a7.74,7.74,0,0,1-.12,1.19,4.72,4.72,0,0,1-.31,1.07,3.51,3.51,0,0,1-.55.91,3.12,3.12,0,0,1-.83.69,1.68,1.68,0,0,1-.84.27.73.73,0,0,1-.55-.27,1.72,1.72,0,0,1-.31-.72,7.28,7.28,0,0,1-.12-1c0-.26,0-.56,0-.89s0-.64,0-.91a11.61,11.61,0,0,1,.12-1.2,5.2,5.2,0,0,1,.31-1.08,3.93,3.93,0,0,1,.55-.93,2.93,2.93,0,0,1,.84-.71,1.67,1.67,0,0,1,.83-.26.72.72,0,0,1,.55.27,1.61,1.61,0,0,1,.31.71A5.42,5.42,0,0,1,226.39,129.61ZM223.67,133a2.1,2.1,0,0,0,.24,1c.13.2.35.21.67,0a1.54,1.54,0,0,0,.67-.79,4.21,4.21,0,0,0,.23-1.3c0-.26,0-.56,0-.88s0-.6,0-.86a2.06,2.06,0,0,0-.23-1c-.14-.2-.36-.21-.67,0a1.51,1.51,0,0,0-.67.8,4.18,4.18,0,0,0-.24,1.29c0,.27,0,.57,0,.88S223.66,132.72,223.67,133Z" style="fill:#4481EB"></path><path d="M213.78,144.53a.06.06,0,0,1,.08,0,.13.13,0,0,1,0,.1v.21a.31.31,0,0,1,0,.13.24.24,0,0,1-.08.09l-1.26.73v1.36l1.19-.68s0,0,.07,0a.13.13,0,0,1,0,.1v.21a.31.31,0,0,1,0,.13.22.22,0,0,1-.07.09l-1.19.68v1.55a.28.28,0,0,1,0,.13.17.17,0,0,1-.07.09l-.16.09s0,0-.07,0a.13.13,0,0,1,0-.1v-3.81a.28.28,0,0,1,0-.13c0-.05,0-.08.07-.09Z" style="fill:#455a64"></path><path d="M215.1,144.77a.65.65,0,0,1,.37-.11.37.37,0,0,1,.27.11.71.71,0,0,1,.19.31,2.18,2.18,0,0,1,.08.48v.56a2.9,2.9,0,0,1-.09.59,2.21,2.21,0,0,1-.18.51,1.73,1.73,0,0,1-.27.43,1.36,1.36,0,0,1-.37.31.76.76,0,0,1-.37.12.46.46,0,0,1-.28-.11.91.91,0,0,1-.18-.31,2.18,2.18,0,0,1-.08-.49v-.12a.76.76,0,0,1,0-.15.86.86,0,0,1,0-.16v-.13a3.85,3.85,0,0,1,.08-.58,3.52,3.52,0,0,1,.18-.52,2.12,2.12,0,0,1,.28-.43A1.36,1.36,0,0,1,215.1,144.77Zm.56,1.52c0-.07,0-.15,0-.25s0-.18,0-.24a1.34,1.34,0,0,0,0-.31.55.55,0,0,0-.11-.2.21.21,0,0,0-.17-.08.4.4,0,0,0-.23.07.74.74,0,0,0-.23.2.88.88,0,0,0-.17.28,1.51,1.51,0,0,0-.11.32,2.23,2.23,0,0,0-.05.36,2.09,2.09,0,0,0,0,.26,1.77,1.77,0,0,0,0,.24,1.34,1.34,0,0,0,.05.3.42.42,0,0,0,.11.2.21.21,0,0,0,.17.08.33.33,0,0,0,.23-.07.63.63,0,0,0,.23-.2,1,1,0,0,0,.17-.27,1.6,1.6,0,0,0,.11-.33A2.23,2.23,0,0,0,215.66,146.29Z" style="fill:#455a64"></path><path d="M216.85,146.74a.35.35,0,0,1,0,.13s0,.07-.08.08l-.14.09a.06.06,0,0,1-.07,0,.12.12,0,0,1,0-.09v-3.88a.31.31,0,0,1,0-.13.22.22,0,0,1,.07-.09l.14-.08s0,0,.08,0a.15.15,0,0,1,0,.1Z" style="fill:#455a64"></path><path d="M217.77,146.2a.28.28,0,0,1,0,.13.22.22,0,0,1-.07.09l-.14.08a.06.06,0,0,1-.08,0,.13.13,0,0,1,0-.1v-3.87a.28.28,0,0,1,0-.13.18.18,0,0,1,.08-.09l.14-.08s.05,0,.07,0a.13.13,0,0,1,0,.1Z" style="fill:#455a64"></path><path d="M219.16,142.43a.76.76,0,0,1,.37-.12.41.41,0,0,1,.28.11.62.62,0,0,1,.18.31,1.73,1.73,0,0,1,.08.49.41.41,0,0,1,0,.12v.31a.41.41,0,0,1,0,.12,3.65,3.65,0,0,1-.08.59,2.18,2.18,0,0,1-.46.95,1.32,1.32,0,0,1-.37.3.73.73,0,0,1-.37.12.4.4,0,0,1-.27-.11.62.62,0,0,1-.18-.31,1.65,1.65,0,0,1-.09-.49v-.55a3,3,0,0,1,.09-.59,2.28,2.28,0,0,1,.18-.52,2.52,2.52,0,0,1,.27-.42A1.53,1.53,0,0,1,219.16,142.43Zm.56,1.51a1.7,1.7,0,0,0,0-.24,1.85,1.85,0,0,0,0-.25.9.9,0,0,0-.05-.3.51.51,0,0,0-.1-.21.3.3,0,0,0-.17-.08.49.49,0,0,0-.24.07,1.1,1.1,0,0,0-.23.2,1.51,1.51,0,0,0-.28.61,3.48,3.48,0,0,0-.05.36v.49a1.86,1.86,0,0,0,.05.3.52.52,0,0,0,.11.21.27.27,0,0,0,.17.08.46.46,0,0,0,.23-.07.91.91,0,0,0,.24-.2,1.89,1.89,0,0,0,.17-.28,1.59,1.59,0,0,0,.1-.33A1.36,1.36,0,0,0,219.72,143.94Z" style="fill:#455a64"></path><path d="M222.38,142.74l.43-2.22,0-.12a.28.28,0,0,1,.09-.1l.13-.07h.06a.12.12,0,0,1,0,.09v.05l-.59,3.06s0,.1,0,.14a.18.18,0,0,1-.08.09l-.12.07a0,0,0,0,1-.07,0,.36.36,0,0,1,0-.09l-.45-1.7-.46,2.23c0,.05,0,.09,0,.14a.18.18,0,0,1-.08.09l-.12.07s-.06,0-.07,0a.3.3,0,0,1,0-.1l-.59-2.38v0a.5.5,0,0,1,0-.12.19.19,0,0,1,.07-.08l.13-.07a.06.06,0,0,1,.08,0,.13.13,0,0,1,.05.07l.43,1.72.46-2.24a.7.7,0,0,1,0-.12.2.2,0,0,1,.09-.09l.08,0s.07,0,.08,0a.25.25,0,0,1,0,.07Z" style="fill:#455a64"></path><path d="M224,139.08a.61.61,0,0,1,0,.13.36.36,0,0,1-.08.09l-.22.13a.06.06,0,0,1-.07,0,.12.12,0,0,1,0-.09V139a.31.31,0,0,1,0-.13.22.22,0,0,1,.07-.09l.22-.13a.08.08,0,0,1,.08,0,.19.19,0,0,1,0,.09Zm0,3.56a.31.31,0,0,1,0,.13.24.24,0,0,1-.08.09l-.14.08s-.05,0-.07,0a.13.13,0,0,1,0-.1v-2.75a.31.31,0,0,1,0-.13.22.22,0,0,1,.07-.09l.14-.08a.06.06,0,0,1,.08,0,.13.13,0,0,1,0,.1Z" style="fill:#455a64"></path><path d="M226.29,141.29a.38.38,0,0,1,0,.13.22.22,0,0,1-.07.09l-.14.08a.06.06,0,0,1-.07,0,.12.12,0,0,1,0-.09v-1.56a.85.85,0,0,0-.15-.6c-.09-.1-.22-.09-.39,0a1.09,1.09,0,0,0-.39.45,1.76,1.76,0,0,0-.15.77v1.56a.35.35,0,0,1,0,.13.22.22,0,0,1-.07.09l-.14.08a.06.06,0,0,1-.08,0,.12.12,0,0,1,0-.09v-2.75a.28.28,0,0,1,0-.13.15.15,0,0,1,.08-.09l.14-.09a.06.06,0,0,1,.07,0,.12.12,0,0,1,0,.09v.19a1.78,1.78,0,0,1,.22-.4,1.07,1.07,0,0,1,.38-.35.65.65,0,0,1,.33-.1.36.36,0,0,1,.26.11.65.65,0,0,1,.17.32,1.87,1.87,0,0,1,.07.52Z" style="fill:#455a64"></path><path d="M226.75,139.45a2.59,2.59,0,0,1,.08-.63,2.22,2.22,0,0,1,.18-.55,2.25,2.25,0,0,1,.27-.43,1,1,0,0,1,.34-.29.47.47,0,0,1,.38-.1.41.41,0,0,1,.21.15v-.18a.31.31,0,0,1,0-.13.24.24,0,0,1,.08-.09l.14-.08s0,0,.07,0a.15.15,0,0,1,0,.1v2.87a2.51,2.51,0,0,1-.23,1.11,1.58,1.58,0,0,1-.67.75,1.05,1.05,0,0,1-.4.15A.54.54,0,0,1,227,142a.38.38,0,0,1-.15-.2.55.55,0,0,1-.06-.26.35.35,0,0,1,0-.13.35.35,0,0,1,.07-.09l.12-.06a.06.06,0,0,1,.07,0,.17.17,0,0,1,.06.09.41.41,0,0,0,0,.08.27.27,0,0,0,.08.07.33.33,0,0,0,.15,0,.88.88,0,0,0,.23-.09,1.3,1.3,0,0,0,.23-.18.71.71,0,0,0,.19-.23,1.07,1.07,0,0,0,.13-.31,1.61,1.61,0,0,0,0-.39V140a1.64,1.64,0,0,1-.22.41,1.19,1.19,0,0,1-.37.33.6.6,0,0,1-.34.1.37.37,0,0,1-.27-.12.75.75,0,0,1-.18-.33,1.71,1.71,0,0,1-.08-.54,1.15,1.15,0,0,1,0-.19A1.21,1.21,0,0,1,226.75,139.45Zm1.46-.87a.8.8,0,0,0-.16-.55.31.31,0,0,0-.39,0,1,1,0,0,0-.4.48,2,2,0,0,0-.16.77,1.82,1.82,0,0,0,0,.33.93.93,0,0,0,.16.58c.09.11.23.11.4,0a1,1,0,0,0,.39-.45,1.87,1.87,0,0,0,.16-.74c0-.06,0-.13,0-.22S228.21,138.64,228.21,138.58Z" style="fill:#455a64"></path><path d="M112.42,171.29a.7.7,0,0,1-.49-.19l-3-2.89a.7.7,0,0,1-.15-.8l3-6.36a.68.68,0,0,1,.92-.33.69.69,0,0,1,.34.92l-2.79,5.91,2.64,2.54a.7.7,0,0,1,0,1A.7.7,0,0,1,112.42,171.29Z" style="fill:#455a64"></path><path d="M149.81,146.06c0,.11,0,.24,0,.37a3.53,3.53,0,0,0,0,.36,1.6,1.6,0,0,0,.09.5.54.54,0,0,0,.19.26.34.34,0,0,0,.24.06.51.51,0,0,0,.28-.09,1.26,1.26,0,0,0,.28-.2,1.07,1.07,0,0,0,.2-.23c0-.09.1-.17.14-.26s.07-.19.11-.29l.09-.24a.4.4,0,0,1,.13-.17l.51-.29a.12.12,0,0,1,.14,0,.26.26,0,0,1,0,.17,3.44,3.44,0,0,1-.1.59,5.05,5.05,0,0,1-.3.77,4,4,0,0,1-.51.77,2.66,2.66,0,0,1-.74.63,1.17,1.17,0,0,1-.67.19.79.79,0,0,1-.51-.22,1.35,1.35,0,0,1-.35-.56,3.24,3.24,0,0,1-.15-.82c0-.12,0-.26,0-.41s0-.29,0-.43a4.4,4.4,0,0,1,.15-1,5,5,0,0,1,.34-1,4.24,4.24,0,0,1,.52-.82,2.44,2.44,0,0,1,.67-.58,1.38,1.38,0,0,1,.74-.23.83.83,0,0,1,.51.19,1.11,1.11,0,0,1,.3.43,1.81,1.81,0,0,1,.1.47.59.59,0,0,1,0,.22.38.38,0,0,1-.14.16l-.51.3a.09.09,0,0,1-.13,0l-.09-.13a.74.74,0,0,0-.11-.16.33.33,0,0,0-.14-.1.43.43,0,0,0-.2,0,1.1,1.1,0,0,0-.28.13,1.35,1.35,0,0,0-.28.22,1.8,1.8,0,0,0-.24.35,2.09,2.09,0,0,0-.19.48A2.7,2.7,0,0,0,149.81,146.06Z" style="fill:#455a64"></path><path d="M156.28,145.11a.5.5,0,0,1-.05.23.33.33,0,0,1-.13.15l-.51.3a.09.09,0,0,1-.13,0,.19.19,0,0,1-.05-.16V143a1.63,1.63,0,0,0-.19-.89c-.13-.18-.32-.19-.58,0a1.41,1.41,0,0,0-.57.7,3,3,0,0,0-.2,1.12v2.63a.46.46,0,0,1-.06.23.3.3,0,0,1-.12.16l-.52.29s-.09,0-.12,0A.22.22,0,0,1,153,147V140.2a.49.49,0,0,1,.06-.23.3.3,0,0,1,.12-.16l.52-.3a.1.1,0,0,1,.12,0,.22.22,0,0,1,.06.17v2.21a4.23,4.23,0,0,1,.41-.68,1.77,1.77,0,0,1,.56-.5,1.09,1.09,0,0,1,.69-.2.63.63,0,0,1,.44.27,1.65,1.65,0,0,1,.24.64,4.8,4.8,0,0,1,.07.89Z" style="fill:#455a64"></path><path d="M158.82,139.77a1.36,1.36,0,0,0-.58.61,2.4,2.4,0,0,0-.18,1v2.7a.46.46,0,0,1-.06.22.31.31,0,0,1-.13.16l-.51.3a.1.1,0,0,1-.13,0,.26.26,0,0,1,0-.17v-4.84a.68.68,0,0,1,0-.23.39.39,0,0,1,.13-.15l.51-.3a.1.1,0,0,1,.13,0,.21.21,0,0,1,.06.17v.23a3.42,3.42,0,0,1,.37-.6,1.87,1.87,0,0,1,.52-.43l.31-.18a.09.09,0,0,1,.12,0,.22.22,0,0,1,.06.17v.68a.46.46,0,0,1-.06.23.3.3,0,0,1-.12.16Z" style="fill:#455a64"></path><path d="M160.73,135.45a.1.1,0,0,1,.13,0,.25.25,0,0,1,0,.17v.81a.68.68,0,0,1,0,.23.39.39,0,0,1-.13.15l-.58.34a.12.12,0,0,1-.13,0A.22.22,0,0,1,160,137v-.81a.49.49,0,0,1,.06-.23.28.28,0,0,1,.13-.15Zm.14,7a.5.5,0,0,1-.05.23.32.32,0,0,1-.13.15l-.51.3a.09.09,0,0,1-.13,0A.26.26,0,0,1,160,143v-4.83a.59.59,0,0,1,.05-.23.36.36,0,0,1,.13-.16l.51-.3a.12.12,0,0,1,.13,0,.22.22,0,0,1,.05.17Z" style="fill:#455a64"></path><path d="M163.71,139.55a.24.24,0,0,0,0-.16.25.25,0,0,0-.17,0,1.1,1.1,0,0,0-.31.06l-.5.12a1,1,0,0,1-.49,0,.49.49,0,0,1-.32-.18.9.9,0,0,1-.16-.37,3,3,0,0,1-.05-.55,2.37,2.37,0,0,1,.1-.67,2.91,2.91,0,0,1,.27-.69,3,3,0,0,1,.43-.63,2.48,2.48,0,0,1,.59-.49,1.54,1.54,0,0,1,.59-.22.78.78,0,0,1,.44,0,.63.63,0,0,1,.29.27,1.13,1.13,0,0,1,.11.43.37.37,0,0,1-.05.22.36.36,0,0,1-.13.16l-.52.3q-.1.06-.15,0l-.11-.06a.29.29,0,0,0-.17,0,.74.74,0,0,0-.3.12,1.69,1.69,0,0,0-.36.3.64.64,0,0,0-.15.42.37.37,0,0,0,0,.17.18.18,0,0,0,.15.06,1.3,1.3,0,0,0,.29,0,4.14,4.14,0,0,0,.48-.12.85.85,0,0,1,.85.13,1.38,1.38,0,0,1,.24.9,2.37,2.37,0,0,1-.1.67,3.24,3.24,0,0,1-.29.7,4.11,4.11,0,0,1-.47.65,2.57,2.57,0,0,1-.64.5,1.39,1.39,0,0,1-.63.23.76.76,0,0,1-.46-.07.65.65,0,0,1-.29-.3,1.06,1.06,0,0,1-.11-.44.49.49,0,0,1,.06-.23.31.31,0,0,1,.13-.16l.52-.3a.12.12,0,0,1,.15,0l.11.1a.26.26,0,0,0,.18.06.73.73,0,0,0,.34-.13,1.28,1.28,0,0,0,.21-.14.86.86,0,0,0,.2-.18,1.37,1.37,0,0,0,.15-.21A.4.4,0,0,0,163.71,139.55Z" style="fill:#455a64"></path><path d="M166.49,137.54a.7.7,0,0,0,.11.45c.08.09.22.07.42-.05l.41-.23a.09.09,0,0,1,.13,0,.23.23,0,0,1,.05.16v.69a.68.68,0,0,1-.05.23.39.39,0,0,1-.13.15l-.5.29c-.42.25-.75.27-1,.09s-.34-.6-.34-1.25v-2.23l-.45.25a.09.09,0,0,1-.13,0,.22.22,0,0,1,0-.16v-.69a.68.68,0,0,1,0-.23.39.39,0,0,1,.13-.15l.45-.26v-1.69a.48.48,0,0,1,0-.23.36.36,0,0,1,.13-.16l.51-.29a.09.09,0,0,1,.13,0,.19.19,0,0,1,.05.16v1.69l.87-.5a.1.1,0,0,1,.13,0,.22.22,0,0,1,.06.17v.68a.49.49,0,0,1-.06.23.31.31,0,0,1-.13.16l-.87.5Z" style="fill:#455a64"></path><path d="M169,130.67a.1.1,0,0,1,.13,0,.22.22,0,0,1,.05.17v.81a.5.5,0,0,1-.05.23.39.39,0,0,1-.13.15l-.58.34a.1.1,0,0,1-.13,0,.26.26,0,0,1,0-.17v-.81a.68.68,0,0,1,0-.23.39.39,0,0,1,.13-.15Zm.15,7a.64.64,0,0,1-.05.23.33.33,0,0,1-.13.15l-.51.3a.09.09,0,0,1-.13,0,.2.2,0,0,1-.06-.16v-4.84a.46.46,0,0,1,.06-.23.31.31,0,0,1,.13-.16l.51-.29a.09.09,0,0,1,.13,0,.22.22,0,0,1,.05.16Z" style="fill:#455a64"></path><path d="M173.37,135.24a.48.48,0,0,1-.05.23.36.36,0,0,1-.13.16l-.51.29a.09.09,0,0,1-.13,0,.19.19,0,0,1-.05-.16v-2.64a1.63,1.63,0,0,0-.19-.89c-.13-.17-.32-.19-.58,0a1.41,1.41,0,0,0-.57.7A3,3,0,0,0,171,134v2.64a.46.46,0,0,1-.06.22.3.3,0,0,1-.12.16l-.52.3a.1.1,0,0,1-.12,0,.22.22,0,0,1-.06-.17V132.3a.53.53,0,0,1,.06-.23.31.31,0,0,1,.12-.15l.52-.3c.05,0,.09,0,.12,0a.22.22,0,0,1,.06.17V132a4.23,4.23,0,0,1,.41-.68,1.9,1.9,0,0,1,.56-.5,1.15,1.15,0,0,1,.69-.2.64.64,0,0,1,.44.28,1.41,1.41,0,0,1,.24.63,4.87,4.87,0,0,1,.07.89Z" style="fill:#455a64"></path><path d="M174.09,132.41a5.81,5.81,0,0,1,.12-1.17,6.17,6.17,0,0,1,.33-1.08,3.93,3.93,0,0,1,.52-.9,2.32,2.32,0,0,1,.69-.61,1,1,0,0,1,.68-.18.79.79,0,0,1,.52.26,1.6,1.6,0,0,1,.34.65,3.43,3.43,0,0,1,.12,1v.46a.46.46,0,0,1-.06.23.31.31,0,0,1-.13.16l-2.25,1.3a.81.81,0,0,0,.07.38.41.41,0,0,0,.17.21.34.34,0,0,0,.25,0,.72.72,0,0,0,.29-.1,1.41,1.41,0,0,0,.35-.27,1.91,1.91,0,0,0,.22-.3.9.9,0,0,1,.12-.18.47.47,0,0,1,.13-.11l.54-.31a.1.1,0,0,1,.13,0,.19.19,0,0,1,0,.17,1.72,1.72,0,0,1-.1.44,3.79,3.79,0,0,1-.3.61,4.58,4.58,0,0,1-.48.66,2.89,2.89,0,0,1-.66.54,1.31,1.31,0,0,1-.69.19.75.75,0,0,1-.52-.28,1.78,1.78,0,0,1-.33-.69A4.21,4.21,0,0,1,174.09,132.41Zm1.66-2.52a1.34,1.34,0,0,0-.34.29,1.69,1.69,0,0,0-.23.36,2,2,0,0,0-.14.39,2,2,0,0,0-.07.37l1.53-.88c0-.1,0-.2-.05-.3a.55.55,0,0,0-.13-.24.29.29,0,0,0-.22-.1A.63.63,0,0,0,175.75,129.89Z" style="fill:#455a64"></path><path d="M178.2,133.36a.09.09,0,0,1-.13,0,.21.21,0,0,1-.06-.17v-.68a.49.49,0,0,1,.06-.23.31.31,0,0,1,.13-.16l3.94-2.27a.1.1,0,0,1,.13,0,.22.22,0,0,1,0,.17v.69a.5.5,0,0,1,0,.23.39.39,0,0,1-.13.15Z" style="fill:#455a64"></path><path d="M185,128.9a1.2,1.2,0,0,1-.37.15.75.75,0,0,1-.29,0,.93.93,0,0,1-.22-.08l-.14-.12v2.21a.68.68,0,0,1-.05.23.39.39,0,0,1-.13.15l-.51.3a.1.1,0,0,1-.13,0s-.05-.09-.05-.17v-6.81a.5.5,0,0,1,.05-.23.39.39,0,0,1,.13-.15l.51-.3a.09.09,0,0,1,.13,0,.25.25,0,0,1,.05.17v.23c0-.08.09-.17.14-.28a2,2,0,0,1,.22-.32,2.21,2.21,0,0,1,.29-.33,2.11,2.11,0,0,1,.37-.28.93.93,0,0,1,.61-.15.75.75,0,0,1,.47.28,1.54,1.54,0,0,1,.3.6,3.52,3.52,0,0,1,.13.84v.73a5.6,5.6,0,0,1-.13,1,4.88,4.88,0,0,1-.3,1,4,4,0,0,1-.47.81A2,2,0,0,1,185,128.9Zm.63-2.87a5.8,5.8,0,0,0,0-.59q0-.64-.27-.81a.48.48,0,0,0-.56,0,1.43,1.43,0,0,0-.56.62,2.59,2.59,0,0,0-.26,1c0,.11,0,.24,0,.4s0,.29,0,.39a1,1,0,0,0,.26.7.46.46,0,0,0,.56,0,1.49,1.49,0,0,0,.56-.62A2.79,2.79,0,0,0,185.65,126Z" style="fill:#455a64"></path><path d="M216.07,105.67c.57-.33,1-.06,1,.6a2.31,2.31,0,0,1-1,1.8c-.58.33-1,.07-1-.6A2.28,2.28,0,0,1,216.07,105.67Z" style="fill:#455a64"></path><path d="M219.09,103.92c.57-.33,1-.06,1,.61a2.31,2.31,0,0,1-1,1.8c-.58.33-1,.06-1-.6A2.3,2.3,0,0,1,219.09,103.92Z" style="fill:#455a64"></path><path d="M222.11,102.18c.57-.33,1-.06,1,.6a2.31,2.31,0,0,1-1,1.8c-.58.34-1,.07-1-.6A2.28,2.28,0,0,1,222.11,102.18Z" style="fill:#455a64"></path><path d="M196,176,221.86,161c.72-.42,1.3-.08,1.3.75V162a2.86,2.86,0,0,1-1.3,2.25L196,179.19c-.72.41-1.3.08-1.3-.75v-.24A2.87,2.87,0,0,1,196,176Z" style="fill:#455a64"></path><path d="M191.32,184.81l35.25-20.38c.72-.41,1.3-.08,1.3.75v.24a2.87,2.87,0,0,1-1.3,2.25l-35.25,20.38c-.72.41-1.3.07-1.3-.75v-.24A2.86,2.86,0,0,1,191.32,184.81Z" style="fill:#ebebeb"></path><path d="M196,188.2l25.83-14.91c.72-.42,1.3-.08,1.3.75v.23a2.86,2.86,0,0,1-1.3,2.25L196,191.44c-.72.41-1.3.08-1.3-.75v-.24A2.87,2.87,0,0,1,196,188.2Z" style="fill:#ebebeb"></path><path d="M191.32,197.06l35.25-20.38c.72-.41,1.3-.08,1.3.75v.24a2.89,2.89,0,0,1-1.3,2.25l-35.25,20.37c-.72.42-1.3.08-1.3-.75v-.23A2.86,2.86,0,0,1,191.32,197.06Z" style="fill:#ebebeb"></path><path d="M210.94,217.24A1.84,1.84,0,0,1,210,217a2.31,2.31,0,0,1-1-2.12v-8.07a6.2,6.2,0,0,1,2.85-4.93l7.93-4.58a2.07,2.07,0,0,1,3.34,1.93v8.07a6.22,6.22,0,0,1-2.84,4.94l-7.93,4.57A2.79,2.79,0,0,1,210.94,217.24Zm10.25-19.36a1.85,1.85,0,0,0-.91.29l-7.93,4.57a5.3,5.3,0,0,0-2.35,4.07v8.07a1.1,1.1,0,0,0,1.85,1.07l7.93-4.58a5.27,5.27,0,0,0,2.34-4.07v-8.07a1.38,1.38,0,0,0-.51-1.25A.82.82,0,0,0,221.19,197.88Z" style="fill:#e0e0e0"></path><path d="M216,209.43a.35.35,0,0,1-.24-.1l-2.25-2.17a.34.34,0,0,1,0-.49.34.34,0,0,1,.48,0l1.91,1.84,2.05-4.33a.34.34,0,0,1,.46-.17.35.35,0,0,1,.16.46l-2.25,4.77a.35.35,0,0,1-.25.19Z" style="fill:#455a64"></path><path d="M163.66,244.54a1.75,1.75,0,0,1-.93-.25,2.28,2.28,0,0,1-1-2.11v-8.07a6.22,6.22,0,0,1,2.85-4.94l31.36-18.1a2.07,2.07,0,0,1,3.35,1.93v8.07a6.19,6.19,0,0,1-2.85,4.93l-31.36,18.11A2.9,2.9,0,0,1,163.66,244.54Zm1.41-14.5a5.26,5.26,0,0,0-2.35,4.07v8.07a1.1,1.1,0,0,0,1.85,1.07l31.36-18.11a5.3,5.3,0,0,0,2.35-4.07V213a1.1,1.1,0,0,0-1.85-1.07Z" style="fill:#e0e0e0"></path><path d="M172.82,231.6l.86-2.81a1.13,1.13,0,0,0,.07-.15.32.32,0,0,1,.13-.15l.31-.18a.08.08,0,0,1,.09,0,.16.16,0,0,1,0,.11V233a.5.5,0,0,1,0,.16.3.3,0,0,1-.09.1l-.37.21a.07.07,0,0,1-.09,0,.18.18,0,0,1,0-.11v-2.74l-.59,1.92-.07.15a.29.29,0,0,1-.1.12l-.24.13s-.08,0-.1,0a.46.46,0,0,1-.07-.07l-.59-1.24v2.74a.4.4,0,0,1,0,.15.26.26,0,0,1-.09.11l-.37.21a.06.06,0,0,1-.08,0,.16.16,0,0,1,0-.12v-4.52a.28.28,0,0,1,0-.15.24.24,0,0,1,.08-.11l.31-.18c.06,0,.11,0,.14,0a.81.81,0,0,0,.06.08Z" style="fill:#455a64"></path><path d="M174.86,231a4.13,4.13,0,0,1,.08-.78,3.44,3.44,0,0,1,.22-.73,3.25,3.25,0,0,1,.35-.61,1.8,1.8,0,0,1,.47-.41.71.71,0,0,1,.46-.12.5.5,0,0,1,.35.18,1,1,0,0,1,.22.44,2,2,0,0,1,.08.63v.32a.4.4,0,0,1,0,.15.35.35,0,0,1-.09.11l-1.52.87a.6.6,0,0,0,.05.26.23.23,0,0,0,.11.14.25.25,0,0,0,.17,0,.6.6,0,0,0,.2-.07,1.54,1.54,0,0,0,.23-.18l.15-.2.08-.13a.71.71,0,0,1,.09-.07l.36-.21s.07,0,.09,0a.12.12,0,0,1,0,.11,1.92,1.92,0,0,1-.07.29,2.62,2.62,0,0,1-.2.42,3.15,3.15,0,0,1-.33.44,1.92,1.92,0,0,1-.44.36.82.82,0,0,1-.47.13.52.52,0,0,1-.35-.18,1.13,1.13,0,0,1-.22-.48A3,3,0,0,1,174.86,231Zm1.12-1.69a.71.71,0,0,0-.23.19l-.16.24a1.43,1.43,0,0,0-.09.27,1.23,1.23,0,0,0-.05.25l1-.6,0-.2a.35.35,0,0,0-.09-.16.21.21,0,0,0-.15-.07A.42.42,0,0,0,176,229.31Z" style="fill:#455a64"></path><path d="M178.88,229.46a.18.18,0,0,0,0-.11.15.15,0,0,0-.12,0,.68.68,0,0,0-.21,0l-.33.08a1,1,0,0,1-.34,0,.39.39,0,0,1-.21-.13.53.53,0,0,1-.11-.25,2.05,2.05,0,0,1,0-.37,1.86,1.86,0,0,1,.06-.45,2.72,2.72,0,0,1,.19-.47,2,2,0,0,1,.29-.42,1.57,1.57,0,0,1,.4-.33,1.07,1.07,0,0,1,.39-.15.48.48,0,0,1,.3,0,.41.41,0,0,1,.19.18.66.66,0,0,1,.08.29.4.4,0,0,1,0,.15.35.35,0,0,1-.09.11l-.35.2c-.05,0-.08,0-.1,0l-.08,0-.11,0a.48.48,0,0,0-.2.08.68.68,0,0,0-.24.2.41.41,0,0,0-.11.29.16.16,0,0,0,0,.11s0,0,.09,0l.2,0,.32-.08a.55.55,0,0,1,.57.08.93.93,0,0,1,.17.61,1.5,1.5,0,0,1-.07.45,2.14,2.14,0,0,1-.2.47,1.9,1.9,0,0,1-.32.44,1.74,1.74,0,0,1-.42.34,1.06,1.06,0,0,1-.43.15.52.52,0,0,1-.31,0,.43.43,0,0,1-.19-.21.7.7,0,0,1-.08-.3.31.31,0,0,1,0-.15.2.2,0,0,1,.09-.11l.35-.2s.08,0,.1,0l.08.07a.15.15,0,0,0,.12,0,.48.48,0,0,0,.23-.08l.14-.1.13-.12a1.34,1.34,0,0,0,.11-.14A.53.53,0,0,0,178.88,229.46Z" style="fill:#455a64"></path><path d="M181.24,228.1a.11.11,0,0,0-.14-.14l-.21,0-.34.08a.77.77,0,0,1-.33,0A.37.37,0,0,1,180,228a.63.63,0,0,1-.12-.26,2,2,0,0,1,0-.37,1.5,1.5,0,0,1,.07-.45,2,2,0,0,1,.18-.46,2.49,2.49,0,0,1,.29-.43,1.52,1.52,0,0,1,.4-.32,1.15,1.15,0,0,1,.4-.16.67.67,0,0,1,.29,0,.44.44,0,0,1,.2.18.69.69,0,0,1,.07.29.21.21,0,0,1,0,.15.26.26,0,0,1-.09.11l-.35.2s-.08,0-.1,0l-.08,0s-.06,0-.11,0a.4.4,0,0,0-.2.08.91.91,0,0,0-.24.2.41.41,0,0,0-.11.28.21.21,0,0,0,0,.12.13.13,0,0,0,.1,0l.19,0,.32-.08a.55.55,0,0,1,.58.09.91.91,0,0,1,.16.61,1.5,1.5,0,0,1-.07.45,2.57,2.57,0,0,1-.19.47,2.67,2.67,0,0,1-.32.43,1.74,1.74,0,0,1-.43.34,1,1,0,0,1-.42.16.5.5,0,0,1-.31-.05.43.43,0,0,1-.2-.2.6.6,0,0,1-.07-.3.27.27,0,0,1,0-.15.26.26,0,0,1,.09-.11l.35-.2c.05,0,.08,0,.1,0l.08.06a.22.22,0,0,0,.12,0,.52.52,0,0,0,.23-.09,1.1,1.1,0,0,0,.14-.09.86.86,0,0,0,.14-.13.71.71,0,0,0,.1-.14A.28.28,0,0,0,181.24,228.1Z" style="fill:#455a64"></path><path d="M182.32,225.77a2.18,2.18,0,0,1,.08-.36,2.6,2.6,0,0,1,.19-.42,2.34,2.34,0,0,1,.29-.41,1.86,1.86,0,0,1,.41-.33,1.07,1.07,0,0,1,.42-.15.45.45,0,0,1,.32.09.66.66,0,0,1,.21.34,2,2,0,0,1,.07.59v2.06a.28.28,0,0,1,0,.15.2.2,0,0,1-.08.11l-.35.2a.05.05,0,0,1-.08,0,.12.12,0,0,1,0-.11v-.23a2.15,2.15,0,0,1-.28.51,1.44,1.44,0,0,1-.45.4.7.7,0,0,1-.35.12.37.37,0,0,1-.26-.07.53.53,0,0,1-.16-.26,1.16,1.16,0,0,1-.06-.4,1.81,1.81,0,0,1,.22-.89,2.67,2.67,0,0,1,.6-.71l.74-.62c0-.2,0-.31-.12-.34a.37.37,0,0,0-.31.06.65.65,0,0,0-.18.15,1.76,1.76,0,0,0-.12.2.54.54,0,0,1-.07.12l-.08.07-.42.24a.06.06,0,0,1-.08,0S182.31,225.82,182.32,225.77Zm.76,1.54a1,1,0,0,0,.27-.23,1.37,1.37,0,0,0,.2-.29,1.44,1.44,0,0,0,.13-.32,1.2,1.2,0,0,0,0-.31v-.07l-.62.52a1.43,1.43,0,0,0-.27.3.61.61,0,0,0-.08.3c0,.1,0,.15.1.16A.38.38,0,0,0,183.08,227.31Z" style="fill:#455a64"></path><path d="M186,227.12a.83.83,0,0,0,.19-.15,1.14,1.14,0,0,0,.18-.25,1.64,1.64,0,0,0,.14-.33,1.58,1.58,0,0,0,0-.38v-.26a1.82,1.82,0,0,1-.1.19,1.13,1.13,0,0,1-.14.22,1.86,1.86,0,0,1-.19.22,1.2,1.2,0,0,1-.26.18.61.61,0,0,1-.41.11.54.54,0,0,1-.31-.19,1,1,0,0,1-.21-.4,2.46,2.46,0,0,1-.08-.58V225a3.83,3.83,0,0,1,.08-.66,3.3,3.3,0,0,1,.21-.65,2.82,2.82,0,0,1,.31-.54,1.61,1.61,0,0,1,.41-.38,1.24,1.24,0,0,1,.26-.1.64.64,0,0,1,.19,0,.26.26,0,0,1,.14.06.27.27,0,0,1,.1.08v-.16a.32.32,0,0,1,0-.16.21.21,0,0,1,.08-.1l.35-.2a.07.07,0,0,1,.09,0,.18.18,0,0,1,0,.11v3.29a3.1,3.1,0,0,1-.31,1.45,2,2,0,0,1-.84.92,1.27,1.27,0,0,1-.43.16.65.65,0,0,1-.35-.06.6.6,0,0,1-.23-.22.68.68,0,0,1-.09-.35.24.24,0,0,1,0-.16.3.3,0,0,1,.09-.1l.31-.18a.08.08,0,0,1,.11,0l.07.08a.27.27,0,0,0,.17.1A.56.56,0,0,0,186,227.12Zm-.55-2.4a2.54,2.54,0,0,0,0,.39c0,.3.08.48.18.55a.33.33,0,0,0,.38,0,1.12,1.12,0,0,0,.38-.42,1.67,1.67,0,0,0,.17-.69,2.1,2.1,0,0,0,0-.27,1.93,1.93,0,0,0,0-.26.62.62,0,0,0-.17-.47.32.32,0,0,0-.38,0,1,1,0,0,0-.38.41A2,2,0,0,0,185.4,224.72Z" style="fill:#455a64"></path><path d="M187.61,223.64a4.13,4.13,0,0,1,.08-.78,3.44,3.44,0,0,1,.22-.73,2.78,2.78,0,0,1,.35-.61,1.76,1.76,0,0,1,.46-.41.74.74,0,0,1,.47-.12.52.52,0,0,1,.35.18,1.07,1.07,0,0,1,.22.44,2,2,0,0,1,.08.63v.32a.4.4,0,0,1,0,.15.35.35,0,0,1-.09.11l-1.52.87a.83.83,0,0,0,0,.26.28.28,0,0,0,.12.14.25.25,0,0,0,.17,0,.49.49,0,0,0,.19-.07,1.25,1.25,0,0,0,.24-.18,2.08,2.08,0,0,0,.15-.2,1.05,1.05,0,0,1,.08-.13.22.22,0,0,1,.09-.07l.36-.21s.07,0,.09,0a.12.12,0,0,1,0,.11,1.92,1.92,0,0,1-.07.29,2.55,2.55,0,0,1-.53.86,2,2,0,0,1-.45.36.79.79,0,0,1-.46.13.48.48,0,0,1-.35-.19,1,1,0,0,1-.22-.47A3,3,0,0,1,187.61,223.64Zm1.11-1.69a.79.79,0,0,0-.22.19,1.67,1.67,0,0,0-.16.24c0,.09-.07.18-.1.27s0,.17,0,.25l1-.6,0-.2a.35.35,0,0,0-.09-.16.21.21,0,0,0-.15-.07A.48.48,0,0,0,188.72,222Z" style="fill:#455a64"></path><path d="M117.54,256.9l31.36-18.1c1.43-.83,2.6-.16,2.6,1.5v8.07a5.76,5.76,0,0,1-2.6,4.5L117.54,271c-1.44.82-2.6.15-2.6-1.5V261.4A5.74,5.74,0,0,1,117.54,256.9Z" style="fill:#4481EB"></path><path d="M121.15,258.11s.09,0,.12,0,0,.08,0,.16v1a.41.41,0,0,1,0,.21.31.31,0,0,1-.12.15l-1.91,1.1v1.35l1.78-1a.1.1,0,0,1,.13,0,.22.22,0,0,1,0,.16v1a.54.54,0,0,1,0,.21.39.39,0,0,1-.13.15l-1.78,1v2.12a.47.47,0,0,1,0,.22.24.24,0,0,1-.12.14l-.83.49a.1.1,0,0,1-.12,0,.19.19,0,0,1-.05-.16v-6.34a.42.42,0,0,1,.05-.22.31.31,0,0,1,.12-.15Z" style="fill:#fafafa"></path><path d="M125.21,259.72c0,.09,0,.22,0,.37s0,.28,0,.38a4.73,4.73,0,0,1-.14,1,4.85,4.85,0,0,1-.35.92,4,4,0,0,1-.54.8,2.78,2.78,0,0,1-.71.58,1.41,1.41,0,0,1-.7.23.83.83,0,0,1-.54-.17,1.26,1.26,0,0,1-.35-.52,2.44,2.44,0,0,1-.14-.81c0-.09,0-.22,0-.37s0-.28,0-.38a4,4,0,0,1,.13-1,4.72,4.72,0,0,1,.36-.93,4,4,0,0,1,.54-.8,2.75,2.75,0,0,1,.7-.59,1.47,1.47,0,0,1,.71-.23.84.84,0,0,1,.54.18,1.11,1.11,0,0,1,.35.52A2.44,2.44,0,0,1,125.21,259.72Zm-2.32,2a.68.68,0,0,0,.17.49c.11.08.24.07.41,0a1.15,1.15,0,0,0,.42-.45,1.67,1.67,0,0,0,.17-.69c0-.1,0-.21,0-.34a3.11,3.11,0,0,0,0-.32.66.66,0,0,0-.17-.49.37.37,0,0,0-.42,0,1.13,1.13,0,0,0-.41.45,1.66,1.66,0,0,0-.17.68c0,.11,0,.22,0,.35A2.88,2.88,0,0,0,122.89,261.76Z" style="fill:#fafafa"></path><path d="M127,261.35a.54.54,0,0,1,0,.21.32.32,0,0,1-.12.15l-.81.47a.11.11,0,0,1-.12,0,.23.23,0,0,1,0-.16v-6.44a.63.63,0,0,1,0-.22.35.35,0,0,1,.12-.14l.81-.47a.09.09,0,0,1,.12,0,.22.22,0,0,1,0,.16Z" style="fill:#fafafa"></path><path d="M128.91,260.24a.59.59,0,0,1,0,.22.49.49,0,0,1-.12.15l-.81.46a.09.09,0,0,1-.12,0,.23.23,0,0,1,0-.16v-6.44a.63.63,0,0,1,0-.22.35.35,0,0,1,.12-.14l.81-.47a.11.11,0,0,1,.12,0,.23.23,0,0,1,0,.16Z" style="fill:#fafafa"></path><path d="M133,255.21c0,.1,0,.22,0,.38s0,.28,0,.38a4,4,0,0,1-.14,1,5,5,0,0,1-.35.93,3.94,3.94,0,0,1-.54.79,2.78,2.78,0,0,1-.7.59,1.59,1.59,0,0,1-.71.23.84.84,0,0,1-.54-.18,1.19,1.19,0,0,1-.35-.52,2.61,2.61,0,0,1-.14-.8c0-.09,0-.22,0-.37s0-.28,0-.39a4.1,4.1,0,0,1,.13-1,4.88,4.88,0,0,1,.36-.92,4.08,4.08,0,0,1,.54-.81,2.83,2.83,0,0,1,.71-.59,1.41,1.41,0,0,1,.7-.22.84.84,0,0,1,.54.18,1.11,1.11,0,0,1,.35.52A2.34,2.34,0,0,1,133,255.21Zm-2.32,2a.63.63,0,0,0,.17.48.38.38,0,0,0,.42,0,1.13,1.13,0,0,0,.41-.45,1.71,1.71,0,0,0,.17-.69c0-.1,0-.22,0-.34a3.25,3.25,0,0,0,0-.33.63.63,0,0,0-.17-.48c-.11-.08-.24-.07-.41,0a1.05,1.05,0,0,0-.42.44,1.75,1.75,0,0,0-.17.69c0,.1,0,.22,0,.34A3.22,3.22,0,0,0,130.69,257.26Z" style="fill:#fafafa"></path><path d="M136.22,251.18a.12.12,0,0,1,.15,0,.47.47,0,0,1,.07.12l.47,2,.47-2.51a.89.89,0,0,1,.07-.19.31.31,0,0,1,.15-.17l.79-.45a.08.08,0,0,1,.11,0,.2.2,0,0,1,0,.14.28.28,0,0,1,0,.09l-1,5.13a.6.6,0,0,1-.07.2.39.39,0,0,1-.14.17l-.73.42c-.06,0-.11,0-.14,0a.54.54,0,0,1-.07-.13l-.45-1.8-.45,2.32a1.72,1.72,0,0,1-.07.21.36.36,0,0,1-.14.16l-.73.42c-.07,0-.11,0-.14,0a.24.24,0,0,1-.07-.13l-1-4v-.08a.43.43,0,0,1,0-.19.25.25,0,0,1,.11-.13l.79-.46c.07,0,.11,0,.15,0a.37.37,0,0,1,.07.12l.47,2,.47-2.5c0-.06,0-.13.07-.2a.39.39,0,0,1,.15-.16Z" style="fill:#fafafa"></path><path d="M140.23,248.06a.41.41,0,0,1,0,.21.31.31,0,0,1-.12.15l-.8.47a.1.1,0,0,1-.12,0,.21.21,0,0,1-.06-.16v-1a.43.43,0,0,1,.06-.22.31.31,0,0,1,.12-.15l.8-.46c.05,0,.09,0,.12,0a.17.17,0,0,1,0,.15Zm0,5.64a.42.42,0,0,1,0,.22.31.31,0,0,1-.12.15l-.8.46s-.09,0-.12,0a.18.18,0,0,1-.06-.15v-4.58a.49.49,0,0,1,.06-.22.24.24,0,0,1,.12-.14l.8-.47a.09.09,0,0,1,.12,0s0,.08,0,.16Z" style="fill:#fafafa"></path><path d="M144.4,251.29a.42.42,0,0,1-.05.22.31.31,0,0,1-.12.15l-.8.46q-.08,0-.12,0a.21.21,0,0,1-.05-.16v-2.49a1,1,0,0,0-.14-.6c-.09-.12-.23-.12-.42,0a1,1,0,0,0-.42.5,2.18,2.18,0,0,0-.13.75v2.48a.54.54,0,0,1-.05.22.31.31,0,0,1-.12.15l-.8.46a.1.1,0,0,1-.13,0,.25.25,0,0,1-.05-.16v-4.58a.54.54,0,0,1,.05-.21.28.28,0,0,1,.13-.15l.77-.45a.09.09,0,0,1,.12,0,.23.23,0,0,1,.05.16v.22c0-.08.08-.18.13-.28a2.38,2.38,0,0,1,.18-.3,3.15,3.15,0,0,1,.25-.28,2.3,2.3,0,0,1,.34-.25,1.38,1.38,0,0,1,.56-.19.55.55,0,0,1,.44.16,1.15,1.15,0,0,1,.28.53,3.51,3.51,0,0,1,.1.94Z" style="fill:#fafafa"></path><path d="M146.72,250.91a1.31,1.31,0,0,0,.43-.42,1.1,1.1,0,0,0,.18-.62v-.69l-.12.29a3,3,0,0,1-.17.28,1.94,1.94,0,0,1-.24.27,1.66,1.66,0,0,1-.36.26,1.23,1.23,0,0,1-.54.18.58.58,0,0,1-.44-.15,1,1,0,0,1-.31-.51,2.66,2.66,0,0,1-.13-.89c0-.1,0-.21,0-.35s0-.25,0-.35a4.31,4.31,0,0,1,.13-1.05,4,4,0,0,1,.31-.87,2.81,2.81,0,0,1,.44-.66,2.23,2.23,0,0,1,.54-.45,1.3,1.3,0,0,1,.37-.15.58.58,0,0,1,.26,0,.51.51,0,0,1,.18.09.6.6,0,0,1,.11.12V245a.63.63,0,0,1,0-.22.39.39,0,0,1,.13-.15l.74-.42a.08.08,0,0,1,.12,0,.21.21,0,0,1,0,.15v4.79a4.42,4.42,0,0,1-.13,1,4,4,0,0,1-.36.9,3.47,3.47,0,0,1-.55.74,3.64,3.64,0,0,1-.7.54,1.68,1.68,0,0,1-.82.28.75.75,0,0,1-.49-.18.89.89,0,0,1-.25-.42,2.12,2.12,0,0,1-.08-.46.47.47,0,0,1,.05-.22.39.39,0,0,1,.13-.15l.82-.48c.09,0,.16,0,.2.08a.29.29,0,0,0,.14.15C146.47,251,146.57,251,146.72,250.91Zm-.56-3.26a2.45,2.45,0,0,0,0,.25,2,2,0,0,0,0,.23.76.76,0,0,0,.15.48c.1.1.23.09.42,0a1,1,0,0,0,.4-.46,1.94,1.94,0,0,0,.17-.6,3.21,3.21,0,0,0,0-.62.59.59,0,0,0-.17-.4c-.09-.09-.22-.09-.4,0a1,1,0,0,0-.41.46A1.6,1.6,0,0,0,146.16,247.65Z" style="fill:#fafafa"></path><path d="M145.07,280.74a4.52,4.52,0,0,1-2.27-.59c-1.63-.94-2.53-2.89-2.53-5.47,0-5.13,3.61-11.39,8-14h0c2.25-1.29,4.38-1.49,6-.54s2.53,2.88,2.53,5.47c0,5.13-3.61,11.39-8.05,14A7.55,7.55,0,0,1,145.07,280.74Zm7-20.19a6.59,6.59,0,0,0-3.24,1h0a16.75,16.75,0,0,0-7.58,13.12c0,2.23.73,3.88,2.05,4.64s3.11.57,5-.55a16.77,16.77,0,0,0,7.58-13.12c0-2.23-.73-3.88-2.05-4.64A3.5,3.5,0,0,0,152.05,260.55Z" style="fill:#e0e0e0"></path><path d="M148.93,263c3.29-1.8,5.79-.08,5.58,3.86s-3,8.58-6.31,10.39-5.79.07-5.58-3.86S145.65,264.84,148.93,263Z" style="fill:#ebebeb"></path><path d="M148.5,265.75c.84-.49,1.53-.1,1.53.88a3.39,3.39,0,0,1-1.53,2.65c-.85.49-1.53.09-1.53-.88A3.35,3.35,0,0,1,148.5,265.75Z" style="fill:#fff"></path><path d="M151.51,271.33c0-1.6-1.12-2.31-2.51-1.51l-.87.5a5.55,5.55,0,0,0-2.51,4.36v.43s.59,1.22,2.95-.17a6.6,6.6,0,0,0,2.94-3.23Z" style="fill:#fff"></path><path d="M166.76,268.16a4.52,4.52,0,0,1-2.28-.58c-1.63-.95-2.53-2.89-2.53-5.48,0-5.13,3.62-11.39,8.06-14h0c2.25-1.3,4.38-1.49,6-.55s2.53,2.89,2.53,5.48c0,5.12-3.62,11.38-8.06,13.95A7.63,7.63,0,0,1,166.76,268.16Zm7-20.18a6.6,6.6,0,0,0-3.25,1h0a16.76,16.76,0,0,0-7.57,13.12c0,2.23.72,3.88,2,4.64s3.12.57,5-.54a16.78,16.78,0,0,0,7.58-13.12c0-2.24-.73-3.88-2.05-4.65A3.62,3.62,0,0,0,173.74,248Z" style="fill:#e0e0e0"></path><path d="M170.62,250.46c3.28-1.8,5.78-.07,5.58,3.86s-3,8.59-6.32,10.39-5.78.08-5.58-3.86S167.33,252.27,170.62,250.46Z" style="fill:#ebebeb"></path><path d="M170.18,253.17c.85-.49,1.53-.09,1.53.88a3.35,3.35,0,0,1-1.53,2.65c-.84.49-1.53.1-1.53-.88A3.41,3.41,0,0,1,170.18,253.17Z" style="fill:#fff"></path><path d="M173.2,258.76c0-1.6-1.13-2.32-2.52-1.51l-.86.5a5.55,5.55,0,0,0-2.52,4.35v.43s.6,1.22,2.95-.17a6.55,6.55,0,0,0,2.95-3.23Z" style="fill:#fff"></path><path d="M188.44,255.59a4.52,4.52,0,0,1-2.27-.59c-1.63-.94-2.53-2.89-2.53-5.47,0-5.13,3.61-11.39,8.06-14h0c2.24-1.29,4.37-1.49,6-.54s2.53,2.88,2.53,5.47c0,5.13-3.61,11.39-8,13.95A7.55,7.55,0,0,1,188.44,255.59Zm7-20.19a6.59,6.59,0,0,0-3.24,1h0a16.75,16.75,0,0,0-7.58,13.12c0,2.23.73,3.87,2.05,4.64s3.11.57,5-.55a16.78,16.78,0,0,0,7.57-13.12c0-2.23-.73-3.88-2.05-4.64A3.5,3.5,0,0,0,195.42,235.4Z" style="fill:#e0e0e0"></path><path d="M192.3,237.89c3.29-1.81,5.79-.08,5.58,3.86s-3,8.58-6.31,10.39-5.79.07-5.58-3.86S189,239.69,192.3,237.89Z" style="fill:#ebebeb"></path><path d="M191.87,240.6c.84-.49,1.53-.1,1.53.88a3.41,3.41,0,0,1-1.53,2.65c-.85.49-1.53.09-1.53-.88A3.35,3.35,0,0,1,191.87,240.6Z" style="fill:#fff"></path><path d="M194.88,246.18c0-1.6-1.12-2.31-2.51-1.51l-.87.5a5.55,5.55,0,0,0-2.51,4.36V250s.59,1.22,2.95-.18a6.56,6.56,0,0,0,2.94-3.22Z" style="fill:#fff"></path><path d="M210.13,243a4.43,4.43,0,0,1-2.28-.59c-1.63-.94-2.53-2.88-2.53-5.47,0-5.13,3.62-11.39,8.06-13.95h0c2.25-1.3,4.38-1.49,6-.55s2.53,2.89,2.53,5.48c0,5.12-3.62,11.38-8.06,13.95A7.63,7.63,0,0,1,210.13,243Zm7-20.18a6.6,6.6,0,0,0-3.25,1h0A16.76,16.76,0,0,0,206.29,237c0,2.23.72,3.88,2,4.64s3.12.57,5-.55A16.75,16.75,0,0,0,221,227.93c0-2.24-.73-3.88-2.05-4.65A3.62,3.62,0,0,0,217.11,222.83Z" style="fill:#e0e0e0"></path><path d="M214,225.31c3.28-1.8,5.78-.07,5.58,3.86s-3,8.59-6.32,10.39-5.78.08-5.58-3.86S210.7,227.12,214,225.31Z" style="fill:#ebebeb"></path><path d="M213.55,228c.85-.49,1.53-.09,1.53.88a3.35,3.35,0,0,1-1.53,2.65c-.84.49-1.53.1-1.53-.88A3.39,3.39,0,0,1,213.55,228Z" style="fill:#fff"></path><path d="M216.57,233.61c0-1.61-1.13-2.32-2.51-1.52l-.87.51a5.55,5.55,0,0,0-2.52,4.35v.43s.6,1.22,3-.17a6.55,6.55,0,0,0,2.95-3.23Z" style="fill:#fff"></path><path d="M123.2,293.32a4.49,4.49,0,0,1-2.27-.59c-1.63-.94-2.53-2.89-2.53-5.48,0-5.13,3.61-11.39,8-13.95h0c2.25-1.3,4.38-1.49,6-.55s2.53,2.89,2.53,5.48c0,5.13-3.61,11.39-8.06,13.95A7.59,7.59,0,0,1,123.2,293.32Zm7-20.19a6.63,6.63,0,0,0-3.25,1h0a16.78,16.78,0,0,0-7.57,13.12c0,2.23.73,3.88,2,4.64s3.11.57,5-.54A16.77,16.77,0,0,0,134,278.23c0-2.23-.73-3.88-2.05-4.64A3.52,3.52,0,0,0,130.18,273.13Z" style="fill:#e0e0e0"></path><path d="M127.06,275.62c3.29-1.81,5.79-.08,5.58,3.85s-3,8.59-6.31,10.39-5.79.08-5.58-3.85S123.78,277.42,127.06,275.62Z" style="fill:#ebebeb"></path><path d="M126.63,278.32c.84-.49,1.53-.09,1.53.89a3.41,3.41,0,0,1-1.53,2.65c-.85.48-1.53.09-1.53-.89A3.38,3.38,0,0,1,126.63,278.32Z" style="fill:#fff"></path><path d="M129.64,283.91c0-1.6-1.12-2.32-2.51-1.51l-.87.5a5.54,5.54,0,0,0-2.51,4.35v.43s.59,1.22,2.94-.17a6.55,6.55,0,0,0,2.95-3.23Z" style="fill:#fff"></path><path d="M119.7,298.55l14.09-8.13c.59-.34,1.08-.1,1.08.55a2.35,2.35,0,0,1-1.08,1.8L119.7,300.9c-.6.34-1.08.1-1.08-.55A2.32,2.32,0,0,1,119.7,298.55Z" style="fill:#e0e0e0"></path><path d="M141.52,286l14.09-8.13c.59-.34,1.08-.1,1.08.55a2.35,2.35,0,0,1-1.08,1.8l-14.09,8.13c-.59.34-1.08.1-1.08-.55A2.35,2.35,0,0,1,141.52,286Z" style="fill:#e0e0e0"></path><path d="M163.21,273.4l14.08-8.13c.6-.34,1.08-.1,1.08.55a2.32,2.32,0,0,1-1.08,1.8l-14.08,8.13c-.6.35-1.08.1-1.08-.55A2.34,2.34,0,0,1,163.21,273.4Z" style="fill:#e0e0e0"></path><path d="M184.89,260.91,199,252.78c.59-.35,1.08-.1,1.08.55a2.35,2.35,0,0,1-1.08,1.8l-14.09,8.13c-.59.34-1.08.1-1.08-.55A2.35,2.35,0,0,1,184.89,260.91Z" style="fill:#e0e0e0"></path><path d="M206.58,248.38l14.08-8.13c.6-.35,1.08-.1,1.08.54a2.31,2.31,0,0,1-1.08,1.8l-14.08,8.13c-.6.35-1.08.1-1.08-.55A2.3,2.3,0,0,1,206.58,248.38Z" style="fill:#e0e0e0"></path><path d="M113.48,325.21a.41.41,0,0,1-.19,0,.37.37,0,0,1-.19-.33V310.76a.36.36,0,0,1,.19-.32l12.18-7a.42.42,0,0,1,.38,0,.37.37,0,0,1,.19.33V317.8a.36.36,0,0,1-.19.32l-12.19,7A.37.37,0,0,1,113.48,325.21Zm.37-14.23v13.2l11.44-6.6v-13.2Z" style="fill:#455a64"></path><path d="M117.54,322.86a.37.37,0,0,1-.38-.37V308.42a.38.38,0,1,1,.75,0v14.07A.37.37,0,0,1,117.54,322.86Z" style="fill:#455a64"></path><path d="M121.6,320.52a.37.37,0,0,1-.37-.38V306.07a.38.38,0,0,1,.38-.37.37.37,0,0,1,.37.37v14.07A.38.38,0,0,1,121.6,320.52Z" style="fill:#455a64"></path><path d="M113.48,315.83a.39.39,0,0,1-.33-.19.37.37,0,0,1,.14-.51l12.18-7a.39.39,0,0,1,.52.14.37.37,0,0,1-.14.51l-12.19,7A.41.41,0,0,1,113.48,315.83Z" style="fill:#455a64"></path><path d="M113.48,320.47a.38.38,0,0,1-.33-.18.39.39,0,0,1,.14-.52l12.18-7a.38.38,0,1,1,.38.65l-12.19,7A.31.31,0,0,1,113.48,320.47Z" style="fill:#455a64"></path><path d="M163.08,296.25a1.73,1.73,0,0,1-.87-.22,2.18,2.18,0,0,1-.94-2v-5.34a6.07,6.07,0,0,1,2.78-4.82l7-4a2,2,0,0,1,3.16,1.83V287a6.07,6.07,0,0,1-2.78,4.82l-7,4A2.74,2.74,0,0,1,163.08,296.25Zm9.31-16.08a2,2,0,0,0-1,.3l-7,4a5.34,5.34,0,0,0-2.41,4.17V294a1.22,1.22,0,0,0,2,1.18l7-4a5.34,5.34,0,0,0,2.41-4.17v-5.34a1.48,1.48,0,0,0-.57-1.36A1,1,0,0,0,172.39,280.17Z" style="fill:#455a64"></path><path d="M167.57,282.64a.4.4,0,0,1-.27-.12l-1.66-1.78a.37.37,0,0,1,0-.53.38.38,0,0,1,.53,0l1.23,1.31.86-2.74a.38.38,0,0,1,.72.23l-1.06,3.34a.39.39,0,0,1-.28.26Z" style="fill:#455a64"></path><path d="M164.06,291.71a.32.32,0,0,1-.19,0,.37.37,0,0,1-.14-.51l2.61-4.7a.35.35,0,0,1,.25-.19.37.37,0,0,1,.3.07L169.1,288l2-3.81a.38.38,0,1,1,.67.35l-2.19,4.19a.35.35,0,0,1-.24.19.38.38,0,0,1-.31-.06l-2.22-1.65-2.41,4.34A.36.36,0,0,1,164.06,291.71Z" style="fill:#455a64"></path><path d="M210.94,268.63a1.74,1.74,0,0,1-.87-.23,2.17,2.17,0,0,1-.94-2v-5.16a5.66,5.66,0,0,1,2.38-4.6l2.08-1.2,1.32-3.6a.35.35,0,0,1,.33-.24.39.39,0,0,1,.36.2l1,1.91,2.31-1.33h0a1.95,1.95,0,0,1,3.16,1.82v5.17a6.07,6.07,0,0,1-2.78,4.82l-7,4A2.76,2.76,0,0,1,210.94,268.63Zm4.38-15.74-1.07,2.93a.35.35,0,0,1-.17.19l-2.19,1.27a5,5,0,0,0-2,4v5.16a1.47,1.47,0,0,0,.57,1.36,1.48,1.48,0,0,0,1.46-.18l7-4a5.32,5.32,0,0,0,2.41-4.17v-5.17a1.49,1.49,0,0,0-.57-1.36,1.47,1.47,0,0,0-1.46.19l-2.65,1.53a.39.39,0,0,1-.3,0,.38.38,0,0,1-.22-.19Z" style="fill:#455a64"></path><path d="M213,267.73a.38.38,0,0,1-.37-.38v-1.5a3.76,3.76,0,0,1,1.92-2.83l2.11-1.22a1.78,1.78,0,0,1,1.76-.2,1.12,1.12,0,0,1,.54,1v1.5a.38.38,0,1,1-.75,0v-1.5a.42.42,0,0,0-.16-.38c-.15-.09-.51-.09-1,.2L215,263.67a3.08,3.08,0,0,0-1.54,2.18v1.5A.38.38,0,0,1,213,267.73Z" style="fill:#455a64"></path><path d="M215,261.76a1.3,1.3,0,0,1-.64-.17,1.58,1.58,0,0,1-.69-1.44,4.17,4.17,0,0,1,1.91-3.31,1.42,1.42,0,0,1,2.29,1.32,4.17,4.17,0,0,1-1.91,3.31A2,2,0,0,1,215,261.76Zm1.54-4.45a1.21,1.21,0,0,0-.58.18,3.46,3.46,0,0,0-1.54,2.66.88.88,0,0,0,.32.79.9.9,0,0,0,.84-.12,3.46,3.46,0,0,0,1.54-2.66.89.89,0,0,0-.32-.79A.53.53,0,0,0,216.51,257.31Z" style="fill:#455a64"></path><path d="M121.6,379.43v5.86l-2.6,1.5v-2.25c0-1-.66-1.41-1.47-.94a3.31,3.31,0,0,0-1.47,2.63v2.26l-2.59,1.5v-5.87l4.06-7Z" style="fill:#455a64"></path><path d="M140.49,371.26a2.09,2.09,0,0,1-1.07-.28,2.7,2.7,0,0,1-1.18-2.48,7.44,7.44,0,0,1,3.42-5.92,2.42,2.42,0,0,1,3.92,2.26,7.46,7.46,0,0,1-3.42,5.92A3.4,3.4,0,0,1,140.49,371.26Zm2.83-8.18a2.41,2.41,0,0,0-1.16.36,6.58,6.58,0,0,0-2.92,5.06,1.45,1.45,0,0,0,2.42,1.39,6.55,6.55,0,0,0,2.92-5.05,1.77,1.77,0,0,0-.68-1.62A1.21,1.21,0,0,0,143.32,363.08Z" style="fill:#455a64"></path><path d="M146.31,370.38a.5.5,0,0,1-.26-.08l-2.42-1.51a.49.49,0,0,1-.16-.69.51.51,0,0,1,.69-.16l2.42,1.51a.51.51,0,0,1,.16.69A.52.52,0,0,1,146.31,370.38Z" style="fill:#455a64"></path><path d="M165.11,359.14a1.87,1.87,0,0,1-.93-.24,2.31,2.31,0,0,1-1-2.12V353.4a6.2,6.2,0,0,1,2.85-4.93l2.93-1.69a2.08,2.08,0,0,1,3.35,1.93v3.38a6.21,6.21,0,0,1-2.85,4.93l-2.93,1.7A2.88,2.88,0,0,1,165.11,359.14Zm5.25-11.78a1.86,1.86,0,0,0-.91.28l-2.93,1.69a5.3,5.3,0,0,0-2.35,4.07v3.38a1.1,1.1,0,0,0,1.85,1.07l2.93-1.69a5.3,5.3,0,0,0,2.35-4.07v-3.38a1.39,1.39,0,0,0-.51-1.25A.88.88,0,0,0,170.36,347.36Z" style="fill:#455a64"></path><path d="M167.73,355.59a.5.5,0,0,1-.5-.5V350.4a.51.51,0,0,1,.5-.5.5.5,0,0,1,.5.5v4.69A.5.5,0,0,1,167.73,355.59Z" style="fill:#455a64"></path><path d="M165.7,354.42a.5.5,0,0,1-.25-.93l4.07-2.35a.5.5,0,0,1,.68.18.51.51,0,0,1-.18.69L166,354.35A.45.45,0,0,1,165.7,354.42Z" style="fill:#455a64"></path><path d="M193.83,342.92a.46.46,0,0,1-.23-.06l-1.36-.73-.39-.2c-1.11-.51-2.73-1.26-2.5-3.91A5.27,5.27,0,0,1,192,333.8a1.72,1.72,0,0,1,1.67.1,5.07,5.07,0,0,1,1.51-1.94,2,2,0,0,1,2-.38,2.1,2.1,0,0,1,1.1,1.83c.21,2.24-1.15,4.45-2.25,6.22-.19.31-.33.53-.45.75l-1.36,2.29A.5.5,0,0,1,193.83,342.92Zm-1.06-8.29a1.08,1.08,0,0,0-.39.09,4.39,4.39,0,0,0-2,3.39c-.16,1.95.84,2.41,1.89,2.9.2.09.35.16.49.24l.93.5,1.11-1.88.42-.69c1.06-1.72,2.32-3.77,2.14-5.67,0-.52-.23-.89-.51-1a1.1,1.1,0,0,0-1,.27,4.44,4.44,0,0,0-1.46,2.24.5.5,0,0,1-.44.36.52.52,0,0,1-.49-.29A.66.66,0,0,0,192.77,334.63Z" style="fill:#455a64"></path><path d="M215,330.68a.5.5,0,0,1-.5-.5v-.88a6.22,6.22,0,0,1,2.84-4.93l2.93-1.69a2.07,2.07,0,0,1,3.35,1.93v.88a.5.5,0,0,1-1,0v-.88a1.1,1.1,0,0,0-1.85-1.06l-2.93,1.69a5.27,5.27,0,0,0-2.34,4.06v.88A.5.5,0,0,1,215,330.68Z" style="fill:#455a64"></path><path d="M218.18,323.26a1.62,1.62,0,0,1-.78-.2,1.92,1.92,0,0,1-.84-1.75,5,5,0,0,1,2.28-3.95h0a1.73,1.73,0,0,1,2.78,1.61,5,5,0,0,1-2.28,3.95A2.33,2.33,0,0,1,218.18,323.26ZM220,318a1.48,1.48,0,0,0-.65.21h0a4,4,0,0,0-1.78,3.09,1,1,0,0,0,.34.88,1,1,0,0,0,.94-.14,4,4,0,0,0,1.78-3.08,1,1,0,0,0-.34-.89A.65.65,0,0,0,220,318Zm-.9-.22h0Z" style="fill:#455a64"></path><polygon points="113.48 334.21 147.74 314.43 147.74 351.95 113.48 371.74 113.48 334.21" style="fill:#4481EB"></polygon><polygon points="113.48 334.21 147.74 314.43 147.74 351.95 113.48 371.74 113.48 334.21" style="fill:#fff;opacity:0.7000000000000001"></polygon><polygon points="113.48 371.74 125.1 338.9 136.13 351.57 134.08 347.78 138.35 338.61 147.74 351.95 113.48 371.74" style="fill:#4481EB"></polygon><path d="M135.77,329.58c1.13-.65,2-.13,2,1.17a4.55,4.55,0,0,1-2.1,3.55c-1.16.67-2.07.15-2-1.17A4.66,4.66,0,0,1,135.77,329.58Z" style="fill:#4481EB"></path><polygon points="151.18 312.45 185.44 292.66 185.45 330.19 151.18 349.97 151.18 312.45" style="fill:#4481EB"></polygon><polygon points="151.18 312.45 185.44 292.66 185.45 330.19 151.18 349.97 151.18 312.45" style="fill:#fff;opacity:0.7000000000000001"></polygon><polygon points="151.18 349.97 162.8 317.14 173.84 329.81 171.78 326.01 176.06 316.85 185.44 330.19 151.18 349.97" style="fill:#4481EB"></polygon><path d="M173.48,307.81c1.12-.65,2-.13,2,1.17a4.58,4.58,0,0,1-2.1,3.56c-1.16.66-2.07.14-2-1.18A4.7,4.7,0,0,1,173.48,307.81Z" style="fill:#4481EB"></path><polygon points="188.89 290.68 223.15 270.89 223.15 308.42 188.89 328.2 188.89 290.68" style="fill:#4481EB"></polygon><polygon points="188.89 290.68 223.15 270.89 223.15 308.42 188.89 328.2 188.89 290.68" style="fill:#fff;opacity:0.7000000000000001"></polygon><polygon points="188.89 328.2 200.51 295.37 211.54 308.04 209.49 304.24 213.76 295.08 223.15 308.42 188.89 328.2" style="fill:#4481EB"></polygon><path d="M211.18,286c1.12-.65,2-.13,2,1.17a4.55,4.55,0,0,1-2.09,3.56c-1.16.67-2.07.14-2-1.18A4.68,4.68,0,0,1,211.18,286Z" style="fill:#4481EB"></path></g></g><g id="freepik--Puff--inject-36"><g id="freepik--bean-bag--inject-36"><path d="M397.6,217.15c16.18,9.34,41.92,27.91,41.92,67.78s-26.8,71.47-62.89,84.72c-19.3,7.08-49.9,9.8-73.21-2.13-20.27-10.37-33.92-21-41.36-40.4-12.46-32.47,0-57.5,18.65-70.95s26.23-18.52,42.11-33.56c8.07-7.63,20.12-12.76,32.85-14.18A71.15,71.15,0,0,1,397.6,217.15Z" style="fill:#4481EB"></path><path d="M397.6,217.15c16.18,9.34,41.92,27.91,41.92,67.78s-26.8,71.47-62.89,84.72c-19.3,7.08-49.9,9.8-73.21-2.13-20.27-10.37-33.92-21-41.36-40.4-12.46-32.47,0-57.5,18.65-70.95s26.23-18.52,42.11-33.56c8.07-7.63,20.12-12.76,32.85-14.18A71.15,71.15,0,0,1,397.6,217.15Z" style="fill:#fff;opacity:0.6000000000000001"></path><path d="M393.4,350.28c32-26,34.27-67.43,26.38-92.68-8.27-26.44-33.26-46.31-64.13-49.17h0a62.24,62.24,0,0,1,6.73-.37c27.82,4.46,50.72,24.18,58.53,49.18,8,25.57,5.65,67.57-26.77,94-13.85,11.29-34.81,21.09-51.37,24.47-2,0-4,0-6-.06C356.77,372.78,379.71,361.44,393.4,350.28Z" style="fill:#4481EB"></path><path d="M393.4,350.28c32-26,34.27-67.43,26.38-92.68-8.27-26.44-33.26-46.31-64.13-49.17h0a62.24,62.24,0,0,1,6.73-.37c27.82,4.46,50.72,24.18,58.53,49.18,8,25.57,5.65,67.57-26.77,94-13.85,11.29-34.81,21.09-51.37,24.47-2,0-4,0-6-.06C356.77,372.78,379.71,361.44,393.4,350.28Z" style="opacity:0.05"></path><path d="M298.07,279.74c12-6.64,14.34-13.91,24.75-41s29.84-18.51,29.84-18.51,36.4,10.69,42,27.64c4.55,13.75-1.27,31.35-5.85,41.88a51,51,0,0,1-8,13.1c13.72-2.7,24.65,6.56,24.65,6.56s-11.57-5.5-30.57,2.12c-11.25,4.52-20,13.44-32,16.94-9.28,2.72-18.69,5.47-26.34,11.66a35.29,35.29,0,0,0-12.82,22.56,13.35,13.35,0,0,1-1,4.45c-12.09-6.23-21.79-12.62-29.19-21-.22-2.7-.06-5.47-.13-8.17-.26-10-.39-19.95.14-29.9C274.77,285.25,286.06,286.38,298.07,279.74Z" style="opacity:0.1"></path></g></g><g id="freepik--character--inject-36"><g id="freepik--character--inject-36"><path d="M338.06,200.66c-5.53-.52-11.9.16-15.25,4.32-4.44,5.53-13.65,28.12-16.66,39.41-.82,3.09,13.44,10.38,13.44,10.38L329,234.54Z" style="fill:#f28f8f"></path><path d="M337.13,200.43c-6.24-.5-10.62.58-13.54,3.25s-6.18,9.59-7.86,13.59-5.4,13.93-5.4,13.93,4.3,6,16.22,7.92C330.26,227.64,337.13,200.43,337.13,200.43Z" style="fill:#4481EB"></path><path d="M276.65,346.26s4.81,15.85,4.57,21.9c-.25,6.31,1.08,8.53-.62,15.26-.37,1.47-1.43,4.38-1.73,5.57a1.78,1.78,0,0,0,1.4,2.37c2.67.82,7.67-3.88,10.34-9.25A164.08,164.08,0,0,0,297.82,363a8.59,8.59,0,0,0-.45-4.48,13.27,13.27,0,0,0-1-2.39c-.65-2.81-.6-8.05-1-11.71Z" style="fill:#ffa8a7"></path><path d="M302.62,369.19a6.61,6.61,0,0,1,.54,2.13c-.05,1.26-3.26,5.12-4.51,6.52a10.07,10.07,0,0,0-2.7,7c-.21,4-2.34,7.72-5.23,10.78a27.7,27.7,0,0,1-14.53,7.7c-6.8,1.42-8.82-2.11-8.82-2.11s-1.76-3.38-.4-4.57S302.62,369.19,302.62,369.19Z" style="fill:#263238"></path><path d="M296.33,356.11c.2,0,.56,0,1,.66.18.26,1.11,3.34,2,5s3.21,4.86,3.31,7.42c-2,4.76-6.9,7.75-8,12.31s-1.69,9.93-9.33,14.94-15,4.91-17.5,3.17-2-4.54,2.18-9.56c4.41-5.33,8.18-17.43,8.18-17.43a41.71,41.71,0,0,0,1.17-5.18,35.26,35.26,0,0,0,0-5.24,3.84,3.84,0,0,1,.55-2.32,3.93,3.93,0,0,1,2.08-1.17,17,17,0,0,1,3.77-.9,5.85,5.85,0,0,1,3.72.8,28,28,0,0,0,2.22,1.72,3.4,3.4,0,0,0,3.55-.3,2.89,2.89,0,0,0,1.24-3.12A6.52,6.52,0,0,0,296.33,356.11Z" style="fill:#455a64"></path><path d="M289.85,392.28s-2.24-5.85-9.79-6.53-10.53,2.94-11.89,5.09c-1.62,2.56-3.49,7.31-.51,9,3.23,1.82,7.17,1.72,13.59-.79S289.85,392.28,289.85,392.28Z" style="fill:#fafafa"></path><path d="M290.58,369.41a.8.8,0,0,1-.69-.07c-1.11-.7-7.16-2.57-11.07.44-.43-.42-.27-1.09.41-2,4.46-2.28,10.19-.55,11.53.3a.72.72,0,0,1,.2,1A.8.8,0,0,1,290.58,369.41Z" style="fill:#fafafa"></path><path d="M277.64,374.11a2.35,2.35,0,0,1,.62-2c4.36-1.87,9.69-.24,11,.57a.73.73,0,0,1,.2,1,.79.79,0,0,1-.39.29.77.77,0,0,1-.69-.07C287.28,373.22,281.54,371.46,277.64,374.11Z" style="fill:#fafafa"></path><path d="M273.61,384a4.3,4.3,0,0,1,1.22-2.65c4.43-2.14,10-.44,11.35.4a.72.72,0,0,1,.2,1,.81.81,0,0,1-1.07.23C284.13,382.29,277.46,380.26,273.61,384Z" style="fill:#fafafa"></path><path d="M287.52,378.54a.78.78,0,0,1-.68-.07c-1.1-.69-7-2.51-10.94.34a2.65,2.65,0,0,1,.84-2.17c4.36-1.87,9.68-.24,11,.57a.72.72,0,0,1,.2,1A.83.83,0,0,1,287.52,378.54Z" style="fill:#fafafa"></path><path d="M268.2,364.39s-4.82,18.35-8.92,25.26-6.19,10.23-11.43,15.26c-1.14,1.1-3.69,3.1-4.62,4a1.87,1.87,0,0,0-.07,2.89c1.91,2.21,10.79,3.51,16.13.23s10.64-10.85,13.9-13.59c1.23-1,2.39-2.09,3.51-3.23s.91-2.24,1.12-3.56c.1-.64.17-2.4.17-2.4,1-3.08,3.28-7.83,4.55-10.79Z" style="fill:#ffa8a7"></path><path d="M278.45,403.47a6.87,6.87,0,0,1-.44,2.25c-.61,1.17-5.37,3.39-7.18,4.16a10.51,10.51,0,0,0-5.66,5.36c-2,3.72-5.66,6.26-9.77,7.87a28.88,28.88,0,0,1-17.18.79c-7.07-1.69-7.41-5.93-7.41-5.93s-.15-4,1.66-4.51S278.45,403.47,278.45,403.47Z" style="fill:#263238"></path><path d="M278.34,388.28c.18.1.54.23.67,1.08.05.32-.45,3.65-.37,5.6s.86,6-.19,8.51c-4,3.61-10,4.24-13.09,8.06s-6,8.64-15.5,10-16.4-2.06-18-4.82.14-5.18,6.32-8.07c6.56-3.08,15.53-12.84,15.53-12.84a44.09,44.09,0,0,0,3.43-4.38,37.44,37.44,0,0,0,2.33-5,4,4,0,0,1,1.55-2,4.16,4.16,0,0,1,2.5-.17,17.78,17.78,0,0,1,4,.83,6.1,6.1,0,0,1,3.17,2.42c.5.84.74,1.83,1.32,2.62a3.54,3.54,0,0,0,3.5,1.3,3,3,0,0,0,2.57-2.4S278.34,388.28,278.34,388.28Z" style="fill:#455a64"></path><path d="M256.05,419.61s.5-6.54-6.35-10.55-11.27-1.93-13.52-.5c-2.68,1.7-6.57,5.36-4.5,8.29,2.24,3.17,6,4.83,13.21,5.32S256.05,419.61,256.05,419.61Z" style="fill:#fafafa"></path><path d="M267,398.29a.8.8,0,0,1-.62-.37c-.74-1.17-5.64-5.63-10.67-4.53-.23-.59.23-1.16,1.28-1.71,5.23-.17,9.89,4,10.78,5.43a.76.76,0,0,1-.28,1.07A.84.84,0,0,1,267,398.29Z" style="fill:#fafafa"></path><path d="M252.61,397a2.45,2.45,0,0,1,1.5-1.64c5,.18,9.27,4.1,10.13,5.44a.76.76,0,0,1-.27,1.07.89.89,0,0,1-.5.11.86.86,0,0,1-.62-.38C262.13,400.43,257.49,396.19,252.61,397Z" style="fill:#fafafa"></path><path d="M244.37,404.54a4.51,4.51,0,0,1,2.34-2c5.14,0,9.68,4.05,10.56,5.44a.75.75,0,0,1-.27,1.06.84.84,0,0,1-1.12-.26C255.1,407.6,249.69,402.7,244.37,404.54Z" style="fill:#fafafa"></path><path d="M260,405.56a.8.8,0,0,1-.62-.37c-.73-1.15-5.53-5.52-10.51-4.56a2.79,2.79,0,0,1,1.77-1.68c5,.18,9.27,4.1,10.12,5.44a.74.74,0,0,1-.27,1.06A.71.71,0,0,1,260,405.56Z" style="fill:#fafafa"></path><path d="M319.13,262.11C311,267,283,279.89,271.22,288.89c-3.39,2.6-4.77,6.31-4.77,14.67,0,11.34,5.29,50.48,5.29,50.48,1,2.28,3.54-1.63,3.54-1.63l47.11-49.6Z" style="fill:#4481EB"></path><path d="M319.13,262.11C311,267,283,279.89,271.22,288.89c-3.39,2.6-4.77,6.31-4.77,14.67,0,11.34,5.29,50.48,5.29,50.48,1,2.28,3.54-1.63,3.54-1.63l47.11-49.6Z" style="opacity:0.30000000000000004"></path><path d="M274.68,342.28c10.5-7.25,46.61-54,46.61-54h0c-4-4-5-16.8-5-16.8-2.15,4.69-1,12.17.05,15-2.68,1.92-17.77,12.14-28.22,19-2.62,1.71-5.34,3.86-6.58,8.18C278.53,323.89,274.64,340.13,274.68,342.28Z" style="opacity:0.30000000000000004"></path><path d="M319.13,262.11h0l53.68,17.33c-3.58,9.71-4.74,14.74-8,19.73s-7.46,10.09-22.21,15.73c-14.21,5.43-31.45,10.78-34.91,12.06-2.62,1-4.27,5.85-6,12.23-1.82,6.69-2.42,12-10.47,25.66-7.89,13.38-9.52,16.27-9.52,16.27s-10.29.12-16.51-6.46c0,0,13.68-47.09,16.45-55.53,1.54-4.72,1.8-7.26,8.28-12,5.55-4.07,30.07-19.29,30.07-19.29S312,274.77,319.13,262.11Z" style="fill:#4481EB"></path><path d="M319.13,262.11h0l53.68,17.33c-3.58,9.71-4.74,14.74-8,19.73s-7.46,10.09-22.21,15.73c-14.21,5.43-31.45,10.78-34.91,12.06-2.62,1-4.27,5.85-6,12.23-1.82,6.69-2.42,12-10.47,25.66-7.89,13.38-9.52,16.27-9.52,16.27s-10.29.12-16.51-6.46c0,0,13.68-47.09,16.45-55.53,1.54-4.72,1.8-7.26,8.28-12,5.55-4.07,30.07-19.29,30.07-19.29S312,274.77,319.13,262.11Z" style="opacity:0.30000000000000004"></path><path d="M380.31,212.52c.46,4.81,2.4,45.63-9,71.47-15.29,7-52.7-3.62-55.58-22,0,0,5.13-7.52,7.07-13,.56-9.3,2.1-24.25,2.79-29.7,1.38-10.82,6.23-17.93,11.54-18.79l17.48.53,9.75,2.12S380,209.52,380.31,212.52Z" style="fill:#455a64"></path><path d="M367.89,155.93a8.71,8.71,0,0,1,6.46,5c1.28,2.83.12,8.39-1.74,15.71s-3.6,11.74-4.68,13.76a5.59,5.59,0,0,1-3.27,2.57l.28-8.7.36-6.07s-5.49,1.61-6.76-7.26c-.8-5.58,0-7.36,0-7.36Z" style="fill:#263238"></path><path d="M361.12,165.36A16.26,16.26,0,1,1,345,148.92,16.25,16.25,0,0,1,361.12,165.36Z" style="fill:#263238"></path><path d="M363.28,177.48c1.64.51,2.46-2.36,3.7-3.63s5.17-2.43,7.82,1.34-.51,10.13-3.52,11.5c-4.41,2-6.34-2.44-6.34-2.44l-.61,19.68s-1.18,3.67-8.73,6.26c-5.88,2-14.46-1.5-9-7.05l.08-6a25.06,25.06,0,0,1-8.51.08c-2.9-.58-5.15-2.89-6.44-7.47-2.54-8.95-1.79-20.7,1.73-31.29,4.51-3.43,15.67-1,25,5.07C358.68,175.71,361.43,176.91,363.28,177.48Z" style="fill:#ffa8a7"></path><path d="M349.6,185.51l-7.8,1.77a3.84,3.84,0,0,0,4.65,3.09A4.21,4.21,0,0,0,349.6,185.51Z" style="fill:#b16668"></path><path d="M349.21,188.16a3.4,3.4,0,0,0-1.8-.82A3.35,3.35,0,0,0,343.7,190a3.81,3.81,0,0,0,2.75.42A4.17,4.17,0,0,0,349.21,188.16Z" style="fill:#f28f8f"></path><path d="M330.22,147.7a.74.74,0,0,1,.59-.44,1,1,0,0,1,.54.24,26.8,26.8,0,0,0,3.54,2.43,12.82,12.82,0,0,1,0-4.86c.18-1,.48-3.26,1.7-3.5.73-.14,1.35.47,1.89,1,4.85,4.61,11.25,2.55,17.13,2.78,4.92.19,10.85,2.24,13,7,1,2.19,1.16,4.5-.86,6-1.73,1.28-7.21,4.59-9.25,5.18-5.4,1.54-19.46,3.34-26.64-5.85a14.43,14.43,0,0,1-2.3-6,7.26,7.26,0,0,1,.62-4Z" style="fill:#263238"></path><path d="M346.71,197.17s7.43-1.8,10.41-3.69a14.13,14.13,0,0,0,4.73-4.92s-.79,4.17-2.89,6.35c-3.68,3.81-12.27,4.64-12.27,4.64Z" style="fill:#f28f8f"></path><path d="M347.21,175.84A1.79,1.79,0,1,0,349,174,1.82,1.82,0,0,0,347.21,175.84Z" style="fill:#263238"></path><path d="M349,168.17l3.88,2a2.29,2.29,0,0,0-1-3A2.13,2.13,0,0,0,349,168.17Z" style="fill:#263238"></path><path d="M332.64,168.73l4.24-1.2a2.11,2.11,0,0,0-2.65-1.55A2.3,2.3,0,0,0,332.64,168.73Z" style="fill:#263238"></path><path d="M333.71,174.54a1.79,1.79,0,1,0,1.81-1.84A1.82,1.82,0,0,0,333.71,174.54Z" style="fill:#263238"></path><polygon points="342.06 183.21 336.18 181.23 342.48 171.48 342.06 183.21" style="fill:#f28f8f"></polygon><path d="M298.26,233.89h0l1.26-1h0a1.36,1.36,0,0,1,1.24-.06l12.77,4.32a4.8,4.8,0,0,1,2.76,2.9L324,267.63a1.23,1.23,0,0,1-.26,1.37h0l-1.3,1h0a1.35,1.35,0,0,1-1.25.07l-12.77-4.32a4.8,4.8,0,0,1-2.76-2.9c-1.51-5.41-6.19-22.12-7.71-27.53C297.75,234.62,297.9,234.12,298.26,233.89Z" style="fill:#455a64"></path><path d="M313.62,239a4.7,4.7,0,0,1,1.38,2.08l7.72,27.52a1.29,1.29,0,0,1-.21,1.35l1.22-.93h0a1.24,1.24,0,0,0,.26-1.37l-7.71-27.53a4.6,4.6,0,0,0-1.28-2Z" style="fill:#263238"></path><path d="M322.71,268.6,315,241.06a4.78,4.78,0,0,0-2.75-2.9l-12.77-4.32c-1.19-.4-1.88.25-1.54,1.46,1.52,5.41,6.2,22.12,7.71,27.53a4.8,4.8,0,0,0,2.76,2.9l12.77,4.32C322.36,270.45,323.05,269.8,322.71,268.6Z" style="fill:#37474f"></path><path d="M300.44,244.21c-2.25-.68-3.65,1.72-3.52,5.94s2.54,12.07,9.07,10.17c2.54-.74,4.4-4.94,1.77-6.84a43.15,43.15,0,0,1-6.13-5Z" style="fill:#f28f8f"></path><path d="M380.33,270.74c2.7-5.4,7.43-18.57,9.17-31.69,2.34-17.76,1.26-24.87-11.39-29-9.39,8.1-6.82,28.11-6.82,28.11-1.7,7.42-4.52,20.06-6.42,24.75-12-.13-33.8-7.18-36.22-8.51-1.25-.69-2.62-2.71-3.42-3.78a9.51,9.51,0,0,0-3.24-3c-1.66-.9-3-1.44-4.22-2.1l1.6,5.74c-.13.33-.89.4-1.24.51a20.78,20.78,0,0,1-7.91.89c-5.57-.48-10.74-4.58-9.72.37.41,2,1.18,5.68,4.1,8.21s13.76,3.76,16.8,5.22c0,0,27.76,12.13,39.18,13.65C372.81,281.68,375.07,281.27,380.33,270.74Z" style="fill:#ffa8a7"></path><path d="M377,209.3c6.13,1.87,11.35,3.46,13.52,12.29s-2.76,30.07-2.76,30.07-11.57,2.32-19.38-2.74l2-10.78C369.88,225.58,371.26,215.26,377,209.3Z" style="fill:#4481EB"></path></g></g><g id="freepik--Plant--inject-36"><g id="freepik--Pot--inject-36"><path d="M410,386.11c-8.61-8.79-13.67-35-5.27-42h42.73c8.39,7,3.34,33.16-5.26,42l-.24.24-.3.29c-.24.24-.5.47-.77.7l-.21.16c-.21.16-.42.33-.65.49s-.74.5-1.11.71c-7.09,4.09-18.57,4.09-25.65,0h0a12.46,12.46,0,0,1-1.12-.72c-.22-.15-.41-.3-.61-.46l-.25-.19c-.27-.22-.52-.45-.75-.67s-.23-.22-.34-.34Z" style="fill:#37474f"></path><path d="M443.71,341.34c9.75,5.63,9.75,14.76,0,20.38s-25.56,5.63-35.31,0-9.75-14.75,0-20.38S434,335.71,443.71,341.34Z" style="fill:#455a64"></path><path d="M439,344.05c7.16,4.13,7.16,10.83,0,15s-18.77,4.13-25.93,0-7.16-10.84,0-15S431.86,339.91,439,344.05Z" style="fill:#263238"></path><path d="M413.09,351.15c7.16-4.13,18.77-4.13,25.93,0a12,12,0,0,1,4.29,3.93A11.92,11.92,0,0,1,439,359c-7.16,4.13-18.77,4.13-25.93,0a11.83,11.83,0,0,1-4.29-3.94A11.9,11.9,0,0,1,413.09,351.15Z" style="fill:#f5f5f5"></path><g id="freepik--Plants--inject-36"><path d="M418.77,333.68c1.27-1.91,3.16-3.38,4.31-5.37,2.42-4.18-.48-8.26.73-12.51a6.92,6.92,0,0,1,3.83-4.11,20.94,20.94,0,0,1,5.59-1.46,8.85,8.85,0,0,0,2.95-.84c1.1-.62,1.44-1.71,2.13-2.67a18.56,18.56,0,0,1,2.71-2.89c2-1.8,4.53-3.28,7.32-3.16,5.81.26,5.65,5.26,4,9.05s-2.12,5,1.51,9,3.64,8.81-.69,11.54-7.15,3.09-5.44,8.33c1.53,4.69,2.48,8.69-1.85,13.7-2.8,3.24-6.63,5.55-11.41,5.35-8.67-.36-15.72-7.38-17.16-15.73a11.52,11.52,0,0,1,1.3-7.9Z" style="fill:#4481EB"></path><path d="M418.77,333.68c1.27-1.91,3.16-3.38,4.31-5.37,2.42-4.18-.48-8.26.73-12.51a6.92,6.92,0,0,1,3.83-4.11,20.94,20.94,0,0,1,5.59-1.46,8.85,8.85,0,0,0,2.95-.84c1.1-.62,1.44-1.71,2.13-2.67a18.56,18.56,0,0,1,2.71-2.89c2-1.8,4.53-3.28,7.32-3.16,5.81.26,5.65,5.26,4,9.05s-2.12,5,1.51,9,3.64,8.81-.69,11.54-7.15,3.09-5.44,8.33c1.53,4.69,2.48,8.69-1.85,13.7-2.8,3.24-6.63,5.55-11.41,5.35-8.67-.36-15.72-7.38-17.16-15.73a11.52,11.52,0,0,1,1.3-7.9Z" style="opacity:0.30000000000000004"></path><path d="M448.39,323.34a.43.43,0,0,0-.52-.31c-.36.09-8.23,2.16-13.56,5.13,4.57-11.67,10.58-18.19,10.68-18.3a.44.44,0,0,0,0-.61.43.43,0,0,0-.6,0,60.42,60.42,0,0,0-9.32,15,33.75,33.75,0,0,0-4.38-7.13.43.43,0,1,0-.66.56,32.83,32.83,0,0,1,4.56,7.64c-.49,1.14-1,2.34-1.45,3.6a.43.43,0,0,0-.11.3,74.84,74.84,0,0,0-4.61,26.69.42.42,0,0,0,.43.43.27.27,0,0,0,.13,0,.43.43,0,0,0,.29-.41,74,74,0,0,1,4.58-26.43c5.17-3.19,14.16-5.56,14.25-5.59A.43.43,0,0,0,448.39,323.34Z" style="fill:#fff"></path><path d="M426.77,358.45c-.24.15-2.24.85-2.52.93-3.2.92-7.36.43-11.13-.13-2.48-.37-5.82-.89-7.66-2.74a3.28,3.28,0,0,1-.89-3.53c.57-1.26,2.21-2,2.34-3.37-2.7-.9-5.89-.19-8.31-1.7a9.89,9.89,0,0,1-3.76-4.9,5.35,5.35,0,0,1-.18-4c.66-1.35,2.39-1.67,3.88-1.9a2.79,2.79,0,0,0,1.13-.33,1,1,0,0,0,.5-1c-.11-.48-.62-.72-1.09-.87-1-.32-2-.51-3-.88a4.63,4.63,0,0,1-2.43-1.86,6.1,6.1,0,0,1-.46-3.62,52.8,52.8,0,0,1,.88-6.25,40.94,40.94,0,0,0,.5-5.42,38,38,0,0,1,15.78.36c2.86.59,7,1.92,8.25,4.9a5.45,5.45,0,0,1,.32,2.68,9.08,9.08,0,0,1-.28,1.23c-.06.25-.31,1.24.3.78a1.12,1.12,0,0,0,.3-.41l2-4a2.4,2.4,0,0,1,.8-1.05c.8-.5,3-.11,5.23,1.7a8.7,8.7,0,0,1,2.82,4.95c.67,3,.16,6.14-.35,9.18l1.95-2.72c2.29-3.17,3.69,2.63,3.79,3.88a27.48,27.48,0,0,1-1.81,11.44C432.09,353.3,430,356.4,426.77,358.45Z" style="fill:#4481EB"></path><path d="M426.77,358.45c-.24.15-2.24.85-2.52.93-3.2.92-7.36.43-11.13-.13-2.48-.37-5.82-.89-7.66-2.74a3.28,3.28,0,0,1-.89-3.53c.57-1.26,2.21-2,2.34-3.37-2.7-.9-5.89-.19-8.31-1.7a9.89,9.89,0,0,1-3.76-4.9,5.35,5.35,0,0,1-.18-4c.66-1.35,2.39-1.67,3.88-1.9a2.79,2.79,0,0,0,1.13-.33,1,1,0,0,0,.5-1c-.11-.48-.62-.72-1.09-.87-1-.32-2-.51-3-.88a4.63,4.63,0,0,1-2.43-1.86,6.1,6.1,0,0,1-.46-3.62,52.8,52.8,0,0,1,.88-6.25,40.94,40.94,0,0,0,.5-5.42,38,38,0,0,1,15.78.36c2.86.59,7,1.92,8.25,4.9a5.45,5.45,0,0,1,.32,2.68,9.08,9.08,0,0,1-.28,1.23c-.06.25-.31,1.24.3.78a1.12,1.12,0,0,0,.3-.41l2-4a2.4,2.4,0,0,1,.8-1.05c.8-.5,3-.11,5.23,1.7a8.7,8.7,0,0,1,2.82,4.95c.67,3,.16,6.14-.35,9.18l1.95-2.72c2.29-3.17,3.69,2.63,3.79,3.88a27.48,27.48,0,0,1-1.81,11.44C432.09,353.3,430,356.4,426.77,358.45Z" style="opacity:0.15"></path><path d="M420.69,343.47a35,35,0,0,1,3.87-14.7l.05-.1a.39.39,0,0,0-.19-.52.4.4,0,0,0-.52.18l0,.11A36.52,36.52,0,0,0,420,342.23c-6.22-10.47-15.33-20.43-20.13-23a.42.42,0,0,0-.56.17.41.41,0,0,0,.16.57c4.73,2.57,13.73,12.41,19.85,22.75a24,24,0,0,0-15.6-1.05.39.39,0,0,0-.25.5.41.41,0,0,0,.31.26.43.43,0,0,0,.19,0,23.17,23.17,0,0,1,16,1.46c2.81,4.92,4.91,9.9,5.53,14.21a.43.43,0,0,0,.28.34.41.41,0,0,0,.19,0,.4.4,0,0,0,.35-.47C425.68,353.54,423.55,348.48,420.69,343.47Z" style="fill:#fff"></path></g></g></g><g id="freepik--speech-bubble--inject-36"><g id="freepik--speech-bubble--inject-36"><g id="freepik--speech-bubble--inject-36"><path d="M352,126.32l3.83-10.88-3.08-8.89v-5.44l9.42,5.44V112l-4.05,10.71a.65.65,0,0,1-.28.24h0Z" style="fill:#4481EB"></path><path d="M352,126.32l3.83-10.88-3.08-8.89v-5.44l9.42,5.44V112l-4.05,10.71a.65.65,0,0,1-.28.24h0Z" style="opacity:0.2"></path><path d="M329.52,57.88a6.25,6.25,0,0,1,2.82-4.9l2.3-1.32a6.25,6.25,0,0,1,5.65,0l35.26,20.39a6.26,6.26,0,0,1,2.83,4.9v38.8a6.25,6.25,0,0,1-2.83,4.89l-2.3,1.33a6.23,6.23,0,0,1-5.64,0l-11.35-6.55-4,10.69a.6.6,0,0,1-1.09-.11l-4.27-16-14.52-8.41a6.25,6.25,0,0,1-2.83-4.89Z" style="fill:#4481EB"></path><path d="M378.38,115.75a6.25,6.25,0,0,1-2.83,4.89l-2.3,1.33a6.34,6.34,0,0,1-5.16.23c1.33.5,2.34-.25,2.34-1.86V81.54a5.8,5.8,0,0,0-.83-2.79l7.95-4.59a5.83,5.83,0,0,1,.83,2.79Z" style="opacity:0.2"></path><path d="M329.61,57.07c.33-1.2,1.42-1.58,2.72-.83l35.28,20.41a5.53,5.53,0,0,1,2,2.1l7.94-4.58a5.64,5.64,0,0,0-2-2.11l-35.26-20.4a6.25,6.25,0,0,0-5.65,0L332.33,53A6.2,6.2,0,0,0,329.61,57.07Z" style="fill:#fff;opacity:0.30000000000000004"></path></g><path id="freepik--Heart--inject-36" d="M361,92.89a13.43,13.43,0,0,0-1.38-5.72h0l0,0a11.34,11.34,0,0,0-4.14-4.9c-2.4-1.42-4.47.36-5.26,3a.26.26,0,0,1-.51,0c-.71-3.64-2.79-8-5.26-9.47-1.65-1-3.14-.88-4.17,0v0h0a5.43,5.43,0,0,0-1.43,4.08c0,5.84,4,11.46,7.42,17.29l3.67,5.67,3.53-1.45C356.85,99.57,360.94,98.73,361,92.89Z" style="fill:#fafafa"></path></g></g><g id="freepik--Icons--inject-36"><g id="freepik--likes-and-hearts--inject-36"><path d="M407.09,144H407a.38.38,0,0,1-.23-.18l-6-10.78a.31.31,0,0,1-.05-.21c.18-2.12.43-5.48.36-6a16.36,16.36,0,0,0-1.68-3l-.43-.69c-.08-.15-.21-.54.36-1a3.17,3.17,0,0,1,3.94-.07,8.7,8.7,0,0,1,3.16,4.51l5.34-3a2.16,2.16,0,0,1,2-.1,2.67,2.67,0,0,1,1.23,1.09,2.58,2.58,0,0,1,.25,2,2.25,2.25,0,0,1,1.81,1.21,2.5,2.5,0,0,1-.17,2.63,3.33,3.33,0,0,1,.88,1.06,2.76,2.76,0,0,1-.43,2.79,4.13,4.13,0,0,1,.73,1,2.32,2.32,0,0,1,.14,1.87,3,3,0,0,1-1.39,1.63l-9.53,5.33A.39.39,0,0,1,407.09,144Zm-5.64-11.23,5.78,10.35,9.21-5.15a2.17,2.17,0,0,0,1-1.21,1.55,1.55,0,0,0-.07-1.27,3.58,3.58,0,0,0-.88-1,.38.38,0,0,1-.15-.32.4.4,0,0,1,.19-.31,1.91,1.91,0,0,0,.54-2.07,2.2,2.2,0,0,0-1-1,.37.37,0,0,1-.23-.28.38.38,0,0,1,.12-.35,1.7,1.7,0,0,0,.35-2.06,1.45,1.45,0,0,0-1.64-.8.37.37,0,0,1-.39-.13.38.38,0,0,1,0-.42,1.84,1.84,0,0,0,0-1.83,1.93,1.93,0,0,0-.87-.78,1.45,1.45,0,0,0-1.34.07l-5.76,3.22a.35.35,0,0,1-.33,0,.37.37,0,0,1-.22-.25,8,8,0,0,0-3-4.57,2.32,2.32,0,0,0-2.16-.38,2,2,0,0,0-1,.59c.08.13.21.34.37.58a13.15,13.15,0,0,1,1.79,3.35C401.89,127.42,401.53,131.82,401.45,132.73Z" style="fill:#4481EB"></path><path d="M402.38,148.5a.39.39,0,0,1-.33-.19l-7-12.54a.35.35,0,0,1,0-.28.36.36,0,0,1,.17-.23l4.16-2.32a.37.37,0,0,1,.51.14l7,12.54a.37.37,0,0,1,0,.29.33.33,0,0,1-.18.22l-4.15,2.33A.39.39,0,0,1,402.38,148.5Zm-6.5-12.77,6.64,11.89,3.5-2-6.64-11.88Z" style="fill:#4481EB"></path><path d="M296.08,191.43a3.38,3.38,0,0,1-.63-.07l-10.7-2.17a.34.34,0,0,1-.24-.16.35.35,0,0,1-.06-.28l2.46-12.1a.35.35,0,0,1,.1-.19c1.52-1.49,3.89-3.88,4.19-4.32a16.81,16.81,0,0,0,.7-3.41c.05-.37.09-.66.12-.8s.19-.54.94-.54h0a3.17,3.17,0,0,1,3,2.51,8.72,8.72,0,0,1-.54,5.48l6,1.22a2.16,2.16,0,0,1,1.59,1.23,2.72,2.72,0,0,1,.22,1.63,2.62,2.62,0,0,1-1.1,1.66,2.22,2.22,0,0,1,.59,2.09,2.49,2.49,0,0,1-1.84,1.89,3.56,3.56,0,0,1,0,1.38,2.45,2.45,0,0,1-1,1.31,2.55,2.55,0,0,1-1.19.52,4.42,4.42,0,0,1-.07,1.21,2.33,2.33,0,0,1-1.13,1.51A2.84,2.84,0,0,1,296.08,191.43Zm-10.82-2.9,10.33,2.1a2.29,2.29,0,0,0,1.58-.24,1.6,1.6,0,0,0,.77-1,3.81,3.81,0,0,0,0-1.37.39.39,0,0,1,.1-.34.4.4,0,0,1,.34-.11,1.47,1.47,0,0,0,1.09-.36,1.75,1.75,0,0,0,.67-.86,2.17,2.17,0,0,0-.07-1.37.38.38,0,0,1,0-.37.42.42,0,0,1,.32-.19,1.68,1.68,0,0,0,1.6-1.34,1.43,1.43,0,0,0-.72-1.66.39.39,0,0,1-.21-.36.38.38,0,0,1,.25-.33,1.89,1.89,0,0,0,1.19-1.4,1.86,1.86,0,0,0-.16-1.16,1.44,1.44,0,0,0-1.06-.82L294.84,176a.38.38,0,0,1-.26-.2.38.38,0,0,1,0-.33,8,8,0,0,0,.68-5.45,2.32,2.32,0,0,0-1.39-1.69,2,2,0,0,0-1.13-.19c0,.15-.06.39-.1.68a13.42,13.42,0,0,1-.82,3.71c-.41.62-3.55,3.72-4.2,4.36Z" style="fill:#4481EB"></path><path d="M283,190.52h-.07l-4.67-.94a.38.38,0,0,1-.29-.44L280.77,175a.39.39,0,0,1,.45-.29l4.66.95a.36.36,0,0,1,.24.16.39.39,0,0,1,.05.28l-2.85,14.08a.4.4,0,0,1-.16.24A.39.39,0,0,1,283,190.52Zm-4.22-1.61,3.93.79,2.7-13.34-3.93-.8Z" style="fill:#4481EB"></path><path d="M412.36,194.33a.36.36,0,0,1-.22-.07l-2.3-1.73c-3.11-2.34-6.71-6-6.17-10.23A5.38,5.38,0,0,1,414,181a5.38,5.38,0,0,1,9.66,3.87c-.53,4.15-4.91,6.82-8.49,8.34l-2.65,1.12Zm-3.37-16a4.63,4.63,0,0,0-4.58,4.05c-.49,3.86,2.93,7.31,5.88,9.53l2.13,1.6,2.45-1c3.4-1.44,7.55-4,8-7.74a4.63,4.63,0,0,0-8.69-2.73.36.36,0,0,1-.38.2.37.37,0,0,1-.32-.28,4.65,4.65,0,0,0-3.92-3.55C409.39,178.37,409.19,178.35,409,178.35Z" style="fill:#4481EB"></path><path d="M423.4,204.32a.37.37,0,0,1-.31-.15l-1-1.43c-1.44-2-2.92-4.84-1.82-7.3a3.47,3.47,0,0,1,6.58.88,3.47,3.47,0,0,1,3.28-.23,3.45,3.45,0,0,1,1.74,4.57c-1.09,2.42-4.2,3.23-6.63,3.48l-1.77.18Zm0-10.17a2.73,2.73,0,0,0-2.47,1.6c-1,2.13.41,4.73,1.73,6.54l.92,1.26,1.55-.16c2.23-.23,5.09-.95,6-3a2.72,2.72,0,0,0-4.41-3,.39.39,0,0,1-.42.08.37.37,0,0,1-.22-.37,2.74,2.74,0,0,0-1.6-2.66A2.67,2.67,0,0,0,423.39,194.15Z" style="fill:#4481EB"></path><path d="M295.85,120.58h-.05l-2.85-.43c-3.84-.58-8.75-2.11-10.28-6.08a5.38,5.38,0,0,1,8.45-6.07,5.39,5.39,0,0,1,3.39-4.25,5.38,5.38,0,0,1,6.95,3.08c1.5,3.9-1.08,8.33-3.51,11.36l-1.8,2.25A.39.39,0,0,1,295.85,120.58Zm-8.17-13.06a4.77,4.77,0,0,0-1.66.3,4.63,4.63,0,0,0-2.65,6c1.4,3.64,6,5.06,9.69,5.61l2.64.39,1.66-2.08c2.31-2.87,4.77-7,3.4-10.62a4.63,4.63,0,0,0-6-2.65,4.63,4.63,0,0,0-3,4.38.38.38,0,0,1-.24.35.37.37,0,0,1-.42-.1A4.64,4.64,0,0,0,287.68,107.52Z" style="fill:#4481EB"></path><path d="M310.31,124.14a.35.35,0,0,1-.17,0l-1.6-.76c-2.2-1-4.86-2.87-5.05-5.56a3.42,3.42,0,0,1,.83-2.51,3.46,3.46,0,0,1,5.37.16,3.47,3.47,0,0,1,6.48,1.44c.19,2.64-2.17,4.83-4.19,6.21l-1.46,1A.42.42,0,0,1,310.31,124.14Zm-3.37-9.32h-.19a2.66,2.66,0,0,0-1.86.93,2.7,2.7,0,0,0-.66,2c.17,2.32,2.61,4,4.63,4.93l1.41.68,1.29-.88c1.85-1.27,4-3.25,3.86-5.53a2.66,2.66,0,0,0-.93-1.86,2.72,2.72,0,0,0-2-.66,2.76,2.76,0,0,0-2.41,2,.37.37,0,0,1-.7,0A2.73,2.73,0,0,0,306.94,114.82Z" style="fill:#4481EB"></path></g></g></svg>