<svg xmlns="http://www.w3.org/2000/svg" viewBox="0 0 500 500"><g id="freepik--background-complete--inject-28"><rect y="382.4" width="500" height="0.25" style="fill:#ebebeb"></rect><rect x="337.85" y="393.56" width="10.48" height="0.25" style="fill:#ebebeb"></rect><rect x="64.93" y="388.56" width="40.25" height="0.25" style="fill:#ebebeb"></rect><rect x="125.18" y="389.3" width="59.15" height="0.25" style="fill:#ebebeb"></rect><rect x="251.97" y="389.3" width="17.03" height="0.25" style="fill:#ebebeb"></rect><rect x="391.44" y="390.88" width="54.6" height="0.25" style="fill:#ebebeb"></rect><rect x="206.22" y="395" width="22.56" height="0.25" style="fill:#ebebeb"></rect><rect x="451.88" y="391.01" width="14.31" height="0.25" style="fill:#ebebeb"></rect><path d="M237,337.8H43.91a5.71,5.71,0,0,1-5.7-5.71V60.66A5.71,5.71,0,0,1,43.91,55H237a5.71,5.71,0,0,1,5.71,5.71V332.09A5.71,5.71,0,0,1,237,337.8ZM43.91,55.2a5.46,5.46,0,0,0-5.45,5.46V332.09a5.46,5.46,0,0,0,5.45,5.46H237a5.47,5.47,0,0,0,5.46-5.46V60.66A5.47,5.47,0,0,0,237,55.2Z" style="fill:#ebebeb"></path><path d="M453.31,337.8H260.21a5.72,5.72,0,0,1-5.71-5.71V60.66A5.72,5.72,0,0,1,260.21,55h193.1A5.71,5.71,0,0,1,459,60.66V332.09A5.71,5.71,0,0,1,453.31,337.8ZM260.21,55.2a5.47,5.47,0,0,0-5.46,5.46V332.09a5.47,5.47,0,0,0,5.46,5.46h193.1a5.47,5.47,0,0,0,5.46-5.46V60.66a5.47,5.47,0,0,0-5.46-5.46Z" style="fill:#ebebeb"></path><rect x="72.81" y="73.63" width="136.28" height="158.8" transform="translate(281.91 306.06) rotate(180)" style="fill:#f5f5f5"></rect><rect x="69.11" y="73.63" width="138.25" height="158.8" transform="translate(276.47 306.06) rotate(180)" style="fill:#f5f5f5"></rect><rect x="72.81" y="232.43" width="136.28" height="8.9" transform="translate(281.91 473.75) rotate(180)" style="fill:#e6e6e6"></rect><rect x="52.18" y="232.43" width="130.15" height="8.9" transform="translate(234.5 473.75) rotate(180)" style="fill:#f5f5f5"></rect><rect x="65.57" y="89.09" width="145.33" height="127.88" transform="translate(291.27 14.79) rotate(90)" style="fill:#fafafa"></rect><polygon points="183.78 225.69 153.34 80.37 113.45 80.37 143.88 225.69 183.78 225.69" style="fill:#fff"></polygon><polygon points="137.42 225.69 106.99 80.37 88.97 80.37 119.41 225.69 137.42 225.69" style="fill:#fff"></polygon><rect x="9.11" y="144.64" width="131.03" height="0.66" transform="translate(219.59 70.35) rotate(90)" style="fill:#fff"></rect><path d="M213,73.4v56.54H198s-26.88-17.53-33-53.6a6,6,0,0,1,5.9-7h38A4.07,4.07,0,0,1,213,73.4Z" style="fill:#e6e6e6"></path><path d="M213,220.57V134.5H198s-8.6,17.38-17.18,37.36A35,35,0,0,0,213,220.57Z" style="fill:#e6e6e6"></path><rect x="196.97" y="129.94" width="16.97" height="4.56" rx="1.5" transform="translate(410.9 264.44) rotate(180)" style="fill:#f5f5f5"></rect><path d="M64.87,73.4v56.54h15s26.88-17.53,33-53.6a6,6,0,0,0-5.9-7h-38A4.07,4.07,0,0,0,64.87,73.4Z" style="fill:#e6e6e6"></path><path d="M64.87,220.57V134.5h15s8.6,17.38,17.18,37.36a35,35,0,0,1-32.14,48.71Z" style="fill:#e6e6e6"></path><rect x="63.93" y="129.94" width="16.97" height="4.56" rx="1.5" style="fill:#f5f5f5"></rect><rect x="369.37" y="93.13" width="60.03" height="108.23" transform="translate(798.76 294.49) rotate(180)" style="fill:#e0e0e0"></rect><rect x="362.64" y="93.13" width="65.22" height="108.23" transform="translate(790.5 294.49) rotate(180)" style="fill:#f5f5f5"></rect><rect x="347.86" y="121.36" width="94.78" height="51.77" transform="translate(542.49 -248.01) rotate(90)" style="fill:#fff"></rect><rect x="388.24" y="118.19" width="14.01" height="15.59" transform="translate(521.23 -269.27) rotate(90)" style="fill:#f5f5f5"></rect><rect x="388.24" y="139.45" width="14.01" height="15.59" transform="translate(542.49 -248.01) rotate(90)" style="fill:#f5f5f5"></rect><rect x="388.24" y="160.71" width="14.01" height="15.59" transform="translate(563.75 -226.75) rotate(90)" style="fill:#f5f5f5"></rect><path d="M305.16,176a32.84,32.84,0,0,0,0-65.67h-2V176Z" style="fill:#e6e6e6"></path><circle cx="303.14" cy="143.2" r="32.83" transform="translate(-25.02 74.58) rotate(-13.48)" style="fill:#f5f5f5"></circle><circle cx="303.14" cy="143.2" r="24.76" transform="translate(-19.14 50.81) rotate(-9.29)" style="fill:#fff"></circle><polygon points="292.9 152.41 290.97 149.64 301.27 142.46 297.87 125.92 301.17 125.24 305.02 143.95 292.9 152.41" style="fill:#e6e6e6"></polygon><rect x="143.5" y="270" width="42.91" height="115.94" transform="translate(329.91 655.95) rotate(180)" style="fill:#e6e6e6"></rect><polygon points="154.96 385.94 143.5 385.94 143.5 366.74 166.97 366.74 154.96 385.94" style="fill:#f0f0f0"></polygon><rect x="400.76" y="270" width="42.91" height="115.94" transform="translate(844.42 655.95) rotate(180)" style="fill:#f0f0f0"></rect><rect x="143.5" y="270" width="267.26" height="109.33" transform="translate(554.26 649.34) rotate(180)" style="fill:#fafafa"></rect><polygon points="399.3 385.94 410.76 385.94 410.76 366.74 387.28 366.74 399.3 385.94" style="fill:#f0f0f0"></polygon><rect x="152.39" y="279.4" width="249.48" height="40.24" transform="translate(554.26 599.05) rotate(180)" style="fill:#f0f0f0"></rect><rect x="152.39" y="329.37" width="249.48" height="40.24" transform="translate(554.26 698.98) rotate(180)" style="fill:#f0f0f0"></rect><circle cx="335.9" cy="249.72" r="8.96" style="fill:#f5f5f5"></circle><path d="M342.22,254a7,7,0,1,0,7-7A7,7,0,0,0,342.22,254Z" style="fill:#f5f5f5"></path><circle cx="320.57" cy="253.99" r="8.96" style="fill:#f5f5f5"></circle><circle cx="305.88" cy="251.36" r="8.96" style="fill:#f5f5f5"></circle><path d="M373.89,252.53S372.66,270,325.51,270s-48.38-17.47-48.38-17.47Z" style="fill:#e6e6e6"></path></g><g id="freepik--Shadow--inject-28"><ellipse cx="250" cy="416.24" rx="193.89" ry="11.32" style="fill:#f5f5f5"></ellipse></g><g id="freepik--Character--inject-28"><path d="M206.3,160.64c.13.44.36,1.11.56,1.67l.64,1.79c.44,1.19.92,2.37,1.43,3.54a69.89,69.89,0,0,0,3.36,6.77c2.46,4.3,5.45,8.19,9,10.68l.62.43s0,0,0,0,0,.07.15.09a4.17,4.17,0,0,0,1.93-.53,24.57,24.57,0,0,0,5.6-4.07,76.18,76.18,0,0,0,5.49-5.57c1.78-2,3.53-4.07,5.18-6.1l4.77,2.88a71,71,0,0,1-9.27,14.68,31.22,31.22,0,0,1-7.1,6.44,14.09,14.09,0,0,1-5.84,2.13,10.34,10.34,0,0,1-3.94-.36,9.86,9.86,0,0,1-1.9-.78l-1.15-.64a33.13,33.13,0,0,1-7.51-6.2,47.87,47.87,0,0,1-5.56-7.4,63,63,0,0,1-4.17-8c-.59-1.36-1.15-2.74-1.66-4.13-.26-.7-.51-1.4-.74-2.12s-.44-1.38-.68-2.27Z" style="fill:#b97964"></path><path d="M216.63,178.31l-12.79,7.08s-.38-.55-1-1.5c-.45-.7-1-1.62-1.7-2.7-3.76-6.11-10-17.27-8.37-22,2.49-7.28,11.67-7.16,16.18,1.28a132,132,0,0,1,5.85,12.94c.47,1.18.86,2.21,1.16,3C216.39,177.62,216.63,178.31,216.63,178.31Z" style="fill:#4481EB"></path><path d="M216.63,178.31l-12.79,7.08s-.38-.55-1-1.5c-.45-.7-1-1.62-1.7-2.7-3.76-6.11-10-17.27-8.37-22,2.49-7.28,11.67-7.16,16.18,1.28a132,132,0,0,1,5.85,12.94c.47,1.18.86,2.21,1.16,3C216.39,177.62,216.63,178.31,216.63,178.31Z" style="opacity:0.2"></path><path d="M216,176.46l-13.12,7.43c-.45-.7-1-1.62-1.7-2.7l13.66-7.74C215.27,174.63,215.66,175.66,216,176.46Z" style="opacity:0.2"></path><path d="M192.58,160.07c2.86-1.38,6.16-.23,9.62,5.25S208.63,180,209,182.57l-5.11,2.82S191.53,167.36,192.58,160.07Z" style="opacity:0.2"></path><path d="M204.44,218.61H164.79c-.28-3.54.54-15.06-.07-29.73a188.37,188.37,0,0,0-3.94-32.34c-.18-.8-.36-1.59-.55-2.39,0,0,2-.41,4.89-.83,2.39-.35,5.39-.71,8.33-.85a147.89,147.89,0,0,1,16.85,0c2.59.24,5.12.67,7.14,1.06,2.58.52,4.34,1,4.34,1S211.31,176.92,204.44,218.61Z" style="fill:#4481EB"></path><path d="M204.44,218.61H164.79c-.28-3.54.54-15.06-.07-29.73a188.37,188.37,0,0,0-3.94-32.34c-.18-.8-.36-1.59-.55-2.39,0,0,2-.41,4.89-.83,2.39-.35,5.39-.71,8.33-.85a147.89,147.89,0,0,1,16.85,0c2.59.24,5.12.67,7.14,1.06,2.58.52,4.34,1,4.34,1S211.31,176.92,204.44,218.61Z" style="opacity:0.2"></path><polygon points="150.37 395.86 156.25 401.12 167.43 389.47 161.56 384.21 150.37 395.86" style="fill:#b97964"></polygon><polygon points="170.5 406.81 177.91 406.81 178.88 389.64 171.46 389.64 170.5 406.81" style="fill:#b97964"></polygon><polygon points="167.43 389.48 161.66 395.48 155.78 390.22 161.55 384.21 167.43 389.48" style="fill:#a76755"></polygon><polygon points="171.46 389.65 178.88 389.65 178.38 398.5 170.96 398.5 171.46 389.65" style="fill:#a76755"></polygon><path d="M204.06,218.23s7.81,54.06,10.48,83.49c2.14,23.6-48.91,94-48.91,94l-9.88-9.29s37.29-63.11,34.42-89.39c-2.78-25.46-12.2-78.84-12.2-78.84Z" style="fill:#4481EB"></path><path d="M204.06,218.23s7.81,54.06,10.48,83.49c2.14,23.6-48.91,94-48.91,94l-9.88-9.29s37.29-63.11,34.42-89.39c-2.78-25.46-12.2-78.84-12.2-78.84Z" style="opacity:0.7000000000000001"></path><path d="M178.3,406H170a.53.53,0,0,0-.55.51l-.4,6.59a1.32,1.32,0,0,0,1.3,1.32c2.9-.05,4.28-.23,8-.23,2.25,0,11.83.24,14.94.24s3-3.08,1.71-3.36c-5.92-1.25-13.25-3-15.34-4.61A2.07,2.07,0,0,0,178.3,406Z" style="fill:#263238"></path><path d="M157.87,399l-7.15-4.81a.66.66,0,0,0-.81,0l-5.46,5.51a1.1,1.1,0,0,0,.26,1.68c4.56,3.51,7.85,6.15,10.44,9.07,3,3.42,4.63,3.9,11.63,3.9,3.24,0,5.07-2.73,3.75-3.15-11.67-3.69-8.55-5.3-11.38-10.71A4.14,4.14,0,0,0,157.87,399Z" style="fill:#263238"></path><path d="M239.38,170.6l2.55-8.16,6.62,4.85s-3.62,7.27-6.07,6.61Z" style="fill:#b97964"></path><polygon points="248.9 159.32 252.63 163.89 248.55 167.29 241.93 162.44 248.9 159.32" style="fill:#b97964"></polygon><path d="M164.72,188.88a188.37,188.37,0,0,0-3.94-32.34c2.65-.23,7.18,0,7.93,4.31C169.52,165.45,168.5,176.27,164.72,188.88Z" style="opacity:0.2"></path><path d="M190.17,297.06c-1.43-13.11-4.63-33.65-7.38-50.47,1.44-2.82,5.47-8.52,5.47-8.52,3.62,12.51,11.49,59.66.27,123.35-11.7,18.86-22.9,34.32-22.9,34.32l-1.53-24.32C174.91,351.08,192.16,315.25,190.17,297.06Z" style="opacity:0.5"></path><path d="M167.42,164.92l-1.75,3q-.9,1.56-1.74,3.15-1.71,3.18-3.29,6.4c-1,2.15-2,4.31-2.89,6.47a67.9,67.9,0,0,0-2.25,6.51l-.12.4-.06.21c0,.06,0,0,0,0a.44.44,0,0,0-.06.18,4.72,4.72,0,0,0,0,.93,14.2,14.2,0,0,0,.59,2.78,48.34,48.34,0,0,0,2.53,6.34c2,4.3,4.43,8.67,6.86,12.89l-4.39,3.43A84.65,84.65,0,0,1,151,205.55a47.18,47.18,0,0,1-4-7.21,23.81,23.81,0,0,1-1.46-4.46,13.91,13.91,0,0,1-.3-2.81,10.22,10.22,0,0,1,.12-1.7l.07-.41,0-.26.11-.51a72.82,72.82,0,0,1,4.95-15.34c1.05-2.42,2.2-4.78,3.43-7.09.62-1.16,1.25-2.3,1.91-3.44s1.31-2.22,2.09-3.43Z" style="fill:#b97964"></path><path d="M170.07,167.65a139.5,139.5,0,0,1-6.43,15c-.53,1.1-1,2.08-1.42,2.87-.7,1.39-1.14,2.23-1.14,2.23l-15-8.32s.19-.63.53-1.69c.26-.8.6-1.85,1-3.06,2.5-7.13,7.61-19.85,12.62-20.58C167.72,153.06,173.11,158.66,170.07,167.65Z" style="fill:#4481EB"></path><path d="M163.64,182.7c-.53,1.1-1,2.08-1.42,2.87l-15.63-7.78c.26-.8.6-1.85,1-3.06Z" style="opacity:0.2"></path><path d="M180.93,407.24a9.5,9.5,0,0,1-2-.26.2.2,0,0,1-.14-.14.18.18,0,0,1,.08-.17c.23-.17,2.34-1.6,3.24-1.25a.65.65,0,0,1,.4.49,1,1,0,0,1-.22.94A2,2,0,0,1,180.93,407.24Zm-1.5-.51c1.33.26,2.3.22,2.65-.12a.64.64,0,0,0,.12-.62.3.3,0,0,0-.19-.24C181.52,405.56,180.29,406.18,179.43,406.73Z" style="fill:#4481EB"></path><path d="M179,407a.13.13,0,0,1-.08,0,.18.18,0,0,1-.09-.14c0-.09-.17-2.22.58-2.94a.85.85,0,0,1,.73-.24.68.68,0,0,1,.63.52c.17.81-.94,2.36-1.68,2.8Zm1-3a.5.5,0,0,0-.37.15,3.82,3.82,0,0,0-.49,2.35c.64-.54,1.38-1.72,1.27-2.25,0-.1-.08-.22-.33-.25Z" style="fill:#4481EB"></path><path d="M162.67,403a9.23,9.23,0,0,1-3.7-1.43.17.17,0,0,1-.08-.18.18.18,0,0,1,.15-.14c.4,0,3.91-.26,4.59.54a.56.56,0,0,1,.1.5.86.86,0,0,1-.52.62A1.53,1.53,0,0,1,162.67,403Zm-3-1.44c1.6.88,2.86,1.26,3.42,1a.55.55,0,0,0,.33-.39.19.19,0,0,0,0-.19C163,401.6,161.08,401.53,159.65,401.59Z" style="fill:#4481EB"></path><path d="M159.06,401.63a.18.18,0,0,1-.15-.08.2.2,0,0,1,0-.17c.06-.12,1.4-2.84,3.11-2,.47.23.52.51.48.7-.18.8-2.41,1.54-3.43,1.57Zm2.31-2.07c-.91,0-1.69,1.16-2,1.7,1.07-.14,2.69-.8,2.79-1.27,0-.11-.08-.21-.29-.32A1.12,1.12,0,0,0,161.37,399.56Z" style="fill:#4481EB"></path><path d="M163.25,212.61l7.38-1.28-3.79,8.54s-6.74,0-6.43-3.51Z" style="fill:#b97964"></path><polygon points="176.13 215.62 172.67 222.52 166.84 219.87 170.63 211.33 176.13 215.62" style="fill:#b97964"></polygon><polygon points="155.15 385.89 166.23 396.31 169.79 392.48 157.13 380.94 155.15 385.89" style="fill:#4481EB"></polygon><polygon points="155.15 385.89 166.23 396.31 169.79 392.48 157.13 380.94 155.15 385.89" style="fill:#fff;opacity:0.7000000000000001"></polygon><path d="M190,218.23s.71,56.66-.49,77.88c-1.32,23.25-7.91,100.25-7.91,100.25H168s.4-75.13-.41-98.14c-.89-25-3.19-80-3.19-80Z" style="fill:#4481EB"></path><path d="M190,218.23s.71,56.66-.49,77.88c-1.32,23.25-7.91,100.25-7.91,100.25H168s.4-75.13-.41-98.14c-.89-25-3.19-80-3.19-80Z" style="opacity:0.7000000000000001"></path><polygon points="167.43 396.36 182.1 396.36 182.92 391.21 166.72 392.01 167.43 396.36" style="fill:#4481EB"></polygon><polygon points="167.43 396.36 182.1 396.36 182.92 391.21 166.72 392.01 167.43 396.36" style="fill:#fff;opacity:0.7000000000000001"></polygon><path d="M170.07,167.65a139.5,139.5,0,0,1-6.43,15c-.53,1.1-1,2.08-1.42,2.87-.7,1.39-1.14,2.23-1.14,2.23l-15-8.32s.19-.63.53-1.69c.26-.8.6-1.85,1-3.06,2.5-7.13,7.61-19.85,12.62-20.58C167.72,153.06,173.11,158.66,170.07,167.65Z" style="opacity:0.2"></path><path d="M196.63,158.24c-.8,2.65-3,6.19-9.15,8l-1.6.48-1.63-.29c-12.55-2.25-17.17-9-18-10.31l-1.68-2.8c2.39-.35,5.39-.71,8.33-.85a147.89,147.89,0,0,1,16.85,0c2.59.24,5.12.67,7.14,1.06A10.3,10.3,0,0,1,196.63,158.24Z" style="fill:#4481EB"></path><path d="M196.63,158.24c-.8,2.65-3,6.19-9.15,8l-1.6.48-1.63-.29c-12.55-2.25-17.17-9-18-10.31l-1.68-2.8c2.39-.35,5.39-.71,8.33-.85a147.89,147.89,0,0,1,16.85,0c2.59.24,5.12.67,7.14,1.06A10.3,10.3,0,0,1,196.63,158.24Z" style="opacity:0.4"></path><path d="M186,159.54c-10.06-1.81-13.21-7-13.21-7,3.67-3.62,2.26-13.51,1-18.94l4.51,3.74,6.14,5.1a19.92,19.92,0,0,0-.39,2.48c-.33,3.33.53,6.36,5.43,7.52C189.5,152.41,193.56,157.29,186,159.54Z" style="fill:#b97964"></path><path d="M184.46,142.41a19.92,19.92,0,0,0-.39,2.48c-2.29-.46-5.35-2.9-5.67-5.24a10.66,10.66,0,0,1-.08-2.34Z" style="fill:#a76755"></path><path d="M188.63,114.63c3.66,1.65,5.69,11.94,1,14.16S181.71,111.5,188.63,114.63Z" style="fill:#263238"></path><path d="M172,125.76c1.57,7.21,2.12,11.5,6.38,14.79a9.6,9.6,0,0,0,15.52-6.91c.56-6.71-2.1-17.37-9.69-19.41A9.7,9.7,0,0,0,172,125.76Z" style="fill:#b97964"></path><path d="M163.59,118.61c-3.51,1.55-1.52,6.35.87,9.4,3.31,4.24,6.81,6.22,9.19,4.27,2.14-1.07,3.55-7.38,1.69-11.27,3.29-2.17,10.12.51,12.25-3s3.65-3.22,7.4-.9,6.75-6.85-3-8.56c5.4,2.43,4.16,7.16.21,2.31-2.79-3.42-9.48-7.2-14.13-2.1C174.64,112.48,162.59,106.73,163.59,118.61Z" style="fill:#263238"></path><path d="M170.29,133.28a8,8,0,0,0,4.58,2.73c2.27.38,2.78-1.72,1.63-3.76-1-1.83-3.48-4.24-5.51-3.7S168.82,131.51,170.29,133.28Z" style="fill:#b97964"></path><path d="M183.33,126.48c.09.59.48,1,.87,1s.63-.56.53-1.15-.47-1-.86-1S183.24,125.88,183.33,126.48Z" style="fill:#263238"></path><path d="M190,125.68c.09.59.48,1,.87,1s.63-.57.54-1.16-.48-1-.87-1S190,125.09,190,125.68Z" style="fill:#263238"></path><path d="M188,126.23a22.46,22.46,0,0,0,3.62,4.72,3.4,3.4,0,0,1-2.76.86Z" style="fill:#a24e3f"></path><path d="M186.63,133.69a5.16,5.16,0,0,1-3.73-1.53.18.18,0,0,1,0-.25.18.18,0,0,1,.25,0,5,5,0,0,0,4.12,1.37.17.17,0,0,1,.19.16.16.16,0,0,1-.15.19A5.58,5.58,0,0,1,186.63,133.69Z" style="fill:#263238"></path><path d="M180.92,124.56a.33.33,0,0,1-.17,0,.36.36,0,0,1-.14-.48,3.44,3.44,0,0,1,2.63-1.78.36.36,0,0,1,0,.71h0a2.65,2.65,0,0,0-2.05,1.41A.36.36,0,0,1,180.92,124.56Z" style="fill:#263238"></path><path d="M192.57,123a.36.36,0,0,1-.29-.16,2.92,2.92,0,0,0-2.22-1.34.35.35,0,0,1-.35-.35.35.35,0,0,1,.35-.35,3.55,3.55,0,0,1,2.8,1.65.35.35,0,0,1-.09.49A.36.36,0,0,1,192.57,123Z" style="fill:#263238"></path></g><g id="freepik--Folder--inject-28"><g style="opacity:0.9"><path d="M296.94,238.73h0a11.8,11.8,0,0,1,10.57-7.42h88.16c5.28,0,8.85,4.28,8,9.57L375.78,407.39A11.78,11.78,0,0,1,364.61,417H143.55a7.88,7.88,0,0,1-8-9.57l23.71-141.75a11.79,11.79,0,0,1,11.17-9.57H272.25C282.67,256.07,292.9,248.88,296.94,238.73Z" style="fill:#4481EB;opacity:0.9"></path></g><path d="M296.94,238.73h0a11.8,11.8,0,0,1,10.57-7.42h88.16c5.28,0,8.85,4.28,8,9.57L375.78,407.39A11.78,11.78,0,0,1,364.61,417H143.55a7.88,7.88,0,0,1-8-9.57l23.71-141.75a11.79,11.79,0,0,1,11.17-9.57H272.25C282.67,256.07,292.9,248.88,296.94,238.73Z" style="fill:#fff;opacity:0.5"></path><path d="M261.85,90.89l-66.71,231.8,152.6,43.91,66.7-231.8Z" style="fill:#4481EB;opacity:0.9"></path><path d="M261.85,90.89l-66.71,231.8,152.6,43.91,66.7-231.8Z" style="fill:#fff;opacity:0.7000000000000001"></path><path d="M258.89,101.16,195.14,322.69l147.41,42.42L402.3,135.83Z" style="fill:#4481EB;opacity:0.9;mix-blend-mode:multiply"></path><path d="M258.89,101.16,195.14,322.69l147.41,42.42L402.3,135.83Z" style="fill:#4481EB;opacity:0.6000000000000001"></path><g style="opacity:0.9"><path d="M258.89,101.16,195.14,322.69l147.41,42.42L402.3,135.83Z" style="fill:#fff;opacity:0.9;mix-blend-mode:multiply"></path><path d="M258.89,101.16,195.14,322.69l147.41,42.42L402.3,135.83Z" style="fill:#fff;opacity:0.6000000000000001"></path></g><circle cx="292.21" cy="145.79" r="27.51" transform="translate(-9.89 269.8) rotate(-48.83)" style="fill:#4481EB"></circle><path d="M286.18,166.73a21.8,21.8,0,1,1,27-14.91A21.79,21.79,0,0,1,286.18,166.73Z" style="fill:#fff"></path><rect x="251.69" y="182.49" width="50.54" height="11.36" transform="translate(62.83 -69.25) rotate(16.05)" style="fill:#4481EB"></rect><rect x="221.16" y="270.58" width="27.86" height="44.16" transform="translate(90.1 -53.6) rotate(16.05)" style="fill:#4481EB"></rect><rect x="315.9" y="297.84" width="27.86" height="44.16" transform="translate(101.33 -78.73) rotate(16.05)" style="fill:#4481EB"></rect><rect x="268.53" y="284.21" width="27.86" height="44.16" transform="translate(95.71 -66.16) rotate(16.05)" style="fill:#4481EB"></rect><rect x="306.96" y="196.04" width="34.19" height="11.36" transform="translate(68.42 -81.75) rotate(16.05)" style="fill:#4481EB"></rect><rect x="244.33" y="216.64" width="125.11" height="4.68" transform="translate(72.52 -76.32) rotate(16.05)" style="fill:#fff"></rect><rect x="242.81" y="217.5" width="62.21" height="4.68" transform="translate(71.47 -67.17) rotate(16.05)" style="fill:#fff"></rect><rect x="313.22" y="234.8" width="41.61" height="4.68" transform="translate(78.6 -83.12) rotate(16.05)" style="fill:#fff"></rect><rect x="239.32" y="232.28" width="100.01" height="4.68" transform="translate(76.16 -70.86) rotate(16.05)" style="fill:#fff"></rect><rect x="236.28" y="243.91" width="114.96" height="4.68" transform="matrix(0.96, 0.28, -0.28, 0.96, 79.55, -71.63)" style="fill:#fff"></rect><rect x="235.51" y="239.41" width="13.28" height="4.68" transform="translate(76.29 -57.54) rotate(16.05)" style="fill:#fff"></rect><rect x="257.62" y="252.3" width="58.68" height="4.68" transform="translate(81.61 -69.42) rotate(16.05)" style="fill:#fff"></rect><rect x="230.58" y="264.43" width="125.11" height="4.68" transform="translate(85.2 -70.66) rotate(16.05)" style="fill:#fff"></rect><path d="M244.09,99l-58.65,234,154,38.61,58.64-234Z" style="fill:#4481EB"></path><path d="M244.09,99l-58.65,234,154,38.61,58.64-234Z" style="fill:#fff;opacity:0.8"></path><circle cx="276.33" cy="152.78" r="27.51" transform="translate(-38.94 135.36) rotate(-25.78)" style="fill:#4481EB"></circle><circle cx="276.33" cy="152.78" r="21.8" transform="translate(76.29 397.09) rotate(-79.63)" style="fill:#fff"></circle><rect x="237.29" y="189.98" width="50.54" height="11.36" transform="translate(55.45 -57.96) rotate(14.07)" style="fill:#4481EB"></rect><rect x="210.4" y="279.46" width="27.86" height="44.16" transform="translate(80.05 -45.49) rotate(14.07)" style="fill:#4481EB"></rect><rect x="306.02" y="303.43" width="27.86" height="44.16" transform="translate(88.74 -68.02) rotate(14.07)" style="fill:#4481EB"></rect><rect x="258.21" y="291.45" width="27.86" height="44.16" transform="translate(84.4 -56.76) rotate(14.07)" style="fill:#4481EB"></rect><rect x="293" y="201.9" width="34.19" height="11.36" transform="translate(59.77 -69.17) rotate(14.07)" style="fill:#4481EB"></rect><rect x="230.98" y="223.08" width="125.11" height="4.68" transform="translate(63.61 -64.6) rotate(14.07)" style="fill:#fff"></rect><rect x="229.51" y="225.08" width="62.21" height="4.68" transform="translate(63.11 -56.54) rotate(14.07)" style="fill:#fff"></rect><rect x="300.48" y="240.29" width="41.61" height="4.68" transform="translate(68.63 -70.84) rotate(14.07)" style="fill:#fff"></rect><rect x="226.52" y="239.32" width="100.01" height="4.68" transform="translate(67.05 -59.98) rotate(14.07)" style="fill:#fff"></rect><rect x="223.88" y="250.79" width="114.96" height="4.68" transform="translate(69.99 -60.81) rotate(14.07)" style="fill:#fff"></rect><rect x="222.99" y="248.08" width="13.28" height="4.68" transform="translate(67.77 -48.31) rotate(14.07)" style="fill:#fff"></rect><rect x="245.52" y="259.41" width="58.68" height="4.68" transform="translate(71.89 -58.97) rotate(14.07)" style="fill:#fff"></rect><rect x="218.89" y="271.32" width="125.11" height="4.68" transform="translate(74.98 -60.22) rotate(14.07)" style="fill:#fff"></rect><path d="M238.06,273.49h0c.19-3.75,3.47-6.4,7.93-6.4h88.17c5.28,0,10.37,3.69,11.37,8.25L372,408.7c1,4.56-2.48,8.26-7.76,8.26H143.15c-5.29,0-10.38-3.7-11.38-8.26L110,296.71c-1-4.56,2.48-8.26,7.77-8.26H219.55C230,288.45,237.64,282.25,238.06,273.49Z" style="fill:#4481EB;opacity:0.5"></path></g></svg>